<svg xmlns="http://www.w3.org/2000/svg" xmlns:xlink="http://www.w3.org/1999/xlink" width="2000" zoomAndPan="magnify" viewBox="0 0 1500 1499.999933" height="2000" preserveAspectRatio="xMidYMid meet" version="1.0"><defs><g/><clipPath id="9eba278978"><rect x="0" width="719" y="0" height="1101"/></clipPath><clipPath id="b9238a5520"><path d="M 691.582031 633 L 709 633 L 709 671 L 691.582031 671 Z M 691.582031 633 " clip-rule="nonzero"/></clipPath><clipPath id="7c33e1f0e9"><path d="M 748 555.492188 L 788.332031 555.492188 L 788.332031 748.992188 L 748 748.992188 Z M 748 555.492188 " clip-rule="nonzero"/></clipPath><clipPath id="c21f89a8b9"><path d="M 1125 633 L 1141.851562 633 L 1141.851562 671 L 1125 671 Z M 1125 633 " clip-rule="nonzero"/></clipPath><clipPath id="03ce57f09f"><path d="M 1046.601562 555.492188 L 1085 555.492188 L 1085 748.992188 L 1046.601562 748.992188 Z M 1046.601562 555.492188 " clip-rule="nonzero"/></clipPath><clipPath id="08158ffa90"><path d="M 780.6875 619.074219 L 1051.414062 619.074219 L 1051.414062 666.917969 L 780.6875 666.917969 Z M 780.6875 619.074219 " clip-rule="nonzero"/></clipPath><clipPath id="1b7a18960a"><path d="M 0.6875 0.0742188 L 271.414062 0.0742188 L 271.414062 47.917969 L 0.6875 47.917969 Z M 0.6875 0.0742188 " clip-rule="nonzero"/></clipPath><clipPath id="9c3f95e279"><rect x="0" width="272" y="0" height="48"/></clipPath><clipPath id="2783524aa3"><rect x="0" width="568" y="0" height="191"/></clipPath><clipPath id="ddc973beb9"><rect x="0" width="228" y="0" height="62"/></clipPath></defs><g fill="#fefefe" fill-opacity="1"><g transform="translate(61.139394, 64.387362)"><g><path d="M 4.578125 -42.78125 L 20.234375 -42.78125 C 24.066406 -42.78125 27.414062 -41.914062 30.28125 -40.1875 C 33.15625 -38.457031 35.375 -35.992188 36.9375 -32.796875 C 38.507812 -29.597656 39.296875 -25.816406 39.296875 -21.453125 C 39.296875 -17.097656 38.507812 -13.300781 36.9375 -10.0625 C 35.375 -6.820312 33.144531 -4.332031 30.25 -2.59375 C 27.363281 -0.863281 24.003906 0 20.171875 0 L 4.578125 0 Z M 19.4375 -4.890625 C 23.757812 -4.890625 27.222656 -6.304688 29.828125 -9.140625 C 32.429688 -11.972656 33.734375 -16.078125 33.734375 -21.453125 C 33.734375 -26.828125 32.441406 -30.929688 29.859375 -33.765625 C 27.273438 -36.597656 23.800781 -38.015625 19.4375 -38.015625 L 9.71875 -38.015625 L 9.71875 -4.890625 Z M 19.4375 -4.890625 "/></g></g></g><g fill="#fefefe" fill-opacity="1"><g transform="translate(103.132295, 64.387362)"><g><path d="M 5.015625 -32.21875 L 10.265625 -32.21875 L 10.265625 0 L 5.015625 0 Z M 7.578125 -38.203125 C 6.597656 -38.203125 5.78125 -38.535156 5.125 -39.203125 C 4.476562 -39.878906 4.15625 -40.6875 4.15625 -41.625 C 4.15625 -42.5625 4.476562 -43.363281 5.125 -44.03125 C 5.78125 -44.707031 6.597656 -45.046875 7.578125 -45.046875 C 8.554688 -45.046875 9.378906 -44.707031 10.046875 -44.03125 C 10.722656 -43.363281 11.0625 -42.5625 11.0625 -41.625 C 11.0625 -40.6875 10.722656 -39.878906 10.046875 -39.203125 C 9.378906 -38.535156 8.554688 -38.203125 7.578125 -38.203125 Z M 7.578125 -38.203125 "/></g></g></g><g fill="#fefefe" fill-opacity="1"><g transform="translate(118.413555, 64.387362)"><g><path d="M 15.59375 0.421875 C 12.976562 0.421875 10.710938 -0.09375 8.796875 -1.125 C 6.878906 -2.164062 5.421875 -3.5 4.421875 -5.125 C 3.429688 -6.757812 2.9375 -8.472656 2.9375 -10.265625 L 2.9375 -10.578125 L 8.1875 -10.578125 L 8.1875 -10.328125 C 8.1875 -9.304688 8.472656 -8.296875 9.046875 -7.296875 C 9.617188 -6.304688 10.472656 -5.492188 11.609375 -4.859375 C 12.753906 -4.222656 14.140625 -3.90625 15.765625 -3.90625 C 17.722656 -3.90625 19.34375 -4.382812 20.625 -5.34375 C 21.914062 -6.300781 22.5625 -7.617188 22.5625 -9.296875 C 22.5625 -10.679688 22.0625 -11.78125 21.0625 -12.59375 C 20.0625 -13.40625 18.804688 -13.9375 17.296875 -14.1875 L 13.078125 -14.796875 C 10.429688 -15.203125 8.210938 -16.109375 6.421875 -17.515625 C 4.628906 -18.921875 3.734375 -20.96875 3.734375 -23.65625 C 3.734375 -26.632812 4.800781 -28.945312 6.9375 -30.59375 C 9.070312 -32.238281 11.8125 -33.0625 15.15625 -33.0625 C 17.644531 -33.0625 19.773438 -32.601562 21.546875 -31.6875 C 23.316406 -30.769531 24.671875 -29.566406 25.609375 -28.078125 C 26.546875 -26.597656 27.015625 -24.984375 27.015625 -23.234375 L 27.015625 -22.984375 L 21.765625 -22.984375 L 21.765625 -23.109375 C 21.765625 -23.921875 21.550781 -24.773438 21.125 -25.671875 C 20.695312 -26.566406 19.972656 -27.335938 18.953125 -27.984375 C 17.929688 -28.640625 16.625 -28.96875 15.03125 -28.96875 C 13.082031 -28.96875 11.515625 -28.488281 10.328125 -27.53125 C 9.148438 -26.570312 8.5625 -25.320312 8.5625 -23.78125 C 8.5625 -22.507812 9.03125 -21.46875 9.96875 -20.65625 C 10.90625 -19.84375 12.085938 -19.316406 13.515625 -19.078125 L 18.09375 -18.34375 C 20.78125 -17.894531 23.039062 -16.96875 24.875 -15.5625 C 26.707031 -14.15625 27.625 -12.085938 27.625 -9.359375 C 27.625 -7.398438 27.101562 -5.6875 26.0625 -4.21875 C 25.03125 -2.75 23.597656 -1.609375 21.765625 -0.796875 C 19.929688 0.015625 17.875 0.421875 15.59375 0.421875 Z M 15.59375 0.421875 "/></g></g></g><g fill="#fefefe" fill-opacity="1"><g transform="translate(148.731572, 64.387362)"><g><path d="M 18.15625 0.421875 C 14.851562 0.421875 12.070312 -0.367188 9.8125 -1.953125 C 7.550781 -3.546875 5.867188 -5.625 4.765625 -8.1875 C 3.671875 -10.757812 3.125 -13.472656 3.125 -16.328125 C 3.125 -19.210938 3.671875 -21.925781 4.765625 -24.46875 C 5.867188 -27.019531 7.5625 -29.085938 9.84375 -30.671875 C 12.125 -32.265625 14.914062 -33.0625 18.21875 -33.0625 C 22.53125 -33.0625 25.976562 -31.613281 28.5625 -28.71875 C 31.15625 -25.832031 32.453125 -21.679688 32.453125 -16.265625 L 32.453125 -14.796875 L 8.375 -14.796875 L 8.375 -14.359375 C 8.375 -12.566406 8.78125 -10.875 9.59375 -9.28125 C 10.40625 -7.695312 11.546875 -6.414062 13.015625 -5.4375 C 14.484375 -4.457031 16.175781 -3.96875 18.09375 -3.96875 C 20.164062 -3.96875 21.957031 -4.5 23.46875 -5.5625 C 24.976562 -6.625 26.097656 -8.050781 26.828125 -9.84375 L 32.03125 -9.84375 C 31.175781 -6.90625 29.578125 -4.457031 27.234375 -2.5 C 24.890625 -0.550781 21.863281 0.421875 18.15625 0.421875 Z M 27.265625 -18.515625 C 27.097656 -22.179688 26.195312 -24.828125 24.5625 -26.453125 C 22.9375 -28.085938 20.800781 -28.90625 18.15625 -28.90625 C 15.257812 -28.90625 12.957031 -27.945312 11.25 -26.03125 C 9.539062 -24.125 8.625 -21.617188 8.5 -18.515625 Z M 27.265625 -18.515625 "/></g></g></g><g fill="#fefefe" fill-opacity="1"><g transform="translate(184.367464, 64.387362)"><g><path d="M 4.578125 -32.21875 L 9.84375 -32.21875 L 9.84375 -26.40625 L 10.328125 -26.40625 C 11.140625 -28.28125 12.460938 -29.859375 14.296875 -31.140625 C 16.128906 -32.421875 18.375 -33.0625 21.03125 -33.0625 C 23.757812 -33.0625 26.039062 -32.421875 27.875 -31.140625 C 29.707031 -29.859375 31.0625 -28.164062 31.9375 -26.0625 C 32.8125 -23.96875 33.25 -21.695312 33.25 -19.25 L 33.25 0 L 28 0 L 28 -18.578125 C 28 -21.753906 27.171875 -24.175781 25.515625 -25.84375 C 23.867188 -27.519531 21.722656 -28.359375 19.078125 -28.359375 C 16.265625 -28.359375 14.019531 -27.453125 12.34375 -25.640625 C 10.675781 -23.828125 9.84375 -21.472656 9.84375 -18.578125 L 9.84375 0 L 4.578125 0 Z M 9.96875 -37.953125 C 9.882812 -39.742188 10.257812 -41.3125 11.09375 -42.65625 C 11.925781 -44.007812 13.28125 -44.6875 15.15625 -44.6875 C 15.925781 -44.6875 16.628906 -44.53125 17.265625 -44.21875 C 17.898438 -43.914062 18.644531 -43.457031 19.5 -42.84375 C 20.113281 -42.394531 20.625 -42.054688 21.03125 -41.828125 C 21.4375 -41.609375 21.84375 -41.5 22.25 -41.5 C 22.976562 -41.5 23.503906 -41.804688 23.828125 -42.421875 C 24.160156 -43.035156 24.285156 -43.789062 24.203125 -44.6875 L 27.390625 -44.6875 C 27.503906 -42.925781 27.15625 -41.363281 26.34375 -40 C 25.53125 -38.632812 24.164062 -37.953125 22.25 -37.953125 C 21.476562 -37.953125 20.773438 -38.101562 20.140625 -38.40625 C 19.503906 -38.71875 18.757812 -39.179688 17.90625 -39.796875 C 17.257812 -40.242188 16.738281 -40.566406 16.34375 -40.765625 C 15.957031 -40.972656 15.5625 -41.078125 15.15625 -41.078125 C 13.726562 -41.078125 13.054688 -40.035156 13.140625 -37.953125 Z M 9.96875 -37.953125 "/></g></g></g><g fill="#fefefe" fill-opacity="1"><g transform="translate(221.775987, 64.387362)"><g><path d="M 18.21875 0.421875 C 14.957031 0.421875 12.195312 -0.359375 9.9375 -1.921875 C 7.675781 -3.492188 5.972656 -5.550781 4.828125 -8.09375 C 3.691406 -10.644531 3.125 -13.390625 3.125 -16.328125 C 3.125 -19.253906 3.691406 -21.988281 4.828125 -24.53125 C 5.972656 -27.082031 7.675781 -29.140625 9.9375 -30.703125 C 12.195312 -32.273438 14.957031 -33.0625 18.21875 -33.0625 C 21.476562 -33.0625 24.238281 -32.273438 26.5 -30.703125 C 28.757812 -29.140625 30.445312 -27.070312 31.5625 -24.5 C 32.6875 -21.9375 33.25 -19.210938 33.25 -16.328125 C 33.25 -13.429688 32.675781 -10.695312 31.53125 -8.125 C 30.394531 -5.5625 28.695312 -3.492188 26.4375 -1.921875 C 24.175781 -0.359375 21.4375 0.421875 18.21875 0.421875 Z M 18.21875 -4.09375 C 20.207031 -4.09375 21.945312 -4.640625 23.4375 -5.734375 C 24.925781 -6.835938 26.054688 -8.316406 26.828125 -10.171875 C 27.609375 -12.023438 28 -14.09375 28 -16.375 C 28 -19.882812 27.117188 -22.800781 25.359375 -25.125 C 23.609375 -27.445312 21.226562 -28.609375 18.21875 -28.609375 C 16.175781 -28.609375 14.410156 -28.054688 12.921875 -26.953125 C 11.441406 -25.859375 10.3125 -24.382812 9.53125 -22.53125 C 8.757812 -20.675781 8.375 -18.625 8.375 -16.375 C 8.375 -12.875 9.25 -9.953125 11 -7.609375 C 12.75 -5.265625 15.15625 -4.09375 18.21875 -4.09375 Z M 18.21875 -4.09375 "/></g></g></g><g fill="#fefefe" fill-opacity="1"><g transform="translate(258.145388, 64.387362)"><g/></g></g><g fill="#fefefe" fill-opacity="1"><g transform="translate(272.204133, 64.387362)"><g><path d="M 16.5 0.421875 C 13.644531 0.421875 11.207031 -0.304688 9.1875 -1.765625 C 7.175781 -3.234375 5.640625 -5.226562 4.578125 -7.75 C 3.523438 -10.28125 3 -13.140625 3 -16.328125 C 3 -19.546875 3.523438 -22.414062 4.578125 -24.9375 C 5.640625 -27.46875 7.1875 -29.453125 9.21875 -30.890625 C 11.257812 -32.335938 13.726562 -33.0625 16.625 -33.0625 C 19.476562 -33.0625 21.789062 -32.378906 23.5625 -31.015625 C 25.332031 -29.648438 26.644531 -28.050781 27.5 -26.21875 L 28 -26.21875 L 28 -45.84375 L 33.25 -45.84375 L 33.25 0 L 28 0 L 28 -6.59375 L 27.5 -6.59375 C 26.53125 -4.644531 25.15625 -2.988281 23.375 -1.625 C 21.601562 -0.257812 19.3125 0.421875 16.5 0.421875 Z M 18.09375 -4.09375 C 21.269531 -4.09375 23.691406 -5.265625 25.359375 -7.609375 C 27.035156 -9.953125 27.875 -12.859375 27.875 -16.328125 C 27.875 -19.785156 27.035156 -22.675781 25.359375 -25 C 23.691406 -27.320312 21.269531 -28.484375 18.09375 -28.484375 C 14.875 -28.484375 12.445312 -27.320312 10.8125 -25 C 9.1875 -22.675781 8.375 -19.785156 8.375 -16.328125 C 8.375 -12.816406 9.195312 -9.898438 10.84375 -7.578125 C 12.5 -5.253906 14.914062 -4.09375 18.09375 -4.09375 Z M 18.09375 -4.09375 "/></g></g></g><g fill="#fefefe" fill-opacity="1"><g transform="translate(310.04054, 64.387362)"><g><path d="M 18.15625 0.421875 C 14.851562 0.421875 12.070312 -0.367188 9.8125 -1.953125 C 7.550781 -3.546875 5.867188 -5.625 4.765625 -8.1875 C 3.671875 -10.757812 3.125 -13.472656 3.125 -16.328125 C 3.125 -19.210938 3.671875 -21.925781 4.765625 -24.46875 C 5.867188 -27.019531 7.5625 -29.085938 9.84375 -30.671875 C 12.125 -32.265625 14.914062 -33.0625 18.21875 -33.0625 C 22.53125 -33.0625 25.976562 -31.613281 28.5625 -28.71875 C 31.15625 -25.832031 32.453125 -21.679688 32.453125 -16.265625 L 32.453125 -14.796875 L 8.375 -14.796875 L 8.375 -14.359375 C 8.375 -12.566406 8.78125 -10.875 9.59375 -9.28125 C 10.40625 -7.695312 11.546875 -6.414062 13.015625 -5.4375 C 14.484375 -4.457031 16.175781 -3.96875 18.09375 -3.96875 C 20.164062 -3.96875 21.957031 -4.5 23.46875 -5.5625 C 24.976562 -6.625 26.097656 -8.050781 26.828125 -9.84375 L 32.03125 -9.84375 C 31.175781 -6.90625 29.578125 -4.457031 27.234375 -2.5 C 24.890625 -0.550781 21.863281 0.421875 18.15625 0.421875 Z M 27.265625 -18.515625 C 27.097656 -22.179688 26.195312 -24.828125 24.5625 -26.453125 C 22.9375 -28.085938 20.800781 -28.90625 18.15625 -28.90625 C 15.257812 -28.90625 12.957031 -27.945312 11.25 -26.03125 C 9.539062 -24.125 8.625 -21.617188 8.5 -18.515625 Z M 27.265625 -18.515625 "/></g></g></g><g fill="#fefefe" fill-opacity="1"><g transform="translate(345.676431, 64.387362)"><g/></g></g><g fill="#fefefe" fill-opacity="1"><g transform="translate(359.735176, 64.387362)"><g><path d="M 12.84375 0.25 C 10.4375 0.25 8.640625 -0.132812 7.453125 -0.90625 C 6.273438 -1.6875 5.53125 -2.695312 5.21875 -3.9375 C 4.914062 -5.1875 4.765625 -6.804688 4.765625 -8.796875 L 4.828125 -45.84375 L 10.078125 -45.84375 L 10.078125 -9.59375 C 10.078125 -8.050781 10.148438 -6.898438 10.296875 -6.140625 C 10.441406 -5.390625 10.828125 -4.789062 11.453125 -4.34375 C 12.085938 -3.894531 13.097656 -3.671875 14.484375 -3.671875 C 15.335938 -3.671875 16.09375 -3.726562 16.75 -3.84375 L 16.75 -0.0625 C 15.644531 0.144531 14.34375 0.25 12.84375 0.25 Z M 12.84375 0.25 "/></g></g></g><g fill="#fefefe" fill-opacity="1"><g transform="translate(378.92845, 64.387362)"><g><path d="M 18.21875 0.421875 C 14.957031 0.421875 12.195312 -0.359375 9.9375 -1.921875 C 7.675781 -3.492188 5.972656 -5.550781 4.828125 -8.09375 C 3.691406 -10.644531 3.125 -13.390625 3.125 -16.328125 C 3.125 -19.253906 3.691406 -21.988281 4.828125 -24.53125 C 5.972656 -27.082031 7.675781 -29.140625 9.9375 -30.703125 C 12.195312 -32.273438 14.957031 -33.0625 18.21875 -33.0625 C 21.476562 -33.0625 24.238281 -32.273438 26.5 -30.703125 C 28.757812 -29.140625 30.445312 -27.070312 31.5625 -24.5 C 32.6875 -21.9375 33.25 -19.210938 33.25 -16.328125 C 33.25 -13.429688 32.675781 -10.695312 31.53125 -8.125 C 30.394531 -5.5625 28.695312 -3.492188 26.4375 -1.921875 C 24.175781 -0.359375 21.4375 0.421875 18.21875 0.421875 Z M 18.21875 -4.09375 C 20.207031 -4.09375 21.945312 -4.640625 23.4375 -5.734375 C 24.925781 -6.835938 26.054688 -8.316406 26.828125 -10.171875 C 27.609375 -12.023438 28 -14.09375 28 -16.375 C 28 -19.882812 27.117188 -22.800781 25.359375 -25.125 C 23.609375 -27.445312 21.226562 -28.609375 18.21875 -28.609375 C 16.175781 -28.609375 14.410156 -28.054688 12.921875 -26.953125 C 11.441406 -25.859375 10.3125 -24.382812 9.53125 -22.53125 C 8.757812 -20.675781 8.375 -18.625 8.375 -16.375 C 8.375 -12.875 9.25 -9.953125 11 -7.609375 C 12.75 -5.265625 15.15625 -4.09375 18.21875 -4.09375 Z M 18.21875 -4.09375 "/></g></g></g><g fill="#fefefe" fill-opacity="1"><g transform="translate(415.297839, 64.387362)"><g><path d="M 19.015625 12.890625 C 17.785156 12.890625 16.796875 12.804688 16.046875 12.640625 C 15.296875 12.484375 14.53125 12.265625 13.75 11.984375 L 13.75 7.578125 C 14.28125 7.742188 14.992188 7.894531 15.890625 8.03125 C 16.785156 8.175781 17.660156 8.25 18.515625 8.25 C 21.691406 8.25 24.085938 7.351562 25.703125 5.5625 C 27.316406 3.769531 28.125 1.382812 28.125 -1.59375 L 28.125 -7.390625 L 27.625 -7.390625 C 26.769531 -5.472656 25.394531 -3.851562 23.5 -2.53125 C 21.601562 -1.207031 19.3125 -0.546875 16.625 -0.546875 C 13.9375 -0.546875 11.570312 -1.238281 9.53125 -2.625 C 7.5 -4.007812 5.921875 -5.9375 4.796875 -8.40625 C 3.679688 -10.875 3.125 -13.695312 3.125 -16.875 C 3.125 -20.050781 3.679688 -22.867188 4.796875 -25.328125 C 5.921875 -27.796875 7.5 -29.722656 9.53125 -31.109375 C 11.570312 -32.492188 13.9375 -33.1875 16.625 -33.1875 C 19.4375 -33.1875 21.789062 -32.460938 23.6875 -31.015625 C 25.582031 -29.566406 26.914062 -27.890625 27.6875 -25.984375 L 28.125 -25.984375 L 28.125 -32.15625 L 33.4375 -32.15625 L 33.4375 -1.59375 C 33.4375 0.6875 32.976562 2.925781 32.0625 5.125 C 31.144531 7.332031 29.601562 9.175781 27.4375 10.65625 C 25.28125 12.144531 22.472656 12.890625 19.015625 12.890625 Z M 18.34375 -5.078125 C 20.414062 -5.078125 22.1875 -5.632812 23.65625 -6.75 C 25.125 -7.875 26.210938 -9.34375 26.921875 -11.15625 C 27.640625 -12.96875 28 -14.914062 28 -17 C 28 -19.03125 27.640625 -20.921875 26.921875 -22.671875 C 26.210938 -24.429688 25.132812 -25.859375 23.6875 -26.953125 C 22.238281 -28.054688 20.457031 -28.609375 18.34375 -28.609375 C 15.195312 -28.609375 12.800781 -27.476562 11.15625 -25.21875 C 9.507812 -22.957031 8.6875 -20.21875 8.6875 -17 C 8.6875 -14.875 9.039062 -12.90625 9.75 -11.09375 C 10.457031 -9.28125 11.535156 -7.820312 12.984375 -6.71875 C 14.429688 -5.625 16.21875 -5.078125 18.34375 -5.078125 Z M 18.34375 -5.078125 "/></g></g></g><g fill="#fefefe" fill-opacity="1"><g transform="translate(453.745498, 64.387362)"><g><path d="M 18.21875 0.421875 C 14.957031 0.421875 12.195312 -0.359375 9.9375 -1.921875 C 7.675781 -3.492188 5.972656 -5.550781 4.828125 -8.09375 C 3.691406 -10.644531 3.125 -13.390625 3.125 -16.328125 C 3.125 -19.253906 3.691406 -21.988281 4.828125 -24.53125 C 5.972656 -27.082031 7.675781 -29.140625 9.9375 -30.703125 C 12.195312 -32.273438 14.957031 -33.0625 18.21875 -33.0625 C 21.476562 -33.0625 24.238281 -32.273438 26.5 -30.703125 C 28.757812 -29.140625 30.445312 -27.070312 31.5625 -24.5 C 32.6875 -21.9375 33.25 -19.210938 33.25 -16.328125 C 33.25 -13.429688 32.675781 -10.695312 31.53125 -8.125 C 30.394531 -5.5625 28.695312 -3.492188 26.4375 -1.921875 C 24.175781 -0.359375 21.4375 0.421875 18.21875 0.421875 Z M 18.21875 -4.09375 C 20.207031 -4.09375 21.945312 -4.640625 23.4375 -5.734375 C 24.925781 -6.835938 26.054688 -8.316406 26.828125 -10.171875 C 27.609375 -12.023438 28 -14.09375 28 -16.375 C 28 -19.882812 27.117188 -22.800781 25.359375 -25.125 C 23.609375 -27.445312 21.226562 -28.609375 18.21875 -28.609375 C 16.175781 -28.609375 14.410156 -28.054688 12.921875 -26.953125 C 11.441406 -25.859375 10.3125 -24.382812 9.53125 -22.53125 C 8.757812 -20.675781 8.375 -18.625 8.375 -16.375 C 8.375 -12.875 9.25 -9.953125 11 -7.609375 C 12.75 -5.265625 15.15625 -4.09375 18.21875 -4.09375 Z M 18.21875 -4.09375 "/></g></g></g><g transform="matrix(1, 0, 0, 1, 368, 138)"><g clip-path="url(#9eba278978)"><g fill="#d94147" fill-opacity="1"><g transform="translate(1.057629, 872.762993)"><g><path d="M 500.789062 -330.78125 L 639.722656 -330.78125 L 639.722656 -66.550781 L 637.480469 -64.859375 C 602.726562 -38.640625 562.515625 -18.53125 516.851562 -4.527344 C 471.277344 9.449219 425.390625 16.4375 379.195312 16.4375 C 312.804688 16.4375 253.074219 2.253906 200.003906 -26.109375 C 146.847656 -54.519531 105.140625 -93.941406 74.882812 -144.367188 C 44.625 -194.796875 29.496094 -251.757812 29.496094 -315.246094 C 29.496094 -378.734375 44.625 -435.691406 74.882812 -486.121094 C 105.148438 -536.558594 147.160156 -575.980469 200.929688 -604.390625 C 254.589844 -632.75 314.914062 -646.925781 381.894531 -646.925781 C 437.882812 -646.925781 488.738281 -637.476562 534.464844 -618.578125 C 580.320312 -599.625 618.855469 -572.097656 650.058594 -535.996094 L 653.625 -531.871094 L 551.867188 -437.945312 L 548.046875 -441.96875 C 504.121094 -488.238281 451.140625 -511.371094 389.101562 -511.371094 C 349.816406 -511.371094 314.980469 -503.191406 284.585938 -486.824219 C 254.3125 -470.523438 230.734375 -447.53125 213.855469 -417.84375 C 196.933594 -388.082031 188.472656 -353.882812 188.472656 -315.246094 C 188.472656 -277.207031 196.933594 -243.308594 213.855469 -213.546875 C 230.746094 -183.839844 254.195312 -160.6875 284.195312 -144.082031 C 314.269531 -127.441406 348.640625 -119.117188 387.300781 -119.117188 C 428.390625 -119.117188 465.335938 -127.902344 498.128906 -145.472656 L 500.789062 -140.507812 L 495.160156 -140.507812 L 495.160156 -330.78125 Z M 500.789062 -319.523438 L 500.789062 -325.152344 L 506.417969 -325.152344 L 506.417969 -137.136719 L 503.445312 -135.546875 C 468.992188 -117.089844 430.273438 -107.859375 387.300781 -107.859375 C 346.699219 -107.859375 310.515625 -116.648438 278.742188 -134.234375 C 246.894531 -151.855469 222.003906 -176.441406 204.070312 -207.980469 C 186.164062 -239.46875 177.210938 -275.222656 177.210938 -315.246094 C 177.210938 -355.867188 186.164062 -391.921875 204.070312 -423.410156 C 222.015625 -454.96875 247.074219 -479.414062 279.25 -496.738281 C 311.308594 -514 347.925781 -522.628906 389.101562 -522.628906 C 454.363281 -522.628906 510.066406 -498.328125 556.210938 -449.722656 L 552.128906 -445.847656 L 548.308594 -449.984375 L 641.984375 -536.449219 L 645.800781 -532.3125 L 641.542969 -528.632812 C 611.5 -563.386719 574.375 -589.898438 530.164062 -608.171875 C 485.816406 -626.503906 436.394531 -635.667969 381.894531 -635.667969 C 316.777344 -635.667969 258.207031 -621.925781 206.1875 -594.4375 C 154.273438 -567.003906 113.722656 -528.96875 84.539062 -480.328125 C 55.351562 -431.679688 40.757812 -376.652344 40.757812 -315.246094 C 40.757812 -253.835938 55.351562 -198.808594 84.539062 -150.160156 C 113.726562 -101.511719 153.984375 -63.472656 205.3125 -36.039062 C 256.722656 -8.558594 314.683594 5.179688 379.195312 5.179688 C 424.265625 5.179688 469.050781 -1.644531 513.550781 -15.289062 C 557.953125 -28.90625 597.003906 -48.425781 630.703125 -73.847656 L 634.09375 -69.355469 L 628.460938 -69.355469 L 628.460938 -325.152344 L 634.09375 -325.152344 L 634.09375 -319.523438 Z M 500.789062 -319.523438 "/></g></g></g><g fill="#d94147" fill-opacity="1"><g transform="translate(1.057629, 872.762993)"><g><path d="M 500.796875 -325.15625 L 634.09375 -325.15625 L 634.09375 -69.359375 C 599.863281 -43.535156 560.234375 -23.71875 515.203125 -9.90625 C 470.171875 3.90625 424.835938 10.8125 379.203125 10.8125 C 313.742188 10.8125 254.894531 -3.144531 202.65625 -31.0625 C 150.414062 -58.988281 109.429688 -97.722656 79.703125 -147.265625 C 49.984375 -196.804688 35.125 -252.800781 35.125 -315.25 C 35.125 -377.695312 49.984375 -433.6875 79.703125 -483.21875 C 109.429688 -532.757812 150.71875 -571.488281 203.5625 -599.40625 C 256.40625 -627.332031 315.847656 -641.296875 381.890625 -641.296875 C 437.140625 -641.296875 487.28125 -631.988281 532.3125 -613.375 C 577.351562 -594.757812 615.179688 -567.738281 645.796875 -532.3125 L 552.125 -445.84375 C 507.09375 -493.28125 452.753906 -517 389.109375 -517 C 348.867188 -517 313.132812 -508.59375 281.90625 -491.78125 C 250.6875 -474.96875 226.367188 -451.25 208.953125 -420.625 C 191.546875 -390 182.84375 -354.875 182.84375 -315.25 C 182.84375 -276.21875 191.546875 -241.390625 208.953125 -210.765625 C 226.367188 -180.140625 250.539062 -156.269531 281.46875 -139.15625 C 312.394531 -122.039062 347.671875 -113.484375 387.296875 -113.484375 C 429.335938 -113.484375 467.171875 -122.492188 500.796875 -140.515625 Z M 500.796875 -325.15625 "/></g></g></g></g></g><g clip-path="url(#b9238a5520)"><path fill="#172641" d="M 686.644531 643.183594 L 686.644531 661.5625 C 686.644531 666.636719 690.773438 670.765625 695.847656 670.765625 L 708.550781 670.765625 L 708.550781 633.980469 L 695.847656 633.980469 C 690.773438 633.980469 686.644531 638.109375 686.644531 643.183594 " fill-opacity="1" fill-rule="nonzero"/></g><path fill="#172641" d="M 732.128906 578.0625 L 725.414062 578.0625 C 719.203125 578.0625 714.160156 583.074219 714.160156 589.285156 L 714.160156 715.460938 C 714.160156 721.640625 719.203125 726.683594 725.414062 726.683594 L 732.128906 726.683594 C 738.339844 726.683594 743.382812 721.640625 743.382812 715.460938 L 743.382812 589.285156 C 743.382812 583.074219 738.339844 578.0625 732.128906 578.0625 " fill-opacity="1" fill-rule="nonzero"/><g clip-path="url(#7c33e1f0e9)"><path fill="#172641" d="M 777.171875 555.492188 L 760.246094 555.492188 C 754.035156 555.492188 748.992188 560.535156 748.992188 566.746094 L 748.992188 738 C 748.992188 744.207031 754.035156 749.25 760.246094 749.25 L 777.171875 749.25 C 783.351562 749.25 788.394531 744.207031 788.394531 738 L 788.394531 566.746094 C 788.394531 560.535156 783.351562 555.492188 777.171875 555.492188 " fill-opacity="1" fill-rule="nonzero"/></g><g clip-path="url(#c21f89a8b9)"><path fill="#172641" d="M 1137.878906 633.980469 L 1125.175781 633.980469 L 1125.175781 670.765625 L 1137.878906 670.765625 C 1142.953125 670.765625 1147.082031 666.636719 1147.082031 661.5625 L 1147.082031 643.183594 C 1147.082031 638.109375 1142.953125 633.980469 1137.878906 633.980469 " fill-opacity="1" fill-rule="nonzero"/></g><path fill="#172641" d="M 1108.34375 578.0625 L 1101.566406 578.0625 C 1095.390625 578.0625 1090.347656 583.074219 1090.347656 589.285156 L 1090.347656 715.460938 C 1090.347656 721.640625 1095.390625 726.683594 1101.566406 726.683594 L 1108.34375 726.683594 C 1114.523438 726.683594 1119.566406 721.640625 1119.566406 715.460938 L 1119.566406 589.285156 C 1119.566406 583.074219 1114.523438 578.0625 1108.34375 578.0625 " fill-opacity="1" fill-rule="nonzero"/><g clip-path="url(#03ce57f09f)"><path fill="#172641" d="M 1073.484375 555.492188 L 1056.554688 555.492188 C 1050.378906 555.492188 1045.335938 560.535156 1045.335938 566.746094 L 1045.335938 738 C 1045.335938 744.207031 1050.378906 749.25 1056.554688 749.25 L 1073.484375 749.25 C 1079.691406 749.25 1084.734375 744.207031 1084.734375 738 L 1084.734375 566.746094 C 1084.734375 560.535156 1079.691406 555.492188 1073.484375 555.492188 " fill-opacity="1" fill-rule="nonzero"/></g><g clip-path="url(#08158ffa90)"><g transform="matrix(1, 0, 0, 1, 780, 619)"><g clip-path="url(#9c3f95e279)"><g clip-path="url(#1b7a18960a)"><path fill="#172641" d="M 0.6875 0.0742188 L 271.5 0.0742188 L 271.5 47.917969 L 0.6875 47.917969 Z M 0.6875 0.0742188 " fill-opacity="1" fill-rule="nonzero"/></g></g></g></g><path stroke-linecap="butt" transform="matrix(0.75, -0.000000000000002511, 0.000000000000002511, 0.75, 788.263453, 665.418859)" fill="none" stroke-linejoin="miter" d="M -0.00231294 1.998814 L 343.351883 1.998814 " stroke="#fefefe" stroke-width="4" stroke-opacity="1" stroke-miterlimit="4"/><path stroke-linecap="butt" transform="matrix(0.749995, 0.00278294, -0.00278294, 0.749995, 788.268997, 617.573135)" fill="none" stroke-linejoin="miter" d="M -0.00227833 2.001468 L 344.453238 1.999376 " stroke="#fefefe" stroke-width="4" stroke-opacity="1" stroke-miterlimit="4"/><g transform="matrix(1, 0, 0, 1, 468, 1075)"><g clip-path="url(#2783524aa3)"><g fill="#172641" fill-opacity="1"><g transform="translate(1.350618, 151.343875)"><g><path d="M 86.492188 -59.757812 L 113.113281 -59.757812 L 113.113281 -10.1875 L 111.683594 -9.105469 C 105.433594 -4.390625 98.21875 -0.78125 90.039062 1.726562 C 81.914062 4.21875 73.734375 5.464844 65.492188 5.464844 C 53.585938 5.464844 42.859375 2.910156 33.304688 -2.195312 C 23.699219 -7.328125 16.15625 -14.460938 10.683594 -23.582031 C 5.207031 -32.710938 2.46875 -42.996094 2.46875 -54.449219 C 2.46875 -65.898438 5.207031 -76.1875 10.683594 -85.3125 C 16.160156 -94.441406 23.757812 -101.574219 33.476562 -106.710938 C 43.128906 -111.808594 53.957031 -114.359375 65.960938 -114.359375 C 75.976562 -114.359375 85.09375 -112.660156 93.3125 -109.265625 C 101.617188 -105.832031 108.601562 -100.839844 114.261719 -94.292969 L 116.539062 -91.65625 L 95.195312 -71.953125 L 92.753906 -74.527344 C 85.683594 -81.972656 77.167969 -85.695312 67.203125 -85.695312 C 60.859375 -85.695312 55.257812 -84.386719 50.398438 -81.769531 C 45.613281 -79.195312 41.886719 -75.558594 39.21875 -70.871094 C 36.523438 -66.132812 35.175781 -60.660156 35.175781 -54.449219 C 35.175781 -48.339844 36.523438 -42.917969 39.21875 -38.179688 C 41.890625 -33.476562 45.605469 -29.8125 50.355469 -27.183594 C 55.15625 -24.527344 60.667969 -23.199219 66.894531 -23.199219 C 73.550781 -23.199219 79.519531 -24.613281 84.796875 -27.4375 L 86.492188 -24.269531 L 82.898438 -24.269531 L 82.898438 -59.757812 Z M 86.492188 -52.5625 L 86.492188 -56.160156 L 90.089844 -56.160156 L 90.089844 -22.113281 L 88.191406 -21.097656 C 81.855469 -17.703125 74.753906 -16.003906 66.894531 -16.003906 C 59.429688 -16.003906 52.753906 -17.632812 46.871094 -20.886719 C 40.941406 -24.167969 36.304688 -28.75 32.964844 -34.625 C 29.644531 -40.464844 27.980469 -47.074219 27.980469 -54.449219 C 27.980469 -61.925781 29.644531 -68.585938 32.964844 -74.425781 C 36.3125 -80.316406 40.984375 -84.875 46.984375 -88.105469 C 52.910156 -91.296875 59.652344 -92.890625 67.203125 -92.890625 C 79.226562 -92.890625 89.484375 -88.421875 97.96875 -79.480469 L 95.359375 -77.003906 L 92.921875 -79.648438 L 109.101562 -94.582031 L 111.539062 -91.9375 L 108.820312 -89.585938 C 103.902344 -95.273438 97.816406 -99.617188 90.566406 -102.613281 C 83.226562 -105.648438 75.023438 -107.164062 65.960938 -107.164062 C 55.144531 -107.164062 45.4375 -104.890625 36.839844 -100.347656 C 28.304688 -95.835938 21.640625 -89.59375 16.851562 -81.609375 C 12.058594 -73.625 9.664062 -64.570312 9.664062 -54.449219 C 9.664062 -44.328125 12.058594 -35.273438 16.851562 -27.285156 C 21.644531 -19.296875 28.261719 -13.050781 36.699219 -8.539062 C 45.191406 -4 54.789062 -1.730469 65.492188 -1.730469 C 73.015625 -1.730469 80.492188 -2.871094 87.929688 -5.152344 C 95.300781 -7.410156 101.777344 -10.644531 107.351562 -14.851562 L 109.519531 -11.976562 L 105.921875 -11.976562 L 105.921875 -56.160156 L 109.519531 -56.160156 L 109.519531 -52.5625 Z M 86.492188 -52.5625 "/></g></g></g><g fill="#172641" fill-opacity="1"><g transform="translate(125.180135, 151.343875)"><g><path d="M 65.648438 5.464844 C 53.742188 5.464844 42.984375 2.882812 33.378906 -2.277344 C 23.722656 -7.460938 16.15625 -14.617188 10.683594 -23.738281 C 5.207031 -32.863281 2.46875 -43.101562 2.46875 -54.449219 C 2.46875 -65.792969 5.207031 -76.03125 10.683594 -85.15625 C 16.15625 -94.277344 23.722656 -101.433594 33.378906 -106.621094 C 42.984375 -111.78125 53.742188 -114.359375 65.648438 -114.359375 C 77.558594 -114.359375 88.292969 -111.777344 97.847656 -106.617188 C 107.445312 -101.433594 115.003906 -94.28125 120.527344 -85.167969 C 126.0625 -76.039062 128.828125 -65.800781 128.828125 -54.449219 C 128.828125 -43.09375 126.0625 -32.855469 120.527344 -23.726562 C 115.003906 -14.613281 107.445312 -7.464844 97.847656 -2.28125 C 88.292969 2.882812 77.558594 5.464844 65.648438 5.464844 Z M 65.648438 -1.730469 C 76.347656 -1.730469 85.941406 -4.023438 94.429688 -8.609375 C 102.878906 -13.175781 109.527344 -19.457031 114.375 -27.453125 C 119.214844 -35.4375 121.632812 -44.4375 121.632812 -54.449219 C 121.632812 -64.460938 119.214844 -73.457031 114.375 -81.441406 C 109.527344 -89.4375 102.878906 -95.722656 94.429688 -100.285156 C 85.941406 -104.871094 76.347656 -107.164062 65.648438 -107.164062 C 54.949219 -107.164062 45.324219 -104.871094 36.78125 -100.28125 C 28.289062 -95.71875 21.644531 -89.445312 16.851562 -81.453125 C 12.058594 -73.46875 9.664062 -64.464844 9.664062 -54.449219 C 9.664062 -44.429688 12.058594 -35.429688 16.851562 -27.441406 C 21.644531 -19.453125 28.289062 -13.175781 36.78125 -8.613281 C 45.324219 -4.023438 54.949219 -1.730469 65.648438 -1.730469 Z M 65.648438 -23.199219 C 71.441406 -23.199219 76.65625 -24.519531 81.289062 -27.160156 C 85.894531 -29.785156 89.511719 -33.449219 92.144531 -38.15625 C 94.792969 -42.902344 96.121094 -48.332031 96.121094 -54.449219 C 96.121094 -60.5625 94.792969 -65.996094 92.144531 -70.738281 C 89.511719 -75.445312 85.894531 -79.109375 81.289062 -81.734375 C 76.65625 -84.375 71.441406 -85.695312 65.648438 -85.695312 C 59.855469 -85.695312 54.640625 -84.375 50.007812 -81.734375 C 45.402344 -79.109375 41.785156 -75.445312 39.152344 -70.738281 C 36.503906 -65.996094 35.175781 -60.5625 35.175781 -54.449219 C 35.175781 -48.332031 36.503906 -42.902344 39.152344 -38.15625 C 41.785156 -33.449219 45.402344 -29.785156 50.007812 -27.160156 C 54.640625 -24.519531 59.855469 -23.199219 65.648438 -23.199219 Z M 65.648438 -16.003906 C 58.582031 -16.003906 52.179688 -17.640625 46.445312 -20.910156 C 40.679688 -24.195312 36.15625 -28.773438 32.871094 -34.648438 C 29.613281 -40.480469 27.980469 -47.082031 27.980469 -54.449219 C 27.980469 -61.8125 29.613281 -68.414062 32.871094 -74.25 C 36.15625 -80.121094 40.679688 -84.699219 46.445312 -87.984375 C 52.179688 -91.257812 58.582031 -92.890625 65.648438 -92.890625 C 72.714844 -92.890625 79.117188 -91.257812 84.851562 -87.984375 C 90.617188 -84.699219 95.140625 -80.121094 98.425781 -74.25 C 101.683594 -68.414062 103.316406 -61.8125 103.316406 -54.449219 C 103.316406 -47.082031 101.683594 -40.480469 98.425781 -34.648438 C 95.140625 -28.773438 90.617188 -24.195312 84.851562 -20.910156 C 79.117188 -17.640625 72.714844 -16.003906 65.648438 -16.003906 Z M 65.648438 -16.003906 "/></g></g></g><g fill="#172641" fill-opacity="1"><g transform="translate(260.36587, 151.343875)"><g/></g></g><g fill="#172641" fill-opacity="1"><g transform="translate(308.279848, 151.343875)"><g><path d="M 41.710938 -88.671875 L 41.710938 -59.890625 L 38.113281 -59.890625 L 38.113281 -63.488281 L 92.113281 -63.488281 L 92.113281 -36.070312 L 38.113281 -36.070312 L 38.113281 -39.667969 L 41.710938 -39.667969 L 41.710938 3.597656 L 9.3125 3.597656 L 9.3125 -112.492188 L 98.804688 -112.492188 L 98.804688 -85.074219 L 38.113281 -85.074219 L 38.113281 -88.671875 Z M 34.515625 -92.269531 L 95.207031 -92.269531 L 95.207031 -88.671875 L 91.609375 -88.671875 L 91.609375 -108.894531 L 95.207031 -108.894531 L 95.207031 -105.296875 L 12.910156 -105.296875 L 12.910156 -108.894531 L 16.507812 -108.894531 L 16.507812 0 L 12.910156 0 L 12.910156 -3.597656 L 38.113281 -3.597656 L 38.113281 0 L 34.515625 0 L 34.515625 -43.265625 L 88.515625 -43.265625 L 88.515625 -39.667969 L 84.917969 -39.667969 L 84.917969 -59.890625 L 88.515625 -59.890625 L 88.515625 -56.296875 L 34.515625 -56.296875 Z M 34.515625 -92.269531 "/></g></g></g><g fill="#172641" fill-opacity="1"><g transform="translate(411.574852, 151.343875)"><g><path d="M 9.3125 -112.492188 L 41.710938 -112.492188 L 41.710938 3.597656 L 9.3125 3.597656 Z M 16.507812 -105.296875 L 16.507812 -3.597656 L 34.515625 -3.597656 L 34.515625 -105.296875 Z M 16.507812 -105.296875 "/></g></g></g><g fill="#172641" fill-opacity="1"><g transform="translate(466.489243, 151.343875)"><g><path d="M 35.46875 -84.761719 L -2.976562 -84.761719 L -2.976562 -112.492188 L 99.113281 -112.492188 L 99.113281 -84.761719 L 60.671875 -84.761719 L 60.671875 -88.359375 L 64.269531 -88.359375 L 64.269531 3.597656 L 31.871094 3.597656 L 31.871094 -88.359375 L 35.46875 -88.359375 Z M 39.066406 -91.957031 L 39.066406 0 L 35.46875 0 L 35.46875 -3.597656 L 60.671875 -3.597656 L 60.671875 0 L 57.074219 0 L 57.074219 -91.957031 L 95.515625 -91.957031 L 95.515625 -88.359375 L 91.917969 -88.359375 L 91.917969 -108.894531 L 95.515625 -108.894531 L 95.515625 -105.296875 L 0.621094 -105.296875 L 0.621094 -108.894531 L 4.21875 -108.894531 L 4.21875 -88.359375 L 0.621094 -88.359375 L 0.621094 -91.957031 Z M 39.066406 -91.957031 "/></g></g></g><g fill="#172641" fill-opacity="1"><g transform="translate(1.350618, 151.343875)"><g><path d="M 86.5 -56.15625 L 109.515625 -56.15625 L 109.515625 -11.984375 C 103.609375 -7.523438 96.765625 -4.101562 88.984375 -1.71875 C 81.203125 0.664062 73.367188 1.859375 65.484375 1.859375 C 54.179688 1.859375 44.019531 -0.546875 35 -5.359375 C 25.976562 -10.179688 18.898438 -16.867188 13.765625 -25.421875 C 8.628906 -33.984375 6.0625 -43.660156 6.0625 -54.453125 C 6.0625 -65.234375 8.628906 -74.898438 13.765625 -83.453125 C 18.898438 -92.015625 26.03125 -98.707031 35.15625 -103.53125 C 44.28125 -108.351562 54.546875 -110.765625 65.953125 -110.765625 C 75.492188 -110.765625 84.15625 -109.15625 91.9375 -105.9375 C 99.71875 -102.71875 106.25 -98.050781 111.53125 -91.9375 L 95.359375 -77 C 87.578125 -85.195312 78.191406 -89.296875 67.203125 -89.296875 C 60.253906 -89.296875 54.082031 -87.84375 48.6875 -84.9375 C 43.300781 -82.03125 39.101562 -77.929688 36.09375 -72.640625 C 33.082031 -67.359375 31.578125 -61.296875 31.578125 -54.453125 C 31.578125 -47.703125 33.082031 -41.679688 36.09375 -36.390625 C 39.101562 -31.109375 43.273438 -26.988281 48.609375 -24.03125 C 53.953125 -21.070312 60.046875 -19.59375 66.890625 -19.59375 C 74.148438 -19.59375 80.6875 -21.148438 86.5 -24.265625 Z M 86.5 -56.15625 "/></g></g></g><g fill="#172641" fill-opacity="1"><g transform="translate(125.180135, 151.343875)"><g><path d="M 65.640625 1.859375 C 54.335938 1.859375 44.148438 -0.570312 35.078125 -5.4375 C 26.003906 -10.3125 18.898438 -17.023438 13.765625 -25.578125 C 8.628906 -34.140625 6.0625 -43.765625 6.0625 -54.453125 C 6.0625 -65.128906 8.628906 -74.742188 13.765625 -83.296875 C 18.898438 -91.859375 26.003906 -98.578125 35.078125 -103.453125 C 44.148438 -108.328125 54.335938 -110.765625 65.640625 -110.765625 C 76.953125 -110.765625 87.117188 -108.328125 96.140625 -103.453125 C 105.160156 -98.578125 112.265625 -91.859375 117.453125 -83.296875 C 122.640625 -74.742188 125.234375 -65.128906 125.234375 -54.453125 C 125.234375 -43.765625 122.640625 -34.140625 117.453125 -25.578125 C 112.265625 -17.023438 105.160156 -10.3125 96.140625 -5.4375 C 87.117188 -0.570312 76.953125 1.859375 65.640625 1.859375 Z M 65.640625 -19.59375 C 72.078125 -19.59375 77.882812 -21.070312 83.0625 -24.03125 C 88.25 -26.988281 92.320312 -31.109375 95.28125 -36.390625 C 98.238281 -41.679688 99.71875 -47.703125 99.71875 -54.453125 C 99.71875 -61.191406 98.238281 -67.203125 95.28125 -72.484375 C 92.320312 -77.773438 88.25 -81.898438 83.0625 -84.859375 C 77.882812 -87.816406 72.078125 -89.296875 65.640625 -89.296875 C 59.210938 -89.296875 53.40625 -87.816406 48.21875 -84.859375 C 43.039062 -81.898438 38.972656 -77.773438 36.015625 -72.484375 C 33.054688 -67.203125 31.578125 -61.191406 31.578125 -54.453125 C 31.578125 -47.703125 33.054688 -41.679688 36.015625 -36.390625 C 38.972656 -31.109375 43.039062 -26.988281 48.21875 -24.03125 C 53.40625 -21.070312 59.210938 -19.59375 65.640625 -19.59375 Z M 65.640625 -19.59375 "/></g></g></g><g fill="#172641" fill-opacity="1"><g transform="translate(260.36587, 151.343875)"><g/></g></g><g fill="#172641" fill-opacity="1"><g transform="translate(308.279848, 151.343875)"><g><path d="M 38.109375 -88.671875 L 38.109375 -59.890625 L 88.515625 -59.890625 L 88.515625 -39.671875 L 38.109375 -39.671875 L 38.109375 0 L 12.90625 0 L 12.90625 -108.890625 L 95.203125 -108.890625 L 95.203125 -88.671875 Z M 38.109375 -88.671875 "/></g></g></g><g fill="#172641" fill-opacity="1"><g transform="translate(411.574852, 151.343875)"><g><path d="M 12.90625 -108.890625 L 38.109375 -108.890625 L 38.109375 0 L 12.90625 0 Z M 12.90625 -108.890625 "/></g></g></g><g fill="#172641" fill-opacity="1"><g transform="translate(466.489243, 151.343875)"><g><path d="M 35.46875 -88.359375 L 0.625 -88.359375 L 0.625 -108.890625 L 95.515625 -108.890625 L 95.515625 -88.359375 L 60.671875 -88.359375 L 60.671875 0 L 35.46875 0 Z M 35.46875 -88.359375 "/></g></g></g></g></g><g transform="matrix(1, 0, 0, 1, 17, 1405)"><g clip-path="url(#ddc973beb9)"><g fill="#172641" fill-opacity="1"><g transform="translate(0.997937, 48.647921)"><g><path d="M 29.296875 -30.078125 L 9.671875 -30.078125 L 9.671875 -19.125 L 24.984375 -19.125 L 24.984375 -15.265625 L 9.671875 -15.265625 L 9.671875 0 L 5.546875 0 L 5.546875 -33.921875 L 29.296875 -33.921875 Z M 29.296875 -30.078125 "/></g></g></g><g fill="#172641" fill-opacity="1"><g transform="translate(29.734978, 48.647921)"><g><path d="M 19.796875 -16.609375 C 19.796875 -18.523438 19.28125 -20.003906 18.25 -21.046875 C 17.21875 -22.097656 15.757812 -22.625 13.875 -22.625 C 12.09375 -22.625 10.582031 -22.238281 9.34375 -21.46875 C 8.113281 -20.695312 7.207031 -19.453125 6.625 -17.734375 L 3.296875 -19.796875 C 3.972656 -21.710938 5.238281 -23.257812 7.09375 -24.4375 C 8.945312 -25.625 11.242188 -26.21875 13.984375 -26.21875 C 15.835938 -26.21875 17.515625 -25.898438 19.015625 -25.265625 C 20.523438 -24.628906 21.71875 -23.664062 22.59375 -22.375 C 23.46875 -21.09375 23.90625 -19.441406 23.90625 -17.421875 L 23.90625 -4.984375 C 23.90625 -3.753906 24.554688 -3.140625 25.859375 -3.140625 C 26.503906 -3.140625 27.140625 -3.222656 27.765625 -3.390625 L 27.546875 -0.15625 C 26.867188 0.1875 25.976562 0.359375 24.875 0.359375 C 23.882812 0.359375 22.992188 0.171875 22.203125 -0.203125 C 21.421875 -0.578125 20.804688 -1.148438 20.359375 -1.921875 C 19.910156 -2.691406 19.6875 -3.660156 19.6875 -4.828125 L 19.6875 -5.34375 L 20.71875 -5.1875 C 20.300781 -3.851562 19.597656 -2.765625 18.609375 -1.921875 C 17.617188 -1.085938 16.503906 -0.472656 15.265625 -0.078125 C 14.035156 0.316406 12.820312 0.515625 11.625 0.515625 C 10.113281 0.515625 8.707031 0.257812 7.40625 -0.25 C 6.101562 -0.769531 5.066406 -1.550781 4.296875 -2.59375 C 3.523438 -3.632812 3.140625 -4.929688 3.140625 -6.484375 C 3.140625 -8.398438 3.78125 -9.984375 5.0625 -11.234375 C 6.34375 -12.484375 8.132812 -13.332031 10.4375 -13.78125 L 20.609375 -15.78125 L 20.609375 -12.390625 L 12.34375 -10.6875 C 10.65625 -10.34375 9.398438 -9.863281 8.578125 -9.25 C 7.753906 -8.632812 7.34375 -7.78125 7.34375 -6.6875 C 7.34375 -5.625 7.765625 -4.753906 8.609375 -4.078125 C 9.453125 -3.410156 10.644531 -3.078125 12.1875 -3.078125 C 13.175781 -3.078125 14.125 -3.207031 15.03125 -3.46875 C 15.945312 -3.726562 16.765625 -4.125 17.484375 -4.65625 C 18.203125 -5.1875 18.765625 -5.851562 19.171875 -6.65625 C 19.585938 -7.457031 19.796875 -8.410156 19.796875 -9.515625 Z M 19.796875 -16.609375 "/></g></g></g><g fill="#172641" fill-opacity="1"><g transform="translate(57.957946, 48.647921)"><g><path d="M 21.796875 -25.703125 L 26.109375 -25.703125 L 15.421875 0 L 11.3125 0 L 0.609375 -25.703125 L 5.296875 -25.703125 L 13.421875 -4.15625 Z M 21.796875 -25.703125 "/></g></g></g><g fill="#172641" fill-opacity="1"><g transform="translate(84.690071, 48.647921)"><g><path d="M 6.84375 -30.640625 C 5.914062 -30.640625 5.164062 -30.921875 4.59375 -31.484375 C 4.03125 -32.046875 3.75 -32.789062 3.75 -33.71875 C 3.75 -34.644531 4.03125 -35.390625 4.59375 -35.953125 C 5.164062 -36.523438 5.914062 -36.8125 6.84375 -36.8125 C 7.757812 -36.8125 8.5 -36.523438 9.0625 -35.953125 C 9.632812 -35.390625 9.921875 -34.644531 9.921875 -33.71875 C 9.921875 -32.789062 9.632812 -32.046875 9.0625 -31.484375 C 8.5 -30.921875 7.757812 -30.640625 6.84375 -30.640625 Z M 8.890625 -25.703125 L 8.890625 0 L 4.78125 0 L 4.78125 -25.703125 Z M 8.890625 -25.703125 "/></g></g></g><g fill="#172641" fill-opacity="1"><g transform="translate(98.364575, 48.647921)"><g><path d="M 15.421875 -26.21875 C 17.203125 -26.21875 18.769531 -25.941406 20.125 -25.390625 C 21.476562 -24.847656 22.648438 -24.0625 23.640625 -23.03125 C 24.640625 -22 25.445312 -20.78125 26.0625 -19.375 L 22.15625 -17.53125 C 21.601562 -19.175781 20.769531 -20.4375 19.65625 -21.3125 C 18.539062 -22.1875 17.09375 -22.625 15.3125 -22.625 C 13.601562 -22.625 12.128906 -22.238281 10.890625 -21.46875 C 9.660156 -20.695312 8.71875 -19.582031 8.0625 -18.125 C 7.414062 -16.664062 7.09375 -14.90625 7.09375 -12.84375 C 7.09375 -10.820312 7.414062 -9.070312 8.0625 -7.59375 C 8.71875 -6.125 9.660156 -5.003906 10.890625 -4.234375 C 12.128906 -3.460938 13.601562 -3.078125 15.3125 -3.078125 C 16.65625 -3.078125 17.8125 -3.28125 18.78125 -3.6875 C 19.757812 -4.101562 20.566406 -4.707031 21.203125 -5.5 C 21.835938 -6.289062 22.273438 -7.25 22.515625 -8.375 L 26.3125 -7.046875 C 25.738281 -5.460938 24.941406 -4.101562 23.921875 -2.96875 C 22.910156 -1.84375 21.691406 -0.976562 20.265625 -0.375 C 18.847656 0.21875 17.234375 0.515625 15.421875 0.515625 C 13.023438 0.515625 10.882812 -0.015625 9 -1.078125 C 7.113281 -2.140625 5.640625 -3.671875 4.578125 -5.671875 C 3.515625 -7.679688 2.984375 -10.070312 2.984375 -12.84375 C 2.984375 -15.625 3.515625 -18.015625 4.578125 -20.015625 C 5.640625 -22.023438 7.113281 -23.5625 9 -24.625 C 10.882812 -25.6875 13.023438 -26.21875 15.421875 -26.21875 Z M 15.421875 -26.21875 "/></g></g></g><g fill="#172641" fill-opacity="1"><g transform="translate(127.153012, 48.647921)"><g><path d="M 15.421875 -26.21875 C 17.859375 -26.21875 20.007812 -25.6875 21.875 -24.625 C 23.738281 -23.5625 25.203125 -22.023438 26.265625 -20.015625 C 27.328125 -18.015625 27.859375 -15.625 27.859375 -12.84375 C 27.859375 -10.070312 27.328125 -7.679688 26.265625 -5.671875 C 25.203125 -3.671875 23.738281 -2.140625 21.875 -1.078125 C 20.007812 -0.015625 17.859375 0.515625 15.421875 0.515625 C 13.023438 0.515625 10.882812 -0.015625 9 -1.078125 C 7.113281 -2.140625 5.640625 -3.671875 4.578125 -5.671875 C 3.515625 -7.679688 2.984375 -10.070312 2.984375 -12.84375 C 2.984375 -15.625 3.515625 -18.015625 4.578125 -20.015625 C 5.640625 -22.023438 7.113281 -23.5625 9 -24.625 C 10.882812 -25.6875 13.023438 -26.21875 15.421875 -26.21875 Z M 15.421875 -22.671875 C 13.671875 -22.671875 12.175781 -22.273438 10.9375 -21.484375 C 9.707031 -20.703125 8.757812 -19.582031 8.09375 -18.125 C 7.425781 -16.664062 7.09375 -14.90625 7.09375 -12.84375 C 7.09375 -10.820312 7.425781 -9.070312 8.09375 -7.59375 C 8.757812 -6.125 9.707031 -4.992188 10.9375 -4.203125 C 12.175781 -3.421875 13.671875 -3.03125 15.421875 -3.03125 C 17.171875 -3.03125 18.660156 -3.421875 19.890625 -4.203125 C 21.128906 -4.992188 22.082031 -6.125 22.75 -7.59375 C 23.414062 -9.070312 23.75 -10.820312 23.75 -12.84375 C 23.75 -14.90625 23.414062 -16.664062 22.75 -18.125 C 22.082031 -19.582031 21.128906 -20.703125 19.890625 -21.484375 C 18.660156 -22.273438 17.171875 -22.671875 15.421875 -22.671875 Z M 15.421875 -22.671875 "/></g></g></g><g fill="#172641" fill-opacity="1"><g transform="translate(157.997776, 48.647921)"><g><path d="M 4.78125 0 L 4.78125 -25.703125 L 8.375 -25.703125 L 8.734375 -19.953125 L 8.078125 -20.515625 C 8.617188 -21.878906 9.351562 -22.984375 10.28125 -23.828125 C 11.207031 -24.671875 12.273438 -25.28125 13.484375 -25.65625 C 14.703125 -26.03125 15.960938 -26.21875 17.265625 -26.21875 C 19.117188 -26.21875 20.800781 -25.863281 22.3125 -25.15625 C 23.820312 -24.457031 25.03125 -23.390625 25.9375 -21.953125 C 26.84375 -20.515625 27.296875 -18.679688 27.296875 -16.453125 L 27.296875 0 L 23.1875 0 L 23.1875 -15.015625 C 23.1875 -17.859375 22.578125 -19.835938 21.359375 -20.953125 C 20.140625 -22.066406 18.640625 -22.625 16.859375 -22.625 C 15.628906 -22.625 14.394531 -22.332031 13.15625 -21.75 C 11.925781 -21.164062 10.90625 -20.222656 10.09375 -18.921875 C 9.289062 -17.617188 8.890625 -15.867188 8.890625 -13.671875 L 8.890625 0 Z M 4.78125 0 "/></g></g></g><g fill="#172641" fill-opacity="1"><g transform="translate(189.819293, 48.647921)"><g/></g></g><g fill="#172641" fill-opacity="1"><g transform="translate(206.321226, 48.647921)"><g><path d="M 10.6875 0 L 10.6875 -24.875 C 10.6875 -25.457031 10.695312 -26.082031 10.71875 -26.75 C 10.738281 -27.425781 10.765625 -28.125 10.796875 -28.84375 C 9.628906 -27.707031 8.273438 -26.71875 6.734375 -25.875 C 5.191406 -25.039062 3.613281 -24.4375 2 -24.0625 L 0.921875 -27.8125 C 1.535156 -27.875 2.3125 -28.101562 3.25 -28.5 C 4.195312 -28.894531 5.191406 -29.390625 6.234375 -29.984375 C 7.285156 -30.585938 8.253906 -31.234375 9.140625 -31.921875 C 10.035156 -32.609375 10.722656 -33.273438 11.203125 -33.921875 L 14.8125 -33.921875 L 14.8125 0 Z M 10.6875 0 "/></g></g></g></g></g></svg>