<svg xmlns="http://www.w3.org/2000/svg" xmlns:xlink="http://www.w3.org/1999/xlink" width="2000" zoomAndPan="magnify" viewBox="0 0 1500 1499.999933" height="2000" preserveAspectRatio="xMidYMid meet" version="1.0"><defs><g/><clipPath id="4a39818cb7"><path d="M 734.984375 645 L 752 645 L 752 682 L 734.984375 682 Z M 734.984375 645 " clip-rule="nonzero"/></clipPath><clipPath id="d8ae284d0f"><path d="M 790 570.195312 L 827.984375 570.195312 L 827.984375 756.945312 L 790 756.945312 Z M 790 570.195312 " clip-rule="nonzero"/></clipPath><clipPath id="c245ebf82d"><path d="M 1152 645 L 1169.425781 645 L 1169.425781 682 L 1152 682 Z M 1152 645 " clip-rule="nonzero"/></clipPath><clipPath id="bdc1d83fc8"><path d="M 1077.175781 570.195312 L 1114 570.195312 L 1114 756.945312 L 1077.175781 756.945312 Z M 1077.175781 570.195312 " clip-rule="nonzero"/></clipPath><clipPath id="e7ca5e64cf"><path d="M 827.292969 631.480469 L 1080.441406 631.480469 L 1080.441406 677.597656 L 827.292969 677.597656 Z M 827.292969 631.480469 " clip-rule="nonzero"/></clipPath><clipPath id="98954353de"><path d="M 0.292969 0.480469 L 253.441406 0.480469 L 253.441406 46.597656 L 0.292969 46.597656 Z M 0.292969 0.480469 " clip-rule="nonzero"/></clipPath><clipPath id="f3529466a3"><rect x="0" width="254" y="0" height="47"/></clipPath><clipPath id="37aef24263"><rect x="0" width="239" y="0" height="63"/></clipPath></defs><g clip-path="url(#4a39818cb7)"><path fill="#d94147" d="M 730.222656 654.71875 L 730.222656 672.433594 C 730.222656 677.324219 734.203125 681.304688 739.09375 681.304688 L 751.339844 681.304688 L 751.339844 645.847656 L 739.09375 645.847656 C 734.203125 645.847656 730.222656 649.828125 730.222656 654.71875 " fill-opacity="1" fill-rule="nonzero"/></g><path fill="#d94147" d="M 774.0625 591.949219 L 767.59375 591.949219 C 761.605469 591.949219 756.746094 596.78125 756.746094 602.765625 L 756.746094 724.386719 C 756.746094 730.339844 761.605469 735.203125 767.59375 735.203125 L 774.0625 735.203125 C 780.050781 735.203125 784.910156 730.339844 784.910156 724.386719 L 784.910156 602.765625 C 784.910156 596.78125 780.050781 591.949219 774.0625 591.949219 " fill-opacity="1" fill-rule="nonzero"/><g clip-path="url(#d8ae284d0f)"><path fill="#d94147" d="M 817.480469 570.195312 L 801.164062 570.195312 C 795.179688 570.195312 790.320312 575.058594 790.320312 581.042969 L 790.320312 746.109375 C 790.320312 752.09375 795.179688 756.953125 801.164062 756.953125 L 817.480469 756.953125 C 823.433594 756.953125 828.296875 752.09375 828.296875 746.109375 L 828.296875 581.042969 C 828.296875 575.058594 823.433594 570.195312 817.480469 570.195312 " fill-opacity="1" fill-rule="nonzero"/></g><g clip-path="url(#c245ebf82d)"><path fill="#d94147" d="M 1165.15625 645.847656 L 1152.914062 645.847656 L 1152.914062 681.304688 L 1165.15625 681.304688 C 1170.050781 681.304688 1174.03125 677.324219 1174.03125 672.433594 L 1174.03125 654.71875 C 1174.03125 649.828125 1170.050781 645.847656 1165.15625 645.847656 " fill-opacity="1" fill-rule="nonzero"/></g><path fill="#d94147" d="M 1136.691406 591.949219 L 1130.15625 591.949219 C 1124.203125 591.949219 1119.339844 596.78125 1119.339844 602.765625 L 1119.339844 724.386719 C 1119.339844 730.339844 1124.203125 735.203125 1130.15625 735.203125 L 1136.691406 735.203125 C 1142.644531 735.203125 1147.503906 730.339844 1147.503906 724.386719 L 1147.503906 602.765625 C 1147.503906 596.78125 1142.644531 591.949219 1136.691406 591.949219 " fill-opacity="1" fill-rule="nonzero"/><g clip-path="url(#bdc1d83fc8)"><path fill="#d94147" d="M 1103.085938 570.195312 L 1086.773438 570.195312 C 1080.816406 570.195312 1075.957031 575.058594 1075.957031 581.042969 L 1075.957031 746.109375 C 1075.957031 752.09375 1080.816406 756.953125 1086.773438 756.953125 L 1103.085938 756.953125 C 1109.074219 756.953125 1113.933594 752.09375 1113.933594 746.109375 L 1113.933594 581.042969 C 1113.933594 575.058594 1109.074219 570.195312 1103.085938 570.195312 " fill-opacity="1" fill-rule="nonzero"/></g><g clip-path="url(#e7ca5e64cf)"><g transform="matrix(1, 0, 0, 1, 827, 631)"><g clip-path="url(#f3529466a3)"><g clip-path="url(#98954353de)"><path fill="#d94147" d="M 0.292969 0.480469 L 253.398438 0.480469 L 253.398438 46.597656 L 0.292969 46.597656 Z M 0.292969 0.480469 " fill-opacity="1" fill-rule="nonzero"/></g></g></g></g><path stroke-linecap="butt" transform="matrix(0.749995, 0.00278294, -0.00278294, 0.749995, 828.176746, 630.354118)" fill="none" stroke-linejoin="miter" d="M -0.000922073 1.501815 L 332.006589 1.499038 " stroke="#fefefe" stroke-width="3" stroke-opacity="1" stroke-miterlimit="4"/><path stroke-linecap="butt" transform="matrix(0.75, -0.000000000000000279, 0.000000000000000279, 0.75, 828.172522, 676.471554)" fill="none" stroke-linejoin="miter" d="M -0.000862689 1.50147 L 332.004374 1.50147 " stroke="#fefefe" stroke-width="3" stroke-opacity="1" stroke-miterlimit="4"/><g fill="#d94147" fill-opacity="1"><g transform="translate(424.102351, 1011.326715)"><g><path d="M 482.707031 -318.839844 L 616.625 -318.839844 L 616.625 -64.144531 L 614.464844 -62.519531 C 580.964844 -37.246094 542.207031 -17.859375 498.1875 -4.363281 C 454.261719 9.109375 410.03125 15.84375 365.503906 15.84375 C 301.507812 15.84375 243.933594 2.175781 192.78125 -25.167969 C 141.546875 -52.550781 101.34375 -90.546875 72.179688 -139.15625 C 43.015625 -187.765625 28.433594 -242.667969 28.433594 -303.863281 C 28.433594 -365.058594 43.015625 -419.960938 72.179688 -468.570312 C 101.351562 -517.183594 141.847656 -555.183594 193.671875 -582.570312 C 245.398438 -609.902344 303.542969 -623.570312 368.105469 -623.570312 C 422.074219 -623.570312 471.09375 -614.460938 515.164062 -596.242188 C 559.367188 -577.972656 596.507812 -551.4375 626.589844 -516.640625 L 630.023438 -512.667969 L 531.941406 -422.132812 L 528.257812 -426.011719 C 485.917969 -470.609375 434.851562 -492.90625 375.050781 -492.90625 C 337.1875 -492.90625 303.605469 -485.019531 274.3125 -469.246094 C 245.128906 -453.535156 222.40625 -431.371094 206.132812 -402.757812 C 189.820312 -374.070312 181.667969 -341.105469 181.667969 -303.863281 C 181.667969 -267.199219 189.820312 -234.523438 206.132812 -205.835938 C 222.414062 -177.203125 245.015625 -154.882812 273.933594 -138.882812 C 302.921875 -122.839844 336.050781 -114.816406 373.316406 -114.816406 C 412.921875 -114.816406 448.53125 -123.285156 480.144531 -140.21875 L 482.707031 -135.4375 L 477.28125 -135.4375 L 477.28125 -318.839844 Z M 482.707031 -307.984375 L 482.707031 -313.410156 L 488.132812 -313.410156 L 488.132812 -132.1875 L 485.269531 -130.652344 C 452.058594 -112.859375 414.738281 -103.964844 373.316406 -103.964844 C 334.183594 -103.964844 299.304688 -112.4375 268.679688 -129.386719 C 237.980469 -146.375 213.988281 -170.070312 196.699219 -200.472656 C 179.441406 -230.820312 170.8125 -265.285156 170.8125 -303.863281 C 170.8125 -343.019531 179.441406 -377.769531 196.699219 -408.121094 C 214 -438.542969 238.15625 -462.101562 269.167969 -478.800781 C 300.066406 -495.441406 335.363281 -503.761719 375.050781 -503.761719 C 437.957031 -503.761719 491.648438 -480.335938 536.128906 -433.484375 L 532.191406 -429.746094 L 528.511719 -433.734375 L 618.804688 -517.078125 L 622.484375 -513.09375 L 618.378906 -509.542969 C 589.421875 -543.042969 553.636719 -568.601562 511.019531 -586.214844 C 468.273438 -603.882812 420.636719 -612.714844 368.105469 -612.714844 C 305.335938 -612.714844 248.882812 -599.46875 198.742188 -572.972656 C 148.703125 -546.53125 109.617188 -509.871094 81.488281 -462.984375 C 53.351562 -416.09375 39.285156 -363.054688 39.285156 -303.863281 C 39.285156 -244.671875 53.351562 -191.628906 81.488281 -144.738281 C 109.621094 -97.847656 148.425781 -61.179688 197.898438 -34.738281 C 247.453125 -8.25 303.320312 4.992188 365.503906 4.992188 C 408.949219 4.992188 452.117188 -1.585938 495.007812 -14.738281 C 537.804688 -27.863281 575.445312 -46.675781 607.929688 -71.179688 L 611.195312 -66.851562 L 605.769531 -66.851562 L 605.769531 -313.410156 L 611.195312 -313.410156 L 611.195312 -307.984375 Z M 482.707031 -307.984375 "/></g></g></g><g fill="#d94147" fill-opacity="1"><g transform="translate(424.102351, 1011.326715)"><g><path d="M 482.703125 -313.40625 L 611.1875 -313.40625 L 611.1875 -66.84375 C 578.195312 -41.957031 540 -22.859375 496.59375 -9.546875 C 453.1875 3.765625 409.488281 10.421875 365.5 10.421875 C 302.414062 10.421875 245.695312 -3.035156 195.34375 -29.953125 C 144.988281 -56.867188 105.484375 -94.195312 76.828125 -141.9375 C 48.179688 -189.6875 33.859375 -243.660156 33.859375 -303.859375 C 33.859375 -364.054688 48.179688 -418.023438 76.828125 -465.765625 C 105.484375 -513.515625 145.273438 -550.847656 196.203125 -577.765625 C 247.140625 -604.679688 304.441406 -618.140625 368.109375 -618.140625 C 421.359375 -618.140625 469.6875 -609.164062 513.09375 -591.21875 C 556.5 -573.28125 592.960938 -547.238281 622.484375 -513.09375 L 532.1875 -429.75 C 488.78125 -475.46875 436.398438 -498.328125 375.046875 -498.328125 C 336.265625 -498.328125 301.828125 -490.222656 271.734375 -474.015625 C 241.640625 -457.816406 218.195312 -434.957031 201.40625 -405.4375 C 184.625 -375.914062 176.234375 -342.054688 176.234375 -303.859375 C 176.234375 -266.234375 184.625 -232.660156 201.40625 -203.140625 C 218.195312 -173.628906 241.492188 -150.625 271.296875 -134.125 C 301.109375 -117.632812 335.113281 -109.390625 373.3125 -109.390625 C 413.832031 -109.390625 450.296875 -118.070312 482.703125 -135.4375 Z M 482.703125 -313.40625 "/></g></g></g><g transform="matrix(1, 0, 0, 1, 19, 1398)"><g clip-path="url(#37aef24263)"><g fill="#172641" fill-opacity="1"><g transform="translate(1.13993, 49.102882)"><g><path d="M 29.296875 -30.078125 L 9.671875 -30.078125 L 9.671875 -19.125 L 24.984375 -19.125 L 24.984375 -15.265625 L 9.671875 -15.265625 L 9.671875 0 L 5.546875 0 L 5.546875 -33.921875 L 29.296875 -33.921875 Z M 29.296875 -30.078125 "/></g></g></g><g fill="#172641" fill-opacity="1"><g transform="translate(29.876971, 49.102882)"><g><path d="M 19.796875 -16.609375 C 19.796875 -18.523438 19.28125 -20.003906 18.25 -21.046875 C 17.21875 -22.097656 15.757812 -22.625 13.875 -22.625 C 12.09375 -22.625 10.582031 -22.238281 9.34375 -21.46875 C 8.113281 -20.695312 7.207031 -19.453125 6.625 -17.734375 L 3.296875 -19.796875 C 3.972656 -21.710938 5.238281 -23.257812 7.09375 -24.4375 C 8.945312 -25.625 11.242188 -26.21875 13.984375 -26.21875 C 15.835938 -26.21875 17.515625 -25.898438 19.015625 -25.265625 C 20.523438 -24.628906 21.71875 -23.664062 22.59375 -22.375 C 23.46875 -21.09375 23.90625 -19.441406 23.90625 -17.421875 L 23.90625 -4.984375 C 23.90625 -3.753906 24.554688 -3.140625 25.859375 -3.140625 C 26.503906 -3.140625 27.140625 -3.222656 27.765625 -3.390625 L 27.546875 -0.15625 C 26.867188 0.1875 25.976562 0.359375 24.875 0.359375 C 23.882812 0.359375 22.992188 0.171875 22.203125 -0.203125 C 21.421875 -0.578125 20.804688 -1.148438 20.359375 -1.921875 C 19.910156 -2.691406 19.6875 -3.660156 19.6875 -4.828125 L 19.6875 -5.34375 L 20.71875 -5.1875 C 20.300781 -3.851562 19.597656 -2.765625 18.609375 -1.921875 C 17.617188 -1.085938 16.503906 -0.472656 15.265625 -0.078125 C 14.035156 0.316406 12.820312 0.515625 11.625 0.515625 C 10.113281 0.515625 8.707031 0.257812 7.40625 -0.25 C 6.101562 -0.769531 5.066406 -1.550781 4.296875 -2.59375 C 3.523438 -3.632812 3.140625 -4.929688 3.140625 -6.484375 C 3.140625 -8.398438 3.78125 -9.984375 5.0625 -11.234375 C 6.34375 -12.484375 8.132812 -13.332031 10.4375 -13.78125 L 20.609375 -15.78125 L 20.609375 -12.390625 L 12.34375 -10.6875 C 10.65625 -10.34375 9.398438 -9.863281 8.578125 -9.25 C 7.753906 -8.632812 7.34375 -7.78125 7.34375 -6.6875 C 7.34375 -5.625 7.765625 -4.753906 8.609375 -4.078125 C 9.453125 -3.410156 10.644531 -3.078125 12.1875 -3.078125 C 13.175781 -3.078125 14.125 -3.207031 15.03125 -3.46875 C 15.945312 -3.726562 16.765625 -4.125 17.484375 -4.65625 C 18.203125 -5.1875 18.765625 -5.851562 19.171875 -6.65625 C 19.585938 -7.457031 19.796875 -8.410156 19.796875 -9.515625 Z M 19.796875 -16.609375 "/></g></g></g><g fill="#172641" fill-opacity="1"><g transform="translate(58.099938, 49.102882)"><g><path d="M 21.796875 -25.703125 L 26.109375 -25.703125 L 15.421875 0 L 11.3125 0 L 0.609375 -25.703125 L 5.296875 -25.703125 L 13.421875 -4.15625 Z M 21.796875 -25.703125 "/></g></g></g><g fill="#172641" fill-opacity="1"><g transform="translate(84.832064, 49.102882)"><g><path d="M 6.84375 -30.640625 C 5.914062 -30.640625 5.164062 -30.921875 4.59375 -31.484375 C 4.03125 -32.046875 3.75 -32.789062 3.75 -33.71875 C 3.75 -34.644531 4.03125 -35.390625 4.59375 -35.953125 C 5.164062 -36.523438 5.914062 -36.8125 6.84375 -36.8125 C 7.757812 -36.8125 8.5 -36.523438 9.0625 -35.953125 C 9.632812 -35.390625 9.921875 -34.644531 9.921875 -33.71875 C 9.921875 -32.789062 9.632812 -32.046875 9.0625 -31.484375 C 8.5 -30.921875 7.757812 -30.640625 6.84375 -30.640625 Z M 8.890625 -25.703125 L 8.890625 0 L 4.78125 0 L 4.78125 -25.703125 Z M 8.890625 -25.703125 "/></g></g></g><g fill="#172641" fill-opacity="1"><g transform="translate(98.506568, 49.102882)"><g><path d="M 15.421875 -26.21875 C 17.203125 -26.21875 18.769531 -25.941406 20.125 -25.390625 C 21.476562 -24.847656 22.648438 -24.0625 23.640625 -23.03125 C 24.640625 -22 25.445312 -20.78125 26.0625 -19.375 L 22.15625 -17.53125 C 21.601562 -19.175781 20.769531 -20.4375 19.65625 -21.3125 C 18.539062 -22.1875 17.09375 -22.625 15.3125 -22.625 C 13.601562 -22.625 12.128906 -22.238281 10.890625 -21.46875 C 9.660156 -20.695312 8.71875 -19.582031 8.0625 -18.125 C 7.414062 -16.664062 7.09375 -14.90625 7.09375 -12.84375 C 7.09375 -10.820312 7.414062 -9.070312 8.0625 -7.59375 C 8.71875 -6.125 9.660156 -5.003906 10.890625 -4.234375 C 12.128906 -3.460938 13.601562 -3.078125 15.3125 -3.078125 C 16.65625 -3.078125 17.8125 -3.28125 18.78125 -3.6875 C 19.757812 -4.101562 20.566406 -4.707031 21.203125 -5.5 C 21.835938 -6.289062 22.273438 -7.25 22.515625 -8.375 L 26.3125 -7.046875 C 25.738281 -5.460938 24.941406 -4.101562 23.921875 -2.96875 C 22.910156 -1.84375 21.691406 -0.976562 20.265625 -0.375 C 18.847656 0.21875 17.234375 0.515625 15.421875 0.515625 C 13.023438 0.515625 10.882812 -0.015625 9 -1.078125 C 7.113281 -2.140625 5.640625 -3.671875 4.578125 -5.671875 C 3.515625 -7.679688 2.984375 -10.070312 2.984375 -12.84375 C 2.984375 -15.625 3.515625 -18.015625 4.578125 -20.015625 C 5.640625 -22.023438 7.113281 -23.5625 9 -24.625 C 10.882812 -25.6875 13.023438 -26.21875 15.421875 -26.21875 Z M 15.421875 -26.21875 "/></g></g></g><g fill="#172641" fill-opacity="1"><g transform="translate(127.295005, 49.102882)"><g><path d="M 15.421875 -26.21875 C 17.859375 -26.21875 20.007812 -25.6875 21.875 -24.625 C 23.738281 -23.5625 25.203125 -22.023438 26.265625 -20.015625 C 27.328125 -18.015625 27.859375 -15.625 27.859375 -12.84375 C 27.859375 -10.070312 27.328125 -7.679688 26.265625 -5.671875 C 25.203125 -3.671875 23.738281 -2.140625 21.875 -1.078125 C 20.007812 -0.015625 17.859375 0.515625 15.421875 0.515625 C 13.023438 0.515625 10.882812 -0.015625 9 -1.078125 C 7.113281 -2.140625 5.640625 -3.671875 4.578125 -5.671875 C 3.515625 -7.679688 2.984375 -10.070312 2.984375 -12.84375 C 2.984375 -15.625 3.515625 -18.015625 4.578125 -20.015625 C 5.640625 -22.023438 7.113281 -23.5625 9 -24.625 C 10.882812 -25.6875 13.023438 -26.21875 15.421875 -26.21875 Z M 15.421875 -22.671875 C 13.671875 -22.671875 12.175781 -22.273438 10.9375 -21.484375 C 9.707031 -20.703125 8.757812 -19.582031 8.09375 -18.125 C 7.425781 -16.664062 7.09375 -14.90625 7.09375 -12.84375 C 7.09375 -10.820312 7.425781 -9.070312 8.09375 -7.59375 C 8.757812 -6.125 9.707031 -4.992188 10.9375 -4.203125 C 12.175781 -3.421875 13.671875 -3.03125 15.421875 -3.03125 C 17.171875 -3.03125 18.660156 -3.421875 19.890625 -4.203125 C 21.128906 -4.992188 22.082031 -6.125 22.75 -7.59375 C 23.414062 -9.070312 23.75 -10.820312 23.75 -12.84375 C 23.75 -14.90625 23.414062 -16.664062 22.75 -18.125 C 22.082031 -19.582031 21.128906 -20.703125 19.890625 -21.484375 C 18.660156 -22.273438 17.171875 -22.671875 15.421875 -22.671875 Z M 15.421875 -22.671875 "/></g></g></g><g fill="#172641" fill-opacity="1"><g transform="translate(158.139769, 49.102882)"><g><path d="M 4.78125 0 L 4.78125 -25.703125 L 8.375 -25.703125 L 8.734375 -19.953125 L 8.078125 -20.515625 C 8.617188 -21.878906 9.351562 -22.984375 10.28125 -23.828125 C 11.207031 -24.671875 12.273438 -25.28125 13.484375 -25.65625 C 14.703125 -26.03125 15.960938 -26.21875 17.265625 -26.21875 C 19.117188 -26.21875 20.800781 -25.863281 22.3125 -25.15625 C 23.820312 -24.457031 25.03125 -23.390625 25.9375 -21.953125 C 26.84375 -20.515625 27.296875 -18.679688 27.296875 -16.453125 L 27.296875 0 L 23.1875 0 L 23.1875 -15.015625 C 23.1875 -17.859375 22.578125 -19.835938 21.359375 -20.953125 C 20.140625 -22.066406 18.640625 -22.625 16.859375 -22.625 C 15.628906 -22.625 14.394531 -22.332031 13.15625 -21.75 C 11.925781 -21.164062 10.90625 -20.222656 10.09375 -18.921875 C 9.289062 -17.617188 8.890625 -15.867188 8.890625 -13.671875 L 8.890625 0 Z M 4.78125 0 "/></g></g></g><g fill="#172641" fill-opacity="1"><g transform="translate(189.961285, 49.102882)"><g/></g></g><g fill="#172641" fill-opacity="1"><g transform="translate(207.491383, 49.102882)"><g><path d="M 3.796875 0 L 3.796875 -3.34375 C 7.191406 -5.84375 10.03125 -8.035156 12.3125 -9.921875 C 14.59375 -11.804688 16.414062 -13.519531 17.78125 -15.0625 C 19.15625 -16.601562 20.132812 -18.066406 20.71875 -19.453125 C 21.300781 -20.847656 21.59375 -22.296875 21.59375 -23.796875 C 21.59375 -25.816406 20.945312 -27.453125 19.65625 -28.703125 C 18.375 -29.960938 16.617188 -30.59375 14.390625 -30.59375 C 12.054688 -30.59375 10.1875 -29.828125 8.78125 -28.296875 C 7.382812 -26.773438 6.566406 -24.742188 6.328125 -22.203125 L 2.71875 -24.359375 C 3.03125 -26.347656 3.675781 -28.097656 4.65625 -29.609375 C 5.632812 -31.117188 6.953125 -32.300781 8.609375 -33.15625 C 10.273438 -34.007812 12.253906 -34.4375 14.546875 -34.4375 C 16.296875 -34.4375 17.863281 -34.179688 19.25 -33.671875 C 20.632812 -33.160156 21.820312 -32.429688 22.8125 -31.484375 C 23.8125 -30.546875 24.578125 -29.425781 25.109375 -28.125 C 25.640625 -26.820312 25.90625 -25.378906 25.90625 -23.796875 C 25.90625 -21.671875 25.390625 -19.585938 24.359375 -17.546875 C 23.335938 -15.515625 21.644531 -13.382812 19.28125 -11.15625 C 16.914062 -8.925781 13.710938 -6.457031 9.671875 -3.75 L 9.671875 -3.703125 C 10.046875 -3.734375 10.566406 -3.753906 11.234375 -3.765625 C 11.898438 -3.785156 12.566406 -3.804688 13.234375 -3.828125 C 13.898438 -3.847656 14.40625 -3.859375 14.75 -3.859375 L 26.625 -3.859375 L 26.625 0 Z M 3.796875 0 "/></g></g></g></g></g></svg>