<svg xmlns="http://www.w3.org/2000/svg" xmlns:xlink="http://www.w3.org/1999/xlink" width="2000" zoomAndPan="magnify" viewBox="0 0 1500 1499.999933" height="2000" preserveAspectRatio="xMidYMid meet" version="1.0"><defs><g/><clipPath id="28422f94bf"><rect x="0" width="696" y="0" height="1061"/></clipPath><clipPath id="660aba86f3"><path d="M 716.410156 686 L 733 686 L 733 722 L 716.410156 722 Z M 716.410156 686 " clip-rule="nonzero"/></clipPath><clipPath id="2783f83a30"><path d="M 771 610.578125 L 809.410156 610.578125 L 809.410156 797.328125 L 771 797.328125 Z M 771 610.578125 " clip-rule="nonzero"/></clipPath><clipPath id="e255c54ea7"><path d="M 808.71875 671.863281 L 1061.867188 671.863281 L 1061.867188 717.980469 L 808.71875 717.980469 Z M 808.71875 671.863281 " clip-rule="nonzero"/></clipPath><clipPath id="861eb9a2fb"><path d="M 0.71875 0.863281 L 253.867188 0.863281 L 253.867188 46.980469 L 0.71875 46.980469 Z M 0.71875 0.863281 " clip-rule="nonzero"/></clipPath><clipPath id="f6799d7bff"><rect x="0" width="254" y="0" height="47"/></clipPath><clipPath id="05a7f1970e"><path d="M 1134 686 L 1150.851562 686 L 1150.851562 722 L 1134 722 Z M 1134 686 " clip-rule="nonzero"/></clipPath><clipPath id="f5af9fd6c1"><path d="M 1058.601562 610.578125 L 1096 610.578125 L 1096 797.328125 L 1058.601562 797.328125 Z M 1058.601562 610.578125 " clip-rule="nonzero"/></clipPath><clipPath id="73e95126ef"><rect x="0" width="239" y="0" height="62"/></clipPath></defs><g transform="matrix(1, 0, 0, 1, 404, 208)"><g clip-path="url(#28422f94bf)"><g fill="#d94147" fill-opacity="1"><g transform="translate(1.506795, 841.404184)"><g><path d="M 482.699219 -318.832031 L 616.613281 -318.832031 L 616.613281 -64.144531 L 614.457031 -62.515625 C 580.957031 -37.246094 542.199219 -17.859375 498.179688 -4.363281 C 454.253906 9.109375 410.027344 15.84375 365.496094 15.84375 C 301.503906 15.84375 243.933594 2.175781 192.777344 -25.167969 C 141.542969 -52.550781 101.34375 -90.546875 72.179688 -139.152344 C 43.015625 -187.761719 28.433594 -242.664062 28.433594 -303.855469 C 28.433594 -365.050781 43.015625 -419.953125 72.179688 -468.5625 C 101.347656 -517.175781 141.84375 -555.175781 193.671875 -582.5625 C 245.394531 -609.894531 303.539062 -623.558594 368.101562 -623.558594 C 422.066406 -623.558594 471.085938 -614.449219 515.15625 -596.234375 C 559.359375 -577.964844 596.5 -551.429688 626.578125 -516.632812 L 630.011719 -512.660156 L 531.933594 -422.125 L 528.25 -426.003906 C 485.910156 -470.601562 434.84375 -492.898438 375.046875 -492.898438 C 337.179688 -492.898438 303.601562 -485.011719 274.308594 -469.238281 C 245.128906 -453.527344 222.402344 -431.363281 206.132812 -402.75 C 189.820312 -374.0625 181.664062 -341.101562 181.664062 -303.855469 C 181.664062 -267.195312 189.820312 -234.519531 206.132812 -205.832031 C 222.414062 -177.199219 245.011719 -154.882812 273.929688 -138.878906 C 302.917969 -122.835938 336.046875 -114.816406 373.308594 -114.816406 C 412.917969 -114.816406 448.527344 -123.28125 480.136719 -140.214844 L 482.699219 -135.433594 L 477.273438 -135.433594 L 477.273438 -318.832031 Z M 482.699219 -307.980469 L 482.699219 -313.40625 L 488.125 -313.40625 L 488.125 -132.183594 L 485.261719 -130.652344 C 452.050781 -112.859375 414.734375 -103.960938 373.308594 -103.960938 C 334.175781 -103.960938 299.296875 -112.4375 268.675781 -129.382812 C 237.976562 -146.371094 213.984375 -170.066406 196.695312 -200.46875 C 179.441406 -230.816406 170.8125 -265.28125 170.8125 -303.855469 C 170.8125 -343.011719 179.441406 -377.765625 196.695312 -408.113281 C 213.996094 -438.535156 238.152344 -462.097656 269.164062 -478.796875 C 300.0625 -495.433594 335.355469 -503.753906 375.046875 -503.753906 C 437.949219 -503.753906 491.640625 -480.328125 536.121094 -433.476562 L 532.183594 -429.742188 L 528.503906 -433.726562 L 618.792969 -517.070312 L 622.472656 -513.085938 L 618.367188 -509.535156 C 589.414062 -543.035156 553.625 -568.589844 511.011719 -586.203125 C 468.269531 -603.871094 420.628906 -612.707031 368.101562 -612.707031 C 305.332031 -612.707031 248.878906 -599.460938 198.738281 -572.964844 C 148.699219 -546.523438 109.617188 -509.863281 81.484375 -462.976562 C 53.351562 -416.089844 39.285156 -363.046875 39.285156 -303.855469 C 39.285156 -244.667969 53.351562 -191.625 81.484375 -144.738281 C 109.621094 -97.84375 148.421875 -61.179688 197.894531 -34.738281 C 247.449219 -8.25 303.316406 4.992188 365.496094 4.992188 C 408.941406 4.992188 452.109375 -1.585938 495 -14.738281 C 537.796875 -27.863281 575.4375 -46.675781 607.917969 -71.179688 L 611.1875 -66.847656 L 605.761719 -66.847656 L 605.761719 -313.40625 L 611.1875 -313.40625 L 611.1875 -307.980469 Z M 482.699219 -307.980469 "/></g></g></g><g fill="#d94147" fill-opacity="1"><g transform="translate(1.506795, 841.404184)"><g><path d="M 482.6875 -313.40625 L 611.1875 -313.40625 L 611.1875 -66.84375 C 578.195312 -41.957031 539.992188 -22.859375 496.578125 -9.546875 C 453.171875 3.765625 409.476562 10.421875 365.5 10.421875 C 302.40625 10.421875 245.679688 -3.035156 195.328125 -29.953125 C 144.984375 -56.867188 105.484375 -94.195312 76.828125 -141.9375 C 48.179688 -189.6875 33.859375 -243.660156 33.859375 -303.859375 C 33.859375 -364.046875 48.179688 -418.015625 76.828125 -465.765625 C 105.484375 -513.515625 145.273438 -550.84375 196.203125 -577.75 C 247.128906 -604.664062 304.425781 -618.125 368.09375 -618.125 C 421.34375 -618.125 469.671875 -609.148438 513.078125 -591.203125 C 556.484375 -573.265625 592.945312 -547.222656 622.46875 -513.078125 L 532.1875 -429.734375 C 488.769531 -475.460938 436.390625 -498.328125 375.046875 -498.328125 C 336.265625 -498.328125 301.828125 -490.222656 271.734375 -474.015625 C 241.640625 -457.804688 218.195312 -434.941406 201.40625 -405.421875 C 184.625 -375.910156 176.234375 -342.054688 176.234375 -303.859375 C 176.234375 -266.234375 184.625 -232.660156 201.40625 -203.140625 C 218.195312 -173.628906 241.492188 -150.625 271.296875 -134.125 C 301.109375 -117.632812 335.113281 -109.390625 373.3125 -109.390625 C 413.820312 -109.390625 450.28125 -118.070312 482.6875 -135.4375 Z M 482.6875 -313.40625 "/></g></g></g></g></g><g clip-path="url(#660aba86f3)"><path fill="#172641" d="M 711.648438 695.101562 L 711.648438 712.816406 C 711.648438 717.707031 715.628906 721.6875 720.519531 721.6875 L 732.765625 721.6875 L 732.765625 686.230469 L 720.519531 686.230469 C 715.628906 686.230469 711.648438 690.210938 711.648438 695.101562 " fill-opacity="1" fill-rule="nonzero"/></g><path fill="#172641" d="M 755.488281 632.332031 L 749.019531 632.332031 C 743.03125 632.332031 738.171875 637.164062 738.171875 643.148438 L 738.171875 764.769531 C 738.171875 770.722656 743.03125 775.585938 749.019531 775.585938 L 755.488281 775.585938 C 761.476562 775.585938 766.335938 770.722656 766.335938 764.769531 L 766.335938 643.148438 C 766.335938 637.164062 761.476562 632.332031 755.488281 632.332031 " fill-opacity="1" fill-rule="nonzero"/><g clip-path="url(#2783f83a30)"><path fill="#172641" d="M 798.90625 610.578125 L 782.589844 610.578125 C 776.605469 610.578125 771.742188 615.441406 771.742188 621.425781 L 771.742188 786.492188 C 771.742188 792.476562 776.605469 797.339844 782.589844 797.339844 L 798.90625 797.339844 C 804.859375 797.339844 809.722656 792.476562 809.722656 786.492188 L 809.722656 621.425781 C 809.722656 615.441406 804.859375 610.578125 798.90625 610.578125 " fill-opacity="1" fill-rule="nonzero"/></g><g clip-path="url(#e255c54ea7)"><g transform="matrix(1, 0, 0, 1, 808, 671)"><g clip-path="url(#f6799d7bff)"><g clip-path="url(#861eb9a2fb)"><path fill="#172641" d="M 0.71875 0.863281 L 253.824219 0.863281 L 253.824219 46.980469 L 0.71875 46.980469 Z M 0.71875 0.863281 " fill-opacity="1" fill-rule="nonzero"/></g></g></g></g><path stroke-linecap="butt" transform="matrix(0.749995, 0.00277314, -0.00277314, 0.749995, 808.722276, 670.73793)" fill="none" stroke-linejoin="miter" d="M 0.000847129 1.500475 L 333.180241 1.497703 " stroke="#fefefe" stroke-width="3" stroke-opacity="1" stroke-miterlimit="4"/><path stroke-linecap="butt" transform="matrix(0.75, 0, 0, 0.75, 808.7181, 716.855414)" fill="none" stroke-linejoin="miter" d="M 0.000867077 1.500073 L 333.177979 1.500073 " stroke="#fefefe" stroke-width="3" stroke-opacity="1" stroke-miterlimit="4"/><g clip-path="url(#05a7f1970e)"><path fill="#172641" d="M 1146.582031 686.230469 L 1134.339844 686.230469 L 1134.339844 721.6875 L 1146.582031 721.6875 C 1151.476562 721.6875 1155.453125 717.707031 1155.453125 712.816406 L 1155.453125 695.101562 C 1155.453125 690.210938 1151.476562 686.230469 1146.582031 686.230469 " fill-opacity="1" fill-rule="nonzero"/></g><path fill="#172641" d="M 1118.113281 632.332031 L 1111.582031 632.332031 C 1105.628906 632.332031 1100.765625 637.164062 1100.765625 643.148438 L 1100.765625 764.769531 C 1100.765625 770.722656 1105.628906 775.585938 1111.582031 775.585938 L 1118.113281 775.585938 C 1124.070312 775.585938 1128.929688 770.722656 1128.929688 764.769531 L 1128.929688 643.148438 C 1128.929688 637.164062 1124.070312 632.332031 1118.113281 632.332031 " fill-opacity="1" fill-rule="nonzero"/><g clip-path="url(#f5af9fd6c1)"><path fill="#172641" d="M 1084.511719 610.578125 L 1068.199219 610.578125 C 1062.242188 610.578125 1057.382812 615.441406 1057.382812 621.425781 L 1057.382812 786.492188 C 1057.382812 792.476562 1062.242188 797.339844 1068.199219 797.339844 L 1084.511719 797.339844 C 1090.496094 797.339844 1095.359375 792.476562 1095.359375 786.492188 L 1095.359375 621.425781 C 1095.359375 615.441406 1090.496094 610.578125 1084.511719 610.578125 " fill-opacity="1" fill-rule="nonzero"/></g><g transform="matrix(1, 0, 0, 1, 19, 1420)"><g clip-path="url(#73e95126ef)"><g fill="#172641" fill-opacity="1"><g transform="translate(1.13993, 48.299521)"><g><path d="M 29.296875 -30.078125 L 9.671875 -30.078125 L 9.671875 -19.125 L 24.984375 -19.125 L 24.984375 -15.265625 L 9.671875 -15.265625 L 9.671875 0 L 5.546875 0 L 5.546875 -33.921875 L 29.296875 -33.921875 Z M 29.296875 -30.078125 "/></g></g></g><g fill="#172641" fill-opacity="1"><g transform="translate(29.876971, 48.299521)"><g><path d="M 19.796875 -16.609375 C 19.796875 -18.523438 19.28125 -20.003906 18.25 -21.046875 C 17.21875 -22.097656 15.757812 -22.625 13.875 -22.625 C 12.09375 -22.625 10.582031 -22.238281 9.34375 -21.46875 C 8.113281 -20.695312 7.207031 -19.453125 6.625 -17.734375 L 3.296875 -19.796875 C 3.972656 -21.710938 5.238281 -23.257812 7.09375 -24.4375 C 8.945312 -25.625 11.242188 -26.21875 13.984375 -26.21875 C 15.835938 -26.21875 17.515625 -25.898438 19.015625 -25.265625 C 20.523438 -24.628906 21.71875 -23.664062 22.59375 -22.375 C 23.46875 -21.09375 23.90625 -19.441406 23.90625 -17.421875 L 23.90625 -4.984375 C 23.90625 -3.753906 24.554688 -3.140625 25.859375 -3.140625 C 26.503906 -3.140625 27.140625 -3.222656 27.765625 -3.390625 L 27.546875 -0.15625 C 26.867188 0.1875 25.976562 0.359375 24.875 0.359375 C 23.882812 0.359375 22.992188 0.171875 22.203125 -0.203125 C 21.421875 -0.578125 20.804688 -1.148438 20.359375 -1.921875 C 19.910156 -2.691406 19.6875 -3.660156 19.6875 -4.828125 L 19.6875 -5.34375 L 20.71875 -5.1875 C 20.300781 -3.851562 19.597656 -2.765625 18.609375 -1.921875 C 17.617188 -1.085938 16.503906 -0.472656 15.265625 -0.078125 C 14.035156 0.316406 12.820312 0.515625 11.625 0.515625 C 10.113281 0.515625 8.707031 0.257812 7.40625 -0.25 C 6.101562 -0.769531 5.066406 -1.550781 4.296875 -2.59375 C 3.523438 -3.632812 3.140625 -4.929688 3.140625 -6.484375 C 3.140625 -8.398438 3.78125 -9.984375 5.0625 -11.234375 C 6.34375 -12.484375 8.132812 -13.332031 10.4375 -13.78125 L 20.609375 -15.78125 L 20.609375 -12.390625 L 12.34375 -10.6875 C 10.65625 -10.34375 9.398438 -9.863281 8.578125 -9.25 C 7.753906 -8.632812 7.34375 -7.78125 7.34375 -6.6875 C 7.34375 -5.625 7.765625 -4.753906 8.609375 -4.078125 C 9.453125 -3.410156 10.644531 -3.078125 12.1875 -3.078125 C 13.175781 -3.078125 14.125 -3.207031 15.03125 -3.46875 C 15.945312 -3.726562 16.765625 -4.125 17.484375 -4.65625 C 18.203125 -5.1875 18.765625 -5.851562 19.171875 -6.65625 C 19.585938 -7.457031 19.796875 -8.410156 19.796875 -9.515625 Z M 19.796875 -16.609375 "/></g></g></g><g fill="#172641" fill-opacity="1"><g transform="translate(58.099938, 48.299521)"><g><path d="M 21.796875 -25.703125 L 26.109375 -25.703125 L 15.421875 0 L 11.3125 0 L 0.609375 -25.703125 L 5.296875 -25.703125 L 13.421875 -4.15625 Z M 21.796875 -25.703125 "/></g></g></g><g fill="#172641" fill-opacity="1"><g transform="translate(84.832064, 48.299521)"><g><path d="M 6.84375 -30.640625 C 5.914062 -30.640625 5.164062 -30.921875 4.59375 -31.484375 C 4.03125 -32.046875 3.75 -32.789062 3.75 -33.71875 C 3.75 -34.644531 4.03125 -35.390625 4.59375 -35.953125 C 5.164062 -36.523438 5.914062 -36.8125 6.84375 -36.8125 C 7.757812 -36.8125 8.5 -36.523438 9.0625 -35.953125 C 9.632812 -35.390625 9.921875 -34.644531 9.921875 -33.71875 C 9.921875 -32.789062 9.632812 -32.046875 9.0625 -31.484375 C 8.5 -30.921875 7.757812 -30.640625 6.84375 -30.640625 Z M 8.890625 -25.703125 L 8.890625 0 L 4.78125 0 L 4.78125 -25.703125 Z M 8.890625 -25.703125 "/></g></g></g><g fill="#172641" fill-opacity="1"><g transform="translate(98.506568, 48.299521)"><g><path d="M 15.421875 -26.21875 C 17.203125 -26.21875 18.769531 -25.941406 20.125 -25.390625 C 21.476562 -24.847656 22.648438 -24.0625 23.640625 -23.03125 C 24.640625 -22 25.445312 -20.78125 26.0625 -19.375 L 22.15625 -17.53125 C 21.601562 -19.175781 20.769531 -20.4375 19.65625 -21.3125 C 18.539062 -22.1875 17.09375 -22.625 15.3125 -22.625 C 13.601562 -22.625 12.128906 -22.238281 10.890625 -21.46875 C 9.660156 -20.695312 8.71875 -19.582031 8.0625 -18.125 C 7.414062 -16.664062 7.09375 -14.90625 7.09375 -12.84375 C 7.09375 -10.820312 7.414062 -9.070312 8.0625 -7.59375 C 8.71875 -6.125 9.660156 -5.003906 10.890625 -4.234375 C 12.128906 -3.460938 13.601562 -3.078125 15.3125 -3.078125 C 16.65625 -3.078125 17.8125 -3.28125 18.78125 -3.6875 C 19.757812 -4.101562 20.566406 -4.707031 21.203125 -5.5 C 21.835938 -6.289062 22.273438 -7.25 22.515625 -8.375 L 26.3125 -7.046875 C 25.738281 -5.460938 24.941406 -4.101562 23.921875 -2.96875 C 22.910156 -1.84375 21.691406 -0.976562 20.265625 -0.375 C 18.847656 0.21875 17.234375 0.515625 15.421875 0.515625 C 13.023438 0.515625 10.882812 -0.015625 9 -1.078125 C 7.113281 -2.140625 5.640625 -3.671875 4.578125 -5.671875 C 3.515625 -7.679688 2.984375 -10.070312 2.984375 -12.84375 C 2.984375 -15.625 3.515625 -18.015625 4.578125 -20.015625 C 5.640625 -22.023438 7.113281 -23.5625 9 -24.625 C 10.882812 -25.6875 13.023438 -26.21875 15.421875 -26.21875 Z M 15.421875 -26.21875 "/></g></g></g><g fill="#172641" fill-opacity="1"><g transform="translate(127.295005, 48.299521)"><g><path d="M 15.421875 -26.21875 C 17.859375 -26.21875 20.007812 -25.6875 21.875 -24.625 C 23.738281 -23.5625 25.203125 -22.023438 26.265625 -20.015625 C 27.328125 -18.015625 27.859375 -15.625 27.859375 -12.84375 C 27.859375 -10.070312 27.328125 -7.679688 26.265625 -5.671875 C 25.203125 -3.671875 23.738281 -2.140625 21.875 -1.078125 C 20.007812 -0.015625 17.859375 0.515625 15.421875 0.515625 C 13.023438 0.515625 10.882812 -0.015625 9 -1.078125 C 7.113281 -2.140625 5.640625 -3.671875 4.578125 -5.671875 C 3.515625 -7.679688 2.984375 -10.070312 2.984375 -12.84375 C 2.984375 -15.625 3.515625 -18.015625 4.578125 -20.015625 C 5.640625 -22.023438 7.113281 -23.5625 9 -24.625 C 10.882812 -25.6875 13.023438 -26.21875 15.421875 -26.21875 Z M 15.421875 -22.671875 C 13.671875 -22.671875 12.175781 -22.273438 10.9375 -21.484375 C 9.707031 -20.703125 8.757812 -19.582031 8.09375 -18.125 C 7.425781 -16.664062 7.09375 -14.90625 7.09375 -12.84375 C 7.09375 -10.820312 7.425781 -9.070312 8.09375 -7.59375 C 8.757812 -6.125 9.707031 -4.992188 10.9375 -4.203125 C 12.175781 -3.421875 13.671875 -3.03125 15.421875 -3.03125 C 17.171875 -3.03125 18.660156 -3.421875 19.890625 -4.203125 C 21.128906 -4.992188 22.082031 -6.125 22.75 -7.59375 C 23.414062 -9.070312 23.75 -10.820312 23.75 -12.84375 C 23.75 -14.90625 23.414062 -16.664062 22.75 -18.125 C 22.082031 -19.582031 21.128906 -20.703125 19.890625 -21.484375 C 18.660156 -22.273438 17.171875 -22.671875 15.421875 -22.671875 Z M 15.421875 -22.671875 "/></g></g></g><g fill="#172641" fill-opacity="1"><g transform="translate(158.139769, 48.299521)"><g><path d="M 4.78125 0 L 4.78125 -25.703125 L 8.375 -25.703125 L 8.734375 -19.953125 L 8.078125 -20.515625 C 8.617188 -21.878906 9.351562 -22.984375 10.28125 -23.828125 C 11.207031 -24.671875 12.273438 -25.28125 13.484375 -25.65625 C 14.703125 -26.03125 15.960938 -26.21875 17.265625 -26.21875 C 19.117188 -26.21875 20.800781 -25.863281 22.3125 -25.15625 C 23.820312 -24.457031 25.03125 -23.390625 25.9375 -21.953125 C 26.84375 -20.515625 27.296875 -18.679688 27.296875 -16.453125 L 27.296875 0 L 23.1875 0 L 23.1875 -15.015625 C 23.1875 -17.859375 22.578125 -19.835938 21.359375 -20.953125 C 20.140625 -22.066406 18.640625 -22.625 16.859375 -22.625 C 15.628906 -22.625 14.394531 -22.332031 13.15625 -21.75 C 11.925781 -21.164062 10.90625 -20.222656 10.09375 -18.921875 C 9.289062 -17.617188 8.890625 -15.867188 8.890625 -13.671875 L 8.890625 0 Z M 4.78125 0 "/></g></g></g><g fill="#172641" fill-opacity="1"><g transform="translate(189.961285, 48.299521)"><g/></g></g><g fill="#172641" fill-opacity="1"><g transform="translate(207.491383, 48.299521)"><g><path d="M 14.90625 0.515625 C 11.894531 0.515625 9.226562 -0.191406 6.90625 -1.609375 C 4.59375 -3.035156 3.023438 -5 2.203125 -7.5 L 6.328125 -9.609375 C 6.734375 -8.335938 7.296875 -7.234375 8.015625 -6.296875 C 8.734375 -5.359375 9.679688 -4.628906 10.859375 -4.109375 C 12.046875 -3.597656 13.53125 -3.34375 15.3125 -3.34375 C 16.820312 -3.34375 18.09375 -3.613281 19.125 -4.15625 C 20.15625 -4.707031 20.941406 -5.453125 21.484375 -6.390625 C 22.035156 -7.335938 22.3125 -8.429688 22.3125 -9.671875 C 22.3125 -10.898438 22.078125 -11.925781 21.609375 -12.75 C 21.148438 -13.570312 20.421875 -14.179688 19.421875 -14.578125 C 18.429688 -14.972656 17.132812 -15.171875 15.53125 -15.171875 C 15.144531 -15.171875 14.726562 -15.160156 14.28125 -15.140625 C 13.84375 -15.117188 13.382812 -15.078125 12.90625 -15.015625 L 12.90625 -19.125 C 13.207031 -19.09375 13.503906 -19.078125 13.796875 -19.078125 C 14.085938 -19.078125 14.351562 -19.078125 14.59375 -19.078125 C 17.101562 -19.078125 18.890625 -19.5625 19.953125 -20.53125 C 21.015625 -21.507812 21.546875 -23.046875 21.546875 -25.140625 C 21.546875 -26.921875 20.992188 -28.273438 19.890625 -29.203125 C 18.796875 -30.128906 17.238281 -30.59375 15.21875 -30.59375 C 13.0625 -30.59375 11.414062 -30.117188 10.28125 -29.171875 C 9.144531 -28.234375 8.253906 -26.957031 7.609375 -25.34375 L 3.703125 -27.1875 C 4.253906 -28.632812 5.078125 -29.90625 6.171875 -31 C 7.265625 -32.09375 8.585938 -32.945312 10.140625 -33.5625 C 11.703125 -34.1875 13.425781 -34.5 15.3125 -34.5 C 17.675781 -34.5 19.628906 -34.09375 21.171875 -33.28125 C 22.722656 -32.476562 23.882812 -31.40625 24.65625 -30.0625 C 25.425781 -28.726562 25.8125 -27.257812 25.8125 -25.65625 C 25.8125 -24.414062 25.640625 -23.304688 25.296875 -22.328125 C 24.953125 -21.359375 24.476562 -20.515625 23.875 -19.796875 C 23.28125 -19.078125 22.601562 -18.5 21.84375 -18.0625 C 21.09375 -17.632812 20.289062 -17.351562 19.4375 -17.21875 L 19.4375 -17.125 C 20.5625 -17.082031 21.5625 -16.851562 22.4375 -16.4375 C 23.3125 -16.03125 24.054688 -15.484375 24.671875 -14.796875 C 25.285156 -14.117188 25.753906 -13.34375 26.078125 -12.46875 C 26.410156 -11.59375 26.578125 -10.675781 26.578125 -9.71875 C 26.578125 -7.726562 26.085938 -5.960938 25.109375 -4.421875 C 24.128906 -2.878906 22.765625 -1.671875 21.015625 -0.796875 C 19.273438 0.078125 17.238281 0.515625 14.90625 0.515625 Z M 14.90625 0.515625 "/></g></g></g></g></g></svg>