<svg xmlns="http://www.w3.org/2000/svg" xmlns:xlink="http://www.w3.org/1999/xlink" width="2000" zoomAndPan="magnify" viewBox="0 0 1500 1499.999933" height="2000" preserveAspectRatio="xMidYMid meet" version="1.0"><defs><g/><clipPath id="70e4cbf2fc"><rect x="0" width="1159" y="0" height="439"/></clipPath></defs><g transform="matrix(1, 0, 0, 1, 159, 495)"><g clip-path="url(#70e4cbf2fc)"><g fill="#172641" fill-opacity="1"><g transform="translate(1.264112, 347.807446)"><g><path d="M 199.46875 -139.828125 L 262.882812 -139.828125 L 262.882812 -22.484375 L 258.777344 -19.390625 C 244.179688 -8.375 227.332031 0.0585938 208.234375 5.914062 C 189.3125 11.71875 170.246094 14.621094 151.039062 14.621094 C 123.246094 14.621094 98.1875 8.652344 75.859375 -3.28125 C 53.375 -15.296875 35.722656 -31.988281 22.90625 -53.351562 C 10.085938 -74.714844 3.675781 -98.789062 3.675781 -125.566406 C 3.675781 -152.34375 10.085938 -176.417969 22.90625 -197.78125 C 35.730469 -219.160156 53.515625 -235.855469 76.261719 -247.875 C 98.816406 -259.792969 124.101562 -265.75 152.113281 -265.75 C 175.484375 -265.75 196.765625 -261.785156 215.96875 -253.847656 C 235.414062 -245.808594 251.769531 -234.117188 265.035156 -218.773438 L 271.5625 -211.21875 L 219.441406 -163.109375 L 212.4375 -170.484375 C 196.535156 -187.238281 177.382812 -195.613281 154.984375 -195.613281 C 140.691406 -195.613281 128.09375 -192.675781 117.183594 -186.800781 C 106.484375 -181.042969 98.15625 -172.921875 92.199219 -162.441406 C 86.160156 -151.824219 83.144531 -139.53125 83.144531 -125.566406 C 83.144531 -111.839844 86.160156 -99.664062 92.199219 -89.046875 C 98.179688 -78.53125 106.480469 -70.332031 117.105469 -64.453125 C 127.871094 -58.496094 140.257812 -55.519531 154.265625 -55.519531 C 169.28125 -55.519531 182.726562 -58.699219 194.601562 -65.058594 L 199.46875 -55.964844 L 189.15625 -55.964844 L 189.15625 -139.828125 Z M 199.46875 -119.199219 L 199.46875 -129.511719 L 209.785156 -129.511719 L 209.785156 -49.789062 L 204.339844 -46.875 C 189.425781 -38.882812 172.734375 -34.890625 154.265625 -34.890625 C 136.707031 -34.890625 120.988281 -38.726562 107.117188 -46.402344 C 93.109375 -54.15625 82.15625 -64.972656 74.265625 -78.851562 C 66.429688 -92.628906 62.511719 -108.203125 62.511719 -125.566406 C 62.511719 -143.167969 66.429688 -158.859375 74.265625 -172.640625 C 82.179688 -186.554688 93.222656 -197.332031 107.402344 -204.964844 C 121.363281 -212.484375 137.226562 -216.242188 154.984375 -216.242188 C 183.289062 -216.242188 207.429688 -205.722656 227.398438 -184.6875 L 219.917969 -177.585938 L 212.921875 -185.164062 L 250.234375 -219.605469 L 257.230469 -212.027344 L 249.425781 -205.28125 C 238.296875 -218.160156 224.515625 -227.992188 208.085938 -234.78125 C 191.410156 -241.675781 172.753906 -245.121094 152.113281 -245.121094 C 127.511719 -245.121094 105.4375 -239.960938 85.898438 -229.636719 C 66.546875 -219.410156 51.445312 -205.253906 40.59375 -187.167969 C 29.734375 -169.070312 24.304688 -148.535156 24.304688 -125.566406 C 24.304688 -102.597656 29.734375 -82.0625 40.59375 -63.964844 C 51.457031 -45.863281 66.453125 -31.699219 85.582031 -21.472656 C 104.871094 -11.164062 126.691406 -6.007812 151.039062 -6.007812 C 168.183594 -6.007812 185.234375 -8.609375 202.1875 -13.808594 C 218.964844 -18.953125 233.6875 -26.304688 246.355469 -35.859375 L 252.566406 -27.625 L 242.253906 -27.625 L 242.253906 -129.511719 L 252.566406 -129.511719 L 252.566406 -119.199219 Z M 199.46875 -119.199219 "/></g></g></g><g fill="#172641" fill-opacity="1"><g transform="translate(286.836586, 347.807446)"><g><path d="M 117.671875 13.183594 C 95.644531 13.183594 75.808594 8.542969 58.160156 -0.738281 C 40.320312 -10.121094 26.359375 -23.167969 16.28125 -39.875 C 6.203125 -56.582031 1.164062 -75.460938 1.164062 -96.507812 C 1.164062 -117.554688 6.203125 -136.429688 16.28125 -153.136719 C 26.359375 -169.847656 40.320312 -182.894531 58.160156 -192.277344 C 75.808594 -201.558594 95.644531 -206.199219 117.671875 -206.199219 C 139.710938 -206.199219 159.5 -201.550781 177.035156 -192.261719 C 194.742188 -182.878906 208.632812 -169.835938 218.707031 -153.136719 C 228.785156 -136.429688 233.820312 -117.554688 233.820312 -96.507812 C 233.820312 -75.460938 228.785156 -56.582031 218.707031 -39.875 C 208.632812 -23.175781 194.742188 -10.132812 177.035156 -0.75 C 159.5 8.539062 139.710938 13.183594 117.671875 13.183594 Z M 117.671875 -7.445312 C 136.292969 -7.445312 152.859375 -11.289062 167.375 -18.980469 C 181.714844 -26.578125 192.9375 -37.09375 201.042969 -50.53125 C 209.140625 -63.960938 213.191406 -79.285156 213.191406 -96.507812 C 213.191406 -113.726562 209.140625 -129.050781 201.042969 -142.480469 C 192.9375 -155.917969 181.714844 -166.433594 167.375 -174.03125 C 152.859375 -181.722656 136.292969 -185.566406 117.671875 -185.566406 C 99.042969 -185.566406 82.40625 -181.71875 67.761719 -174.019531 C 53.316406 -166.417969 42.042969 -155.90625 33.945312 -142.480469 C 25.84375 -129.050781 21.792969 -113.726562 21.792969 -96.507812 C 21.792969 -79.285156 25.84375 -63.960938 33.945312 -50.53125 C 42.042969 -37.105469 53.316406 -26.59375 67.761719 -18.996094 C 82.40625 -11.292969 99.042969 -7.445312 117.671875 -7.445312 Z M 117.671875 -53.367188 C 129.074219 -53.367188 138.359375 -57.140625 145.535156 -64.6875 C 152.851562 -72.382812 156.507812 -82.988281 156.507812 -96.507812 C 156.507812 -110.023438 152.851562 -120.628906 145.535156 -128.324219 C 138.359375 -135.875 129.074219 -139.648438 117.671875 -139.648438 C 106.246094 -139.648438 96.886719 -135.855469 89.585938 -128.277344 C 82.179688 -120.585938 78.480469 -109.996094 78.480469 -96.507812 C 78.480469 -83.015625 82.179688 -72.425781 89.585938 -64.734375 C 96.886719 -57.15625 106.246094 -53.367188 117.671875 -53.367188 Z M 117.671875 -32.738281 C 100.398438 -32.738281 86.082031 -38.632812 74.726562 -50.425781 C 63.476562 -62.109375 57.851562 -77.46875 57.851562 -96.507812 C 57.851562 -115.542969 63.476562 -130.902344 74.726562 -142.585938 C 86.082031 -154.378906 100.398438 -160.277344 117.671875 -160.277344 C 134.972656 -160.277344 149.246094 -154.363281 160.488281 -142.539062 C 171.585938 -130.859375 177.136719 -115.515625 177.136719 -96.507812 C 177.136719 -77.496094 171.585938 -62.152344 160.488281 -50.472656 C 149.246094 -38.648438 134.972656 -32.738281 117.671875 -32.738281 Z M 117.671875 -32.738281 "/></g></g></g><g fill="#172641" fill-opacity="1"><g transform="translate(530.792983, 347.807446)"><g/></g></g><g fill="#172641" fill-opacity="1"><g transform="translate(641.290979, 347.807446)"><g><path d="M 98.210938 -204.492188 L 98.210938 -138.121094 L 87.894531 -138.121094 L 87.894531 -148.4375 L 214.449219 -148.4375 L 214.449219 -81.167969 L 87.894531 -81.167969 L 87.894531 -91.484375 L 98.210938 -91.484375 L 98.210938 10.316406 L 19.460938 10.316406 L 19.460938 -261.445312 L 229.875 -261.445312 L 229.875 -194.179688 L 87.894531 -194.179688 L 87.894531 -204.492188 Z M 77.582031 -214.808594 L 219.5625 -214.808594 L 219.5625 -204.492188 L 209.246094 -204.492188 L 209.246094 -251.132812 L 219.5625 -251.132812 L 219.5625 -240.816406 L 29.777344 -240.816406 L 29.777344 -251.132812 L 40.089844 -251.132812 L 40.089844 0 L 29.777344 0 L 29.777344 -10.316406 L 87.894531 -10.316406 L 87.894531 0 L 77.582031 0 L 77.582031 -101.796875 L 204.132812 -101.796875 L 204.132812 -91.484375 L 193.820312 -91.484375 L 193.820312 -138.121094 L 204.132812 -138.121094 L 204.132812 -127.808594 L 77.582031 -127.808594 Z M 77.582031 -214.808594 "/></g></g></g><g fill="#172641" fill-opacity="1"><g transform="translate(875.919686, 347.807446)"><g><path d="M 25.832031 -203.328125 L 92.113281 -203.328125 L 92.113281 10.316406 L 15.515625 10.316406 L 15.515625 -203.328125 Z M 25.832031 -182.699219 L 25.832031 -193.011719 L 36.144531 -193.011719 L 36.144531 0 L 25.832031 0 L 25.832031 -10.316406 L 81.796875 -10.316406 L 81.796875 0 L 71.484375 0 L 71.484375 -193.011719 L 81.796875 -193.011719 L 81.796875 -182.699219 Z M 53.8125 -209.605469 C 40.835938 -209.605469 30.128906 -213.511719 21.691406 -221.320312 C 13.03125 -229.339844 8.699219 -239.277344 8.699219 -251.132812 C 8.699219 -262.984375 13.03125 -272.921875 21.691406 -280.941406 C 30.128906 -288.753906 40.835938 -292.660156 53.8125 -292.660156 C 66.710938 -292.660156 77.367188 -288.921875 85.78125 -281.441406 C 94.546875 -273.652344 98.929688 -263.90625 98.929688 -252.207031 C 98.929688 -239.917969 94.621094 -229.703125 86.007812 -221.570312 C 77.5625 -213.59375 66.832031 -209.605469 53.8125 -209.605469 Z M 53.8125 -230.234375 C 61.363281 -230.234375 67.375 -232.34375 71.84375 -236.566406 C 76.148438 -240.628906 78.300781 -245.84375 78.300781 -252.207031 C 78.300781 -257.730469 76.222656 -262.335938 72.074219 -266.023438 C 67.570312 -270.027344 61.484375 -272.03125 53.8125 -272.03125 C 46.222656 -272.03125 40.1875 -269.957031 35.707031 -265.804688 C 31.457031 -261.867188 29.328125 -256.976562 29.328125 -251.132812 C 29.328125 -245.285156 31.457031 -240.394531 35.707031 -236.457031 C 40.1875 -232.308594 46.222656 -230.234375 53.8125 -230.234375 Z M 53.8125 -230.234375 "/></g></g></g><g fill="#172641" fill-opacity="1"><g transform="translate(992.87529, 347.807446)"><g><path d="M 156.453125 -1.03125 C 149.863281 3.835938 141.910156 7.453125 132.585938 9.820312 C 123.742188 12.0625 114.464844 13.183594 104.757812 13.183594 C 79.085938 13.183594 58.980469 6.398438 44.445312 -7.167969 C 29.703125 -20.925781 22.332031 -40.660156 22.332031 -66.371094 L 22.332031 -145.65625 L 32.648438 -145.65625 L 32.648438 -135.34375 L -7.445312 -135.34375 L -7.445312 -199.023438 L 32.648438 -199.023438 L 32.648438 -188.707031 L 22.332031 -188.707031 L 22.332031 -246.019531 L 98.929688 -246.019531 L 98.929688 -188.707031 L 88.613281 -188.707031 L 88.613281 -199.023438 L 147.003906 -199.023438 L 147.003906 -135.34375 L 88.613281 -135.34375 L 88.613281 -145.65625 L 98.929688 -145.65625 L 98.929688 -67.089844 C 98.929688 -61.691406 100.082031 -57.777344 102.386719 -55.339844 C 104.535156 -53.066406 107.957031 -51.929688 112.652344 -51.929688 C 119.160156 -51.929688 124.597656 -53.609375 128.964844 -56.96875 L 139.945312 -65.414062 L 162.75 -5.6875 Z M 144.1875 -17.621094 L 150.320312 -9.328125 L 140.683594 -5.648438 L 125.617188 -45.113281 L 135.253906 -48.792969 L 141.542969 -40.617188 C 133.46875 -34.40625 123.839844 -31.300781 112.652344 -31.300781 C 102.035156 -31.300781 93.617188 -34.589844 87.398438 -41.164062 C 81.332031 -47.578125 78.300781 -56.21875 78.300781 -67.089844 L 78.300781 -155.972656 L 136.6875 -155.972656 L 136.6875 -145.65625 L 126.371094 -145.65625 L 126.371094 -188.707031 L 136.6875 -188.707031 L 136.6875 -178.394531 L 78.300781 -178.394531 L 78.300781 -235.707031 L 88.613281 -235.707031 L 88.613281 -225.390625 L 32.648438 -225.390625 L 32.648438 -235.707031 L 42.960938 -235.707031 L 42.960938 -178.394531 L 2.871094 -178.394531 L 2.871094 -188.707031 L 13.183594 -188.707031 L 13.183594 -145.65625 L 2.871094 -145.65625 L 2.871094 -155.972656 L 42.960938 -155.972656 L 42.960938 -66.371094 C 42.960938 -46.636719 48.148438 -31.929688 58.519531 -22.25 C 69.09375 -12.378906 84.507812 -7.445312 104.757812 -7.445312 C 112.75 -7.445312 120.332031 -8.355469 127.511719 -10.175781 C 134.214844 -11.878906 139.773438 -14.359375 144.1875 -17.621094 Z M 144.1875 -17.621094 "/></g></g></g><g fill="#172641" fill-opacity="1"><g transform="translate(1.264112, 347.807446)"><g><path d="M 199.46875 -129.515625 L 252.578125 -129.515625 L 252.578125 -27.625 C 238.941406 -17.34375 223.15625 -9.445312 205.21875 -3.9375 C 187.28125 1.5625 169.222656 4.3125 151.046875 4.3125 C 124.972656 4.3125 101.53125 -1.25 80.71875 -12.375 C 59.914062 -23.5 43.59375 -38.925781 31.75 -58.65625 C 19.90625 -78.382812 13.984375 -100.6875 13.984375 -125.5625 C 13.984375 -150.4375 19.90625 -172.738281 31.75 -192.46875 C 43.59375 -212.207031 60.035156 -227.632812 81.078125 -238.75 C 102.128906 -249.875 125.804688 -255.4375 152.109375 -255.4375 C 174.117188 -255.4375 194.09375 -251.726562 212.03125 -244.3125 C 229.96875 -236.90625 245.035156 -226.144531 257.234375 -212.03125 L 219.921875 -177.59375 C 201.984375 -196.488281 180.335938 -205.9375 154.984375 -205.9375 C 138.960938 -205.9375 124.734375 -202.585938 112.296875 -195.890625 C 99.859375 -189.191406 90.171875 -179.742188 83.234375 -167.546875 C 76.296875 -155.347656 72.828125 -141.351562 72.828125 -125.5625 C 72.828125 -110.019531 76.296875 -96.148438 83.234375 -83.953125 C 90.171875 -71.753906 99.796875 -62.242188 112.109375 -55.421875 C 124.429688 -48.609375 138.484375 -45.203125 154.265625 -45.203125 C 171.003906 -45.203125 186.070312 -48.789062 199.46875 -55.96875 Z M 199.46875 -129.515625 "/></g></g></g><g fill="#172641" fill-opacity="1"><g transform="translate(286.836586, 347.807446)"><g><path d="M 117.671875 2.875 C 97.347656 2.875 79.113281 -1.367188 62.96875 -9.859375 C 46.820312 -18.359375 34.203125 -30.140625 25.109375 -45.203125 C 16.023438 -60.273438 11.484375 -77.378906 11.484375 -96.515625 C 11.484375 -115.640625 16.023438 -132.734375 25.109375 -147.796875 C 34.203125 -162.867188 46.820312 -174.648438 62.96875 -183.140625 C 79.113281 -191.640625 97.347656 -195.890625 117.671875 -195.890625 C 138.003906 -195.890625 156.179688 -191.640625 172.203125 -183.140625 C 188.234375 -174.648438 200.789062 -162.867188 209.875 -147.796875 C 218.96875 -132.734375 223.515625 -115.640625 223.515625 -96.515625 C 223.515625 -77.378906 218.96875 -60.273438 209.875 -45.203125 C 200.789062 -30.140625 188.234375 -18.359375 172.203125 -9.859375 C 156.179688 -1.367188 138.003906 2.875 117.671875 2.875 Z M 117.671875 -43.046875 C 132.023438 -43.046875 143.804688 -47.890625 153.015625 -57.578125 C 162.222656 -67.265625 166.828125 -80.242188 166.828125 -96.515625 C 166.828125 -112.773438 162.222656 -125.75 153.015625 -135.4375 C 143.804688 -145.125 132.023438 -149.96875 117.671875 -149.96875 C 103.328125 -149.96875 91.488281 -145.125 82.15625 -135.4375 C 72.832031 -125.75 68.171875 -112.773438 68.171875 -96.515625 C 68.171875 -80.242188 72.832031 -67.265625 82.15625 -57.578125 C 91.488281 -47.890625 103.328125 -43.046875 117.671875 -43.046875 Z M 117.671875 -43.046875 "/></g></g></g><g fill="#172641" fill-opacity="1"><g transform="translate(530.792983, 347.807446)"><g/></g></g><g fill="#172641" fill-opacity="1"><g transform="translate(641.290979, 347.807446)"><g><path d="M 87.890625 -204.5 L 87.890625 -138.125 L 204.140625 -138.125 L 204.140625 -91.484375 L 87.890625 -91.484375 L 87.890625 0 L 29.78125 0 L 29.78125 -251.140625 L 219.5625 -251.140625 L 219.5625 -204.5 Z M 87.890625 -204.5 "/></g></g></g><g fill="#172641" fill-opacity="1"><g transform="translate(875.919686, 347.807446)"><g><path d="M 25.828125 -193.015625 L 81.796875 -193.015625 L 81.796875 0 L 25.828125 0 Z M 53.8125 -219.921875 C 43.519531 -219.921875 35.144531 -222.910156 28.6875 -228.890625 C 22.226562 -234.867188 19 -242.285156 19 -251.140625 C 19 -259.984375 22.226562 -267.394531 28.6875 -273.375 C 35.144531 -279.351562 43.519531 -282.34375 53.8125 -282.34375 C 64.09375 -282.34375 72.460938 -279.472656 78.921875 -273.734375 C 85.378906 -267.992188 88.609375 -260.820312 88.609375 -252.21875 C 88.609375 -242.882812 85.378906 -235.164062 78.921875 -229.0625 C 72.460938 -222.96875 64.09375 -219.921875 53.8125 -219.921875 Z M 53.8125 -219.921875 "/></g></g></g><g fill="#172641" fill-opacity="1"><g transform="translate(992.87529, 347.807446)"><g><path d="M 150.328125 -9.328125 C 144.828125 -5.265625 138.066406 -2.210938 130.046875 -0.171875 C 122.035156 1.859375 113.609375 2.875 104.765625 2.875 C 81.796875 2.875 64.03125 -2.984375 51.46875 -14.703125 C 38.914062 -26.421875 32.640625 -43.644531 32.640625 -66.375 L 32.640625 -145.65625 L 2.875 -145.65625 L 2.875 -188.703125 L 32.640625 -188.703125 L 32.640625 -235.703125 L 88.609375 -235.703125 L 88.609375 -188.703125 L 136.6875 -188.703125 L 136.6875 -145.65625 L 88.609375 -145.65625 L 88.609375 -67.09375 C 88.609375 -58.957031 90.703125 -52.675781 94.890625 -48.25 C 99.078125 -43.820312 105 -41.609375 112.65625 -41.609375 C 121.5 -41.609375 129.03125 -44.003906 135.25 -48.796875 Z M 150.328125 -9.328125 "/></g></g></g></g></g></svg>