<svg xmlns="http://www.w3.org/2000/svg" width="594" height="416"><path fill="#f3f4f5" d="M305 16h23l13 1 17 4 12 4 17 9 6 1v2l3 1 3-1 9 5v2h2l7 10 3 7-1 5-7 6h-2l-2 4-15 14-10 11-5-1-14-12-13-8-14-5-11-2h-18l-11 2-10 3-8 4-12 7-7 7-1 2h-2v2h-2l-2 5-5 8-3 7-3 12v3l10 2h172l10-1 2 1v-33l5-6 3-1 23-1 5 2 4 8-1 2 7-1 1 1 9 1 4-1 4 1 5 10 5 2 2 5 3 4 2 11v26l-1 11-3 9-3 3-3 5-9 6-12 6-6 4-5 4-10 5h-10l-7-2v-2h-10l-1 7-3 7-1 6h-2l-2 6h-7v9l-1 5-3-3 1-7-1-2-3 12-14 7-10 6-14 7-18 6-12 3-14 2h-34l-19-3-18-6-13-5-11-7-12-9-10-8v-2h-2l-7-8-5-5-3-6-5-6v-3h-3l1 8-1-3h-2l-6-9-6-4-4 1-3 2-15 2-3 3h-7l-18-5-12-1-8-5-5-5-5-8-2-10v-12l2-3 4-1-8-4-3-3-1-4v-16l5-5 6-1v-19l2-4 8-4h14l6-9 2-2 4-1h21l6 3 3 7 1 5v24l5-1 2-6 2-15 4-10 5-14 6-9 6-9 4-5 5-3 7-8 11-9 21-14 10-5 20-7 18-4Zm96 25-1 2h2ZM162 167v4h10l4-2-3-2Zm103 0-20 1v2l30 2 2 1-8 3v3l-4 1-5 5-3 3-4 1-1 6 3 5 9 13h2v2l8 6 16 8 12 3h25l17-4 9-4 3-3-1-6v-32l-1-12 8-2v-1l-7-1Zm148 0 2 4 4 1v11l2 5 5-4 1-9-1-3 8-1 2-1-1-3Zm-6 1v1h5v-1Zm10 7v28h1v-28Zm-302 20 4 2 3-2Zm323 9v3l3 3 6 1h12l3-3-19-2Zm-303 3 1 3 5 1h12l4-3-3-1Zm54 8 1 4 1-2Z"/><path fill="#fbfbfc" d="M0 0h594v416H0Zm33 2L19 3l-4 1v2l-5 2-2 2v19L7 55v46l2 76-1 87-1 23-1 117 2 7 10 3h221l12-3v-1h-26l-18-2v-2l-9-7-7-7-8-12h-1v9l-1 3h-2l-4 8-12 7-17 4h-12l-21-5-13-11-7-10-4-9-2-13v-14l4-12 4-5 18-11 11-4 5-1h24l8 3h3v2h5l1 3h5l3 9-1 7h-2l-2 4-1 11 3 1 4-3 3-11 6-8 4-3v-2l5-2 2-1v-2l6-2 9-4 9-2h21l9 3 4 2h3v-3l12 4 3 3h2l1 4 5 8 1 2v13h-1v8h1l1 5v9l-2 7-2-3-2 11-4 6v2l-3 1v3l-4 2v2l-4 3v2h-6l3 3h27l33-1h5v-3l-5-1-1-6v-72l1-11 3-2 81-1h40l71 1 1 1v23l-4 1h-13l-4 8-2 56v5l2 2 6 1h80l9-2 1-4V7l-5-4-6-1Zm234 323 1 2Zm176 16-7 2-1 6h-2l-1 25v32l-1 5 7 2h8l10-2 2-2 1-22v-33l-3-10-5-2Zm-309 1-7 2-4 4v3h-2l-2 4v8l1-4h4v8l1 4h2l1 5 5 2 5 2-3 1-6-2-1 2 3 2h13l1-6 1-13v-9l-7-5-6-1 6-5v-2Zm94 0-7 2v3h5l7-4v-1Zm166 4-1 1-1 13v17l-3 2h-32v27l-2 5 3 1 46 2 9-1 4-3-12-1-6-3-1-25-1-16v-16Zm-175 1-2 1-2 3 1 8v7l3 5 6 7h2v3h-3v2l12 1 6-3 3-4 3-8v-11l-4-4-5-3-16-2Zm-6 10-1 6 2 1v-7Zm207 53"/><path fill="#383b46" d="M360 171h54v79l-9 8-13 8-16 8-22 7-24 4h-30l-18-3-16-5-16-7-16-10-13-11-13-13-11-16-8-16-6-16-3-12v-4h58l6 16 6 11 9 11 10 9 14 8 11 4 12 2h23l15-3 15-7Z"/><path fill="#373b45" d="M300 19h34l20 4 18 6 19 10 11 8 12 11 4 5-20 20-8 7-8 8-4-2-11-9-10-7-15-6-20-4h-11l-13 2-14 4-11 6-9 7-5 5-8 9-8 15-5 16h-58l1-9 4-15 6-15 8-15 9-12 11-12 10-9 15-10 16-8 13-5 18-4Z"/><path fill="#ae2f2f" d="M137 99h17l5 4v38h281v-37l5-5h17l5 4 1 2v93l-3 5-1 1h-20l-4-5v-35H159v36l-4 4h-19l-4-4v-96Z"/><path fill="#fafafa" d="m493 108 7 1 5 10 5 2 2 5 3 4 2 11v26l-1 11-3 9-3 3-3 5-9 6-12 6-6 4-5 4-10 5h-10l-7-2v-2h-10l-1 7-3 7-1 6h-2l-2 6h-7v9l-1 5-3-3 1-7-1-2-3 12-14 7-10 6-14 7-18 6-12 3-14 2h-34l-19-3-18-6-13-5-11-7-12-9-10-8v-2h-2l-7-8-5-5-3-6-5-6v-3h-3l1 8-1-3h-2l-6-9-6-4-4 1-3 2-15 2-3 3h-7l-18-5-12-1-8-5-5-5-5-8-2-10v-12l2-3 4-1-3-2 6-1v23l4 1 2 1h13l6-1 1 2v7l4 2v2h21l3-3 1-36h281l1 35 3 6h18l6-2 2-9 1-1 19-1 5-5 1-22h10l1-4v-23h-9l-2-2v-20l-2-1-3-5Zm-331 59v4h10l4-2-3-2Zm103 0-20 1v2l30 2 2 1-8 3v3l-4 1-5 5-3 3-4 1-1 6 3 5 9 13h2v2l8 6 16 8 12 3h25l17-4 9-4 3-3-1-6v-32l-1-12 8-2v-1l-7-1Zm148 0 2 4 4 1v11l2 5 5-4 1-9-1-3 8-1 2-1-1-3Zm-6 1v1h5v-1Zm-47 3-1 52-15 7-15 3h-23l-15-3-10-4-12-7-12-11-9-12-7-15-3-9h-58l1 8 4 14 7 17 8 14 10 13 15 15 12 9 17 10 17 7 15 4 14 2h30l24-4 24-8 16-8 12-8 8-7v-79Zm57 4v28h1v-28Zm-302 20 4 2 3-2Zm323 9v3l3 3 6 1h12l3-3-19-2Zm-303 3 1 3 5 1h12l4-3-3-1Zm54 8 1 4 1-2Z"/><path fill="#393c46" d="M223 317h16l15 4 11 7 8 9 5 10 2 8v13l-2 9-4 9-6 8-7 6-10 5-10 3h-18l-10-3-8-4-10-9-4-5-4-8-2-6v-20l3-10 6-9 8-8 14-7Zm5 25-7 2v3h5l7-4v-1Zm-9 5-2 1-2 3 1 8v7l3 5 6 7h2v3h-3v2l12 1 6-3 3-4 3-8v-11l-4-4-5-3-16-2Zm-6 10-1 6 2 1v-7Zm8 23"/><path fill="#3b3e48" d="M130 317h17l14 4 10 6 5 5-2 4-13 12-11-7-6-2h-10l-9 4-6 7-2 5v14l4 9 8 6 3 1h16l4-1v-24h23v37l-10 6-13 4-4 1h-19l-12-4-10-6-8-8-7-14-1-4v-19l4-12 6-8 7-7 14-7Z"/><path fill="#fefdfd" d="m493 108 7 1 5 10 5 2 2 5 3 4 2 11v26l-1 11-3 9-3 3-3 5-9 6-12 6-6 4-5 4-10 5h-10l-7-2v-2h-10l-1 7-3 7-1 6h-2l-2 6h-7v9l-1 5-3-3 1-7-1-2-2 5h-1v-78h-53l1-5h75l1 33 1 4h3l1 2h18l6-2 2-9 1-1 19-1 5-5 1-22h10l1-4v-23h-9l-2-2v-20l-2-1-3-5Zm-80 59 2 4 4 1v11l2 5 5-4 1-9-1-3 8-1 2-1-1-3Zm-6 1v1h5v-1Zm10 7v28h1v-28Zm21 29v3l3 3 6 1h12l3-3-19-2Z"/><path fill="#373a44" d="M326 319h67v19h-43v19h38v19h-38v30h-24Z"/><path fill="#3e414b" d="M438 318h78v21h-27v68h-25v-68h-26Z"/><path fill="#f8f9f9" d="M129 315h24l11 4v2h5l2 2 4 1 3 5 1 8-2 3h-2l-2 10v5l5-2 3-11 6-8 7-6 5-2v-2l15-7 9-2h21l9 3 4 2-1 2-17-4h-16l-12 4-10 6-8 8-6 12-1 5v20l4 11 6 8 5 6-4 1-7-7-7-10v7l-2 3h-2l-1 5-5 5-10 6-17 4h-12l-21-5-13-11-4-5-6-10-2-5-2-13v-14l4-12 5-6 18-11 11-4Zm1 2-13 4-10 6-9 9-5 10-2 7v19l4 11 6 9 7 7 11 6 10 3h19l15-4 9-5 3-2v-37h-23v24l-4 1h-16l-8-4-5-6-2-6v-14l4-8 7-6 6-2h10l10 4 7 5 8-8 7-6-2-4-9-7-13-5-5-1Zm4 25-7 2-4 4v3h-2l-2 4v8l1-4h4v8l1 4h2l1 5 5 2 5 2-3 1-6-2-1 2 3 2h13l1-6 1-13v-9l-7-5-6-1 6-5v-2Zm-8 36"/><path fill="#8f3939" d="M137 99h17l5 4v38h281v-37l5-5h17l5 4 1 2v93l-3 5-1 1h-20l-4-5v-35H159v36l-4 4h-19l-4-4v-96Zm2 3-5 4v74l1 17 4 4 10 1 7-3v-35l3-1 17-1h264l1 2 1 33 5 5 16-1 2-3v-93l-2-2-4-1h-12l-3 2-2 9v27l-2 3H235l-76-1-1-1-1-8v-25l-2-5-3-1Z"/><path fill="#ad2f2e" d="M476 112h14l3 3 3 1 1 20 1 1 9 1 1 3v22l-2 3h-7l-2-1-1 22-7 5h-13l-5-5v-70Z"/><path fill="#3b4048" d="M404 318h25v89h-25Z"/><path fill="#ad2f2e" d="M110 112h13l5 5v70l-5 5h-13l-5-5v-70Z"/><path fill="#f8d6d5" d="M136 97h21l3 3 1 3v36h175l103 1v-34h1v35H159l-1-38-4-3h-17l-4 4-1 95h-2l-1-9-4 1 2-4v-70l-4-4h-13l-4 4v72h-2v-23l-8 1-6-5-1-4v-16l5-5 6-1v-19l2-4 8-4h14l6-9 2-2Z"/><path fill="#903537" d="M476 112h14l3 3 3 1 1 20 1 1 9 1 1 3v22l-2 3h-7l-2-1-1 22-7 5h-13l-5-5v-70Zm3 3-4 2-1 2v64l2 6h15l1-1v-61l-1-10-3-2Z"/><path fill="#fef4f2" d="m466 96 6 2 4 8-1 2 7-1 1 1 7 1 3 3v2l3 1-3 1-3-3h-14l-4 4v70l4 4h15l-1 2-19 1-3 9-6 3h-18v-3h20l3-5v-93l-5-5h-17l-4 4-1 2-1 34H336l-73-1v-1l161-1 10-1 2 1v-33l5-6 3-1Z"/><path fill="#fefefe" d="M205 244h3l4 4v3l5 2v2l3 1 3 5 3 1v2l9 3 14 7 9 5 10 4 21 5 9 3h18l8 1v3l-10 4-7 1h-18l-9-2-9-4-14-5-9-5-7-2-9-7-4-6-5-4v-2l-6-1-1-2-5-3-6-10Z"/><path fill="#f7f8f8" d="M228 338h9l10 5 6 8 2 5v12l-3 8-5 6-8 4-3 1h-8l-8-3-7-7-3-7v-16l5-8 7-6Zm0 4-7 2v3h5l7-4v-1Zm-9 5-2 1-2 3 1 8v7l3 5 6 7h2v3h-3v2l12 1 6-3 3-4 3-8v-11l-4-4-5-3-16-2Zm-6 10-1 6 2 1v-7Zm8 23"/><path fill="#f3cfcd" d="M159 164h281l1 35 2 4h-3l-2-4v-33H161v34l-3 2Z"/><path fill="#fedddc" d="M105 111h19l1 2h-15l-4 4v72h-2v-23l-8 1-6-5-1-4v-16l5-5 6-1v-19l2-4Z"/><path fill="#983738" d="M445 99h17l5 4 1 2v93l-3 5-1 1h-20l-3-4 4 2h18l1-4v-93l-5-2h-12l-3 1-2 16-1 20h-1v-36Z"/><path fill="#f3c9c8" d="M494 116h2l1 20 1 1 9 1 1 3v22l-2 3h-7l-2-1-1 22-2 1Z"/><path fill="#fce1e0" d="M445 98h20l4 5v13h2l1-4 2-1 14-1h3l2 4 3 1-3 1-3-3h-14l-4 4v70l4 4h15l-1 2-19 1-3 9-6 3h-18v-3h20l3-5v-93l-5-5-17-1Z"/><path fill="#9b3537" d="M441 120h1l1 20-3 4H235l-76-1v-1l279-1 2-1Z"/><path fill="#904343" d="M110 112h13l5 5v70l-5 5h-13l-5-5v-70Zm2 3-4 2v2h-2v67l1 2 4 2h13l2-4v-69l-3-2Z"/><path fill="#e1e2e5" d="M414 171h1l1 82-1 3-14 7-10 6-14 7-18 6-12 3-12 1-5-1v-1l24-4 24-8 16-8 12-8 7-6Z"/><path fill="#f6f7f9" d="M257 205h3l4 6v2h2v2l4 2 11 7 13 5 8 2h25l17-4 10-3 1 2-11 5-15 3h-23l-15-3-10-4-12-7-12-11-2-3Z"/><path fill="#f8f9f9" d="m398 37 10 5v2h2l7 10 3 7-1 5-7 6h-2l-2 4-4 4-2-1 12-13 3-4-11-11-10-8-1-4Zm3 4-1 2h2Z"/><path fill="#924c4b" d="M466 105h2v93l-3 5-1 1h-20l-3-4 4 2h18l1-4h2Z"/><path fill="#f7f7f9" d="m245 268 5 1 21 9 15 4 14 2 35 1-2 2h-34l-19-3-18-6-13-5-4-3Z"/><path fill="#fefbfa" d="m159 99 4 1 3 7 1 5v27h-6l-1-36Z"/><path fill="#9d3638" d="m124 116 2 1v69l-2 4h-13l-4-2-1-2v-67h1l1 54 1 13 3 2h8l2-3h1l1-8Z"/><path fill="#9b3434" d="M498 139h6l2 2v21l-2 2h-6Z"/><path fill="#883537" d="M96 139h5l1 1v24h-6l-2-2v-21Z"/><path fill="#aa6364" d="M471 117h1l1 65 2 7h11l5-1v-33l2-3 1 36-5 4h-13l-5-5Z"/><path fill="#955251" d="m126 116 2 1v70l-4 4 1-5Z"/><path fill="#9d3535" d="M133 107h1l1 73 1 17 3 3 10 1 7-2-3 3-3 1h-12v-2l-4-2-1-1Z"/><path fill="#fef9f9" d="m466 96 6 2 4 8-1 2 7-1 7 3v1l-15 1-2 1-1 3h-2l-1-14-4-5Z"/><path fill="#fdf7f7" d="m132 98 4 1-2 1-1 3h-3v11l-4 1-2-3-17-1 3-2h14l6-9Z"/><path fill="#eff0f1" d="M257 205h3l4 6v2h2v2l4 2 11 7 7 3 1 3-6-2-11-6-10-8-7-7Z"/><path fill="#fde7e5" d="M494 116h2l1 20 1 1 9 1 1 3v22l-2 3h-7l-1-2 7-2v-21l-1-1h-6l-3 1Z"/><path fill="#a13438" d="M474 127h1v56l1 6 10-1v2h-11l-2-2v-52Z"/><path fill="#fafbfb" d="M305 16h23l13 1 4 1v2h-11l-8-1-22-1Z"/><path fill="#823635" d="M158 165h1v35l-4 4h-19l-4-4v-2l4 2 2 1v2l12-1 6-3 1-2Z"/><path fill="#e4e4e6" d="m293 17 33 1v1l-26 1-15 2-6 1 1-3Z"/><path fill="#fefbfb" d="m105 111 1 3-2 3-1 20-3-1v-19l2-4Z"/><path fill="#eeeff1" d="m255 97 1 2-6 11-6 12-3 1 3-9 6-11Z"/><path fill="#a03336" d="M97 143h2v18h-4v-17Z"/><path fill="#e7e8ea" d="M311 69h11l4 1v2l-26 1 1-3Z"/><path fill="#fefaf7" d="m91 139 2 1v22l3 3h-3l-3-3-1-4v-16Z"/><path fill="#f6f7f8" d="m326 70 13 2 13 5 1 3-9-3-10-3-8-1Z"/><path fill="#914c4b" d="M105 165h1l1 23 4 1 13 1-1 2h-13l-5-5Z"/><path fill="#894244" d="M498 139h6l2 2v21l-2 2h-6l2-3 5-1-1-17h-5Z"/><path fill="#fefeff" d="M309 75h14l4 1v2l-5 1h-8l-6-1Z"/><path fill="#8e4f50" d="M96 139h5l1 1v24l-2-3v-20h-4l-1 3-1-3Z"/><path fill="#eeeff1" d="m128 340 2 1-3 4h-2l-2 6h-2l-2 5-3 3 1-7 6-8Z"/><path fill="#efcfce" d="m132 200 2 1v2h23l-1 3h-21l-3-3Z"/><path fill="#eaebec" d="M401 79v3l-13 13-4 3-2-1 14-14Z"/><path fill="#934e4e" d="M476 112h14l4 4-1 4-2-4-1-1h-14l-4 2 2-4Z"/><path fill="#91494a" d="M445 99h17l5 4-1 5-2-3-1-3h-19Z"/><path fill="#ebc9c7" d="m93 139 3 1-1 1v22l-3-1v-22Z"/><path fill="#edeef0" d="m240 315 7 1 9 3v3l-17-4Z"/><path fill="#e7e7ea" d="m349 281 4 1-1 2-12 2-10-1v-1Z"/><path fill="#f9fafa" d="m415 250 1 3-1 3-11 5 2-5Z"/><path fill="#44444d" d="m217 58 1 2-3 5-1 5-8 1 6-8Z"/><path fill="#f8d7d6" d="M506 143h1l1 20-2 3h-7l-1-2 7-2Z"/><path fill="#eff1f3" d="m352 224 3 1-4 3-7 3-6 1v-2l9-4Z"/><path fill="#2f3035" d="M173 364h1v33l-3 1-1-3h3Z"/><path fill="#f8f9fb" d="M275 21h4v2l-12 4h-5l1-2Z"/><path fill="#fefefd" d="m291 80 3 1v2l-5 3h-6v-3Z"/><path fill="#41434b" d="M268 384h7l-6 9-3-3 4-2v-2h-2Z"/><path fill="#fefefe" d="M348 287h5v3l-3 2h-6l1-3Z"/><path fill="#f3f3f5" d="m214 317 5 1-3 2-10 4 1-4Z"/><path fill="#e9e9ec" d="m276 221 12 6 1 3-6-2-8-4Z"/><path fill="#40424c" d="m413 60 1 2h2l-1 4-4 3-1-6Z"/><path fill="#a43436" d="M491 167h1v21l-4 1 1-5h2Z"/><path fill="#fbe1e1" d="M106 111h18l1 2h-15l-5 4Z"/><path fill="#eceeef" d="m224 339 4 1v3h-7l-3 2 2-4Z"/><path fill="#3e4248" d="m209 232 2 1 4 5-3 2-4-4Z"/><path fill="#e8e9ec" d="m255 97 1 2-4 7h-2v2h-2l2-5Z"/><path fill="#eceeef" d="m284 75 3 1-1 3-7 2-1-3Z"/><path fill="#eff0f1" d="M345 19h6l3 3h-8l-6-1v-1Z"/><path fill="#42454c" d="m116 369 2 3 2 5-2 3-2-1-1-8Z"/><path fill="#f5e0e0" d="m102 162 2 1v3l-8 1-1-4 7 1Z"/><path fill="#44454b" d="m367 86 6 2 4 1v3l-3 1-7-6Z"/><path fill="#f1f2f4" d="M358 279h5v2l-11 2 2-3Z"/><path fill="#dbdddf" d="M390 89h2l-2 4-6 5-2-1Z"/><path fill="#e0e1e4" d="m370 275 2 1-1 2-8 2-2-2Z"/><path fill="#40434a" d="M384 264h4l1 4-5 2-1-5Z"/><path fill="#8e4344" d="m157 197 2 1-2 5-3 1-4-2 6-3Z"/><path fill="#41444b" d="M114 348h6l-3 7-2-1-1-3Z"/><path fill="#42464b" d="m393 259 4 1 2 2-6 3Z"/><path fill="#fefefd" d="M418 256h2l-2 4-4 1-1-4Z"/><path fill="#f4f5f6" d="m376 273 4 1-6 3-3-1Z"/><path fill="#f9f9fb" d="m220 251 5 1 2 5-6-4Z"/><path fill="#44454d" d="M193 335h2l-2 5-2 3h-2l2-5Z"/><path fill="#fefefe" d="M278 86h3l-1 3h-5Zm-7 5h3v2l-4-1Z"/><path fill="#fffffd" d="m403 267 3 1-3 1Z"/><path fill="#fefefe" d="m193 226 2 1-2 2Z"/><path fill="#fff" d="m229 380 2 1Z"/></svg>