<svg xmlns="http://www.w3.org/2000/svg" xmlns:xlink="http://www.w3.org/1999/xlink" width="2000" zoomAndPan="magnify" viewBox="0 0 1500 1499.999933" height="2000" preserveAspectRatio="xMidYMid meet" version="1.0"><defs><g/><clipPath id="2c93079779"><path d="M 0.519531 662 L 1227.878906 662 L 1227.878906 1074.121094 L 0.519531 1074.121094 Z M 0.519531 662 " clip-rule="nonzero"/></clipPath><clipPath id="5f04dc871c"><rect x="0" width="1228" y="0" height="413"/></clipPath><clipPath id="1fa4297c85"><path d="M 296 0.601562 L 853 0.601562 L 853 848 L 296 848 Z M 296 0.601562 " clip-rule="nonzero"/></clipPath><clipPath id="9c134b14d9"><rect x="0" width="557" y="0" height="848"/></clipPath><clipPath id="b0ffd5ccc2"><path d="M 278.285156 376.066406 L 826.859375 376.066406 L 826.859375 410.207031 L 278.285156 410.207031 Z M 278.285156 376.066406 " clip-rule="nonzero"/></clipPath><clipPath id="f62c1fc9e6"><path d="M 0.285156 0.0664062 L 548.859375 0.0664062 L 548.859375 34.207031 L 0.285156 34.207031 Z M 0.285156 0.0664062 " clip-rule="nonzero"/></clipPath><clipPath id="25831ab562"><rect x="0" width="549" y="0" height="35"/></clipPath><clipPath id="567a5b266e"><path d="M 173.007812 371 L 200 371 L 200 416 L 173.007812 416 Z M 173.007812 371 " clip-rule="nonzero"/></clipPath><clipPath id="b7ef1a8b7a"><path d="M 247 277.414062 L 295 277.414062 L 295 508.964844 L 247 508.964844 Z M 247 277.414062 " clip-rule="nonzero"/></clipPath><clipPath id="5b385672a2"><path d="M 910 371 L 936.226562 371 L 936.226562 416 L 910 416 Z M 910 371 " clip-rule="nonzero"/></clipPath><clipPath id="9ec6b4801d"><path d="M 814 277.414062 L 862 277.414062 L 862 508.964844 L 814 508.964844 Z M 814 277.414062 " clip-rule="nonzero"/></clipPath><clipPath id="da815dbe54"><rect x="0" width="1228" y="0" height="1075"/></clipPath></defs><g transform="matrix(1, 0, 0, 1, 149, 279)"><g clip-path="url(#da815dbe54)"><g clip-path="url(#2c93079779)"><g transform="matrix(1, 0, 0, 1, 0, 662)"><g clip-path="url(#5f04dc871c)"><g fill="#172641" fill-opacity="1"><g transform="translate(1.158549, 326.990363)"><g><path d="M 187.339844 -129.425781 L 244.996094 -129.425781 L 244.996094 -22.0625 L 241.898438 -19.722656 C 228.363281 -9.515625 212.734375 -1.691406 195.015625 3.742188 C 177.421875 9.136719 159.703125 11.835938 141.851562 11.835938 C 116.066406 11.835938 92.828125 6.304688 72.136719 -4.753906 C 51.328125 -15.875 34.996094 -31.316406 23.136719 -51.082031 C 11.277344 -70.847656 5.347656 -93.128906 5.347656 -117.929688 C 5.347656 -142.730469 11.277344 -165.011719 23.136719 -184.777344 C 35.003906 -204.550781 51.460938 -220 72.507812 -231.121094 C 93.414062 -242.167969 116.867188 -247.691406 142.863281 -247.691406 C 164.558594 -247.691406 184.308594 -244.015625 202.109375 -236.65625 C 220.09375 -229.222656 235.21875 -218.414062 247.480469 -204.226562 L 252.414062 -198.519531 L 206.183594 -155.847656 L 200.894531 -161.421875 C 185.582031 -177.546875 167.136719 -185.613281 145.558594 -185.613281 C 131.816406 -185.613281 119.683594 -182.777344 109.15625 -177.109375 C 98.789062 -171.527344 90.71875 -163.65625 84.945312 -153.5 C 79.109375 -143.238281 76.191406 -131.378906 76.191406 -117.929688 C 76.191406 -104.703125 79.109375 -92.957031 84.945312 -82.695312 C 90.734375 -72.507812 98.777344 -64.570312 109.066406 -58.875 C 119.460938 -53.121094 131.398438 -50.246094 144.882812 -50.246094 C 159.304688 -50.246094 172.230469 -53.308594 183.660156 -59.429688 L 187.339844 -52.5625 L 179.546875 -52.5625 L 179.546875 -129.425781 Z M 187.339844 -113.84375 L 187.339844 -121.636719 L 195.128906 -121.636719 L 195.128906 -47.898438 L 191.019531 -45.695312 C 177.289062 -38.339844 161.910156 -34.664062 144.882812 -34.664062 C 128.71875 -34.664062 114.261719 -38.1875 101.519531 -45.238281 C 88.675781 -52.347656 78.632812 -62.265625 71.398438 -74.992188 C 64.203125 -87.640625 60.605469 -101.953125 60.605469 -117.929688 C 60.605469 -134.128906 64.203125 -148.550781 71.398438 -161.203125 C 78.648438 -173.957031 88.773438 -183.832031 101.769531 -190.828125 C 114.601562 -197.738281 129.199219 -201.195312 145.558594 -201.195312 C 171.597656 -201.195312 193.8125 -191.511719 212.195312 -172.148438 L 206.542969 -166.785156 L 201.257812 -172.511719 L 236.300781 -204.855469 L 241.585938 -199.132812 L 235.691406 -194.035156 C 225.042969 -206.355469 211.863281 -215.761719 196.15625 -222.253906 C 180.261719 -228.824219 162.496094 -232.109375 142.863281 -232.109375 C 119.441406 -232.109375 98.417969 -227.1875 79.789062 -217.34375 C 61.304688 -207.578125 46.875 -194.046875 36.5 -176.757812 C 26.121094 -159.460938 20.933594 -139.851562 20.933594 -117.929688 C 20.933594 -96.007812 26.121094 -76.394531 36.5 -59.097656 C 46.878906 -41.796875 61.207031 -28.265625 79.484375 -18.496094 C 97.878906 -8.664062 118.667969 -3.75 141.851562 -3.75 C 158.144531 -3.75 174.34375 -6.21875 190.445312 -11.15625 C 206.417969 -16.054688 220.441406 -23.058594 232.511719 -32.164062 L 237.207031 -25.945312 L 229.414062 -25.945312 L 229.414062 -121.636719 L 237.207031 -121.636719 L 237.207031 -113.84375 Z M 187.339844 -113.84375 "/></g></g></g><g fill="#172641" fill-opacity="1"><g transform="translate(269.36233, 326.990363)"><g><path d="M 142.1875 11.835938 C 116.398438 11.835938 93.097656 6.246094 72.292969 -4.929688 C 51.378906 -16.164062 34.992188 -31.660156 23.136719 -51.417969 C 11.277344 -71.183594 5.347656 -93.355469 5.347656 -117.929688 C 5.347656 -142.503906 11.277344 -164.675781 23.136719 -184.441406 C 34.992188 -204.199219 51.378906 -219.695312 72.292969 -230.929688 C 93.097656 -242.105469 116.398438 -247.691406 142.1875 -247.691406 C 167.988281 -247.691406 191.234375 -242.101562 211.933594 -230.921875 C 232.714844 -219.691406 249.089844 -204.207031 261.054688 -184.46875 C 273.035156 -164.695312 279.027344 -142.515625 279.027344 -117.929688 C 279.027344 -93.339844 273.035156 -71.160156 261.054688 -51.386719 C 249.089844 -31.648438 232.714844 -16.164062 211.933594 -4.9375 C 191.234375 6.246094 167.984375 11.835938 142.1875 11.835938 Z M 142.1875 -3.75 C 165.359375 -3.75 186.136719 -8.714844 204.523438 -18.648438 C 222.824219 -28.535156 237.226562 -42.140625 247.726562 -59.464844 C 258.203125 -76.753906 263.445312 -96.242188 263.445312 -117.929688 C 263.445312 -139.613281 258.203125 -159.101562 247.726562 -176.394531 C 237.226562 -193.71875 222.824219 -207.324219 204.523438 -217.210938 C 186.136719 -227.144531 165.359375 -232.109375 142.1875 -232.109375 C 119.011719 -232.109375 98.171875 -227.140625 79.667969 -217.199219 C 61.273438 -207.320312 46.882812 -193.726562 36.5 -176.421875 C 26.121094 -159.125 20.933594 -139.625 20.933594 -117.929688 C 20.933594 -96.230469 26.121094 -76.734375 36.5 -59.433594 C 46.882812 -42.128906 61.273438 -28.539062 79.667969 -18.65625 C 98.171875 -8.71875 119.011719 -3.75 142.1875 -3.75 Z M 142.1875 -50.246094 C 154.738281 -50.246094 166.03125 -53.105469 176.066406 -58.828125 C 186.042969 -64.511719 193.878906 -72.453125 199.574219 -82.644531 C 205.316406 -92.917969 208.1875 -104.679688 208.1875 -117.929688 C 208.1875 -131.175781 205.316406 -142.9375 199.574219 -153.210938 C 193.878906 -163.40625 186.042969 -171.34375 176.066406 -177.03125 C 166.03125 -182.75 154.738281 -185.613281 142.1875 -185.613281 C 129.636719 -185.613281 118.34375 -182.75 108.308594 -177.03125 C 98.335938 -171.34375 90.5 -163.40625 84.804688 -153.210938 C 79.0625 -142.9375 76.191406 -131.175781 76.191406 -117.929688 C 76.191406 -104.679688 79.0625 -92.917969 84.804688 -82.644531 C 90.5 -72.453125 98.335938 -64.511719 108.308594 -58.828125 C 118.34375 -53.105469 129.636719 -50.246094 142.1875 -50.246094 Z M 142.1875 -34.664062 C 126.886719 -34.664062 113.019531 -38.203125 100.59375 -45.289062 C 88.105469 -52.40625 78.308594 -62.324219 71.199219 -75.042969 C 64.136719 -87.679688 60.605469 -101.976562 60.605469 -117.929688 C 60.605469 -133.882812 64.136719 -148.179688 71.199219 -160.816406 C 78.308594 -173.535156 88.105469 -183.453125 100.59375 -190.570312 C 113.019531 -197.652344 126.886719 -201.195312 142.1875 -201.195312 C 157.492188 -201.195312 171.355469 -197.652344 183.785156 -190.570312 C 196.273438 -183.453125 206.070312 -173.535156 213.175781 -160.816406 C 220.238281 -148.179688 223.769531 -133.882812 223.769531 -117.929688 C 223.769531 -101.976562 220.238281 -87.679688 213.175781 -75.042969 C 206.070312 -62.324219 196.273438 -52.40625 183.785156 -45.289062 C 171.355469 -38.203125 157.492188 -34.664062 142.1875 -34.664062 Z M 142.1875 -34.664062 "/></g></g></g><g fill="#172641" fill-opacity="1"><g transform="translate(562.162676, 326.990363)"><g/></g></g><g fill="#172641" fill-opacity="1"><g transform="translate(665.940115, 326.990363)"><g><path d="M 90.34375 -192.054688 L 90.34375 -129.722656 L 82.550781 -129.722656 L 82.550781 -137.515625 L 199.511719 -137.515625 L 199.511719 -78.128906 L 82.550781 -78.128906 L 82.550781 -85.917969 L 90.34375 -85.917969 L 90.34375 7.792969 L 20.175781 7.792969 L 20.175781 -243.648438 L 214 -243.648438 L 214 -184.265625 L 82.550781 -184.265625 L 82.550781 -192.054688 Z M 74.757812 -199.847656 L 206.207031 -199.847656 L 206.207031 -192.054688 L 198.414062 -192.054688 L 198.414062 -235.859375 L 206.207031 -235.859375 L 206.207031 -228.066406 L 27.964844 -228.066406 L 27.964844 -235.859375 L 35.757812 -235.859375 L 35.757812 0 L 27.964844 0 L 27.964844 -7.792969 L 82.550781 -7.792969 L 82.550781 0 L 74.757812 0 L 74.757812 -93.710938 L 191.71875 -93.710938 L 191.71875 -85.917969 L 183.925781 -85.917969 L 183.925781 -129.722656 L 191.71875 -129.722656 L 191.71875 -121.929688 L 74.757812 -121.929688 Z M 74.757812 -199.847656 "/></g></g></g><g fill="#172641" fill-opacity="1"><g transform="translate(889.667957, 326.990363)"><g><path d="M 20.175781 -243.648438 L 90.34375 -243.648438 L 90.34375 7.792969 L 20.175781 7.792969 Z M 35.757812 -228.066406 L 35.757812 -7.792969 L 74.757812 -7.792969 L 74.757812 -228.066406 Z M 35.757812 -228.066406 "/></g></g></g><g fill="#172641" fill-opacity="1"><g transform="translate(1008.607673, 326.990363)"><g><path d="M 76.824219 -183.589844 L -6.445312 -183.589844 L -6.445312 -243.648438 L 214.671875 -243.648438 L 214.671875 -183.589844 L 131.40625 -183.589844 L 131.40625 -191.382812 L 139.199219 -191.382812 L 139.199219 7.792969 L 69.03125 7.792969 L 69.03125 -191.382812 L 76.824219 -191.382812 Z M 84.613281 -199.171875 L 84.613281 0 L 76.824219 0 L 76.824219 -7.792969 L 131.40625 -7.792969 L 131.40625 0 L 123.613281 0 L 123.613281 -199.171875 L 206.882812 -199.171875 L 206.882812 -191.382812 L 199.089844 -191.382812 L 199.089844 -235.859375 L 206.882812 -235.859375 L 206.882812 -228.066406 L 1.347656 -228.066406 L 1.347656 -235.859375 L 9.140625 -235.859375 L 9.140625 -191.382812 L 1.347656 -191.382812 L 1.347656 -199.171875 Z M 84.613281 -199.171875 "/></g></g></g><g fill="#172641" fill-opacity="1"><g transform="translate(1.158549, 326.990363)"><g><path d="M 187.34375 -121.640625 L 237.203125 -121.640625 L 237.203125 -25.9375 C 224.398438 -16.28125 209.570312 -8.867188 192.71875 -3.703125 C 175.875 1.460938 158.914062 4.046875 141.84375 4.046875 C 117.363281 4.046875 95.351562 -1.175781 75.8125 -11.625 C 56.269531 -22.070312 40.9375 -36.5625 29.8125 -55.09375 C 18.695312 -73.625 13.140625 -94.566406 13.140625 -117.921875 C 13.140625 -141.285156 18.695312 -162.234375 29.8125 -180.765625 C 40.9375 -199.296875 56.378906 -213.785156 76.140625 -224.234375 C 95.910156 -234.679688 118.148438 -239.90625 142.859375 -239.90625 C 163.523438 -239.90625 182.28125 -236.421875 199.125 -229.453125 C 215.976562 -222.492188 230.128906 -212.382812 241.578125 -199.125 L 206.546875 -166.78125 C 189.691406 -184.53125 169.363281 -193.40625 145.5625 -193.40625 C 130.507812 -193.40625 117.140625 -190.257812 105.453125 -183.96875 C 93.773438 -177.675781 84.675781 -168.800781 78.15625 -157.34375 C 71.644531 -145.894531 68.390625 -132.753906 68.390625 -117.921875 C 68.390625 -103.328125 71.644531 -90.300781 78.15625 -78.84375 C 84.675781 -67.382812 93.71875 -58.453125 105.28125 -52.046875 C 116.851562 -45.648438 130.054688 -42.453125 144.890625 -42.453125 C 160.609375 -42.453125 174.757812 -45.820312 187.34375 -52.5625 Z M 187.34375 -121.640625 "/></g></g></g><g fill="#172641" fill-opacity="1"><g transform="translate(269.36233, 326.990363)"><g><path d="M 142.1875 4.046875 C 117.707031 4.046875 95.640625 -1.226562 75.984375 -11.78125 C 56.328125 -22.34375 40.9375 -36.890625 29.8125 -55.421875 C 18.695312 -73.953125 13.140625 -94.785156 13.140625 -117.921875 C 13.140625 -141.054688 18.695312 -161.890625 29.8125 -180.421875 C 40.9375 -198.960938 56.328125 -213.507812 75.984375 -224.0625 C 95.640625 -234.625 117.707031 -239.90625 142.1875 -239.90625 C 166.664062 -239.90625 188.675781 -234.625 208.21875 -224.0625 C 227.769531 -213.507812 243.160156 -198.960938 254.390625 -180.421875 C 265.617188 -161.890625 271.234375 -141.054688 271.234375 -117.921875 C 271.234375 -94.785156 265.617188 -73.953125 254.390625 -55.421875 C 243.160156 -36.890625 227.769531 -22.34375 208.21875 -11.78125 C 188.675781 -1.226562 166.664062 4.046875 142.1875 4.046875 Z M 142.1875 -42.453125 C 156.113281 -42.453125 168.691406 -45.648438 179.921875 -52.046875 C 191.148438 -58.453125 199.96875 -67.382812 206.375 -78.84375 C 212.78125 -90.300781 215.984375 -103.328125 215.984375 -117.921875 C 215.984375 -132.523438 212.78125 -145.554688 206.375 -157.015625 C 199.96875 -168.472656 191.148438 -177.398438 179.921875 -183.796875 C 168.691406 -190.203125 156.113281 -193.40625 142.1875 -193.40625 C 128.257812 -193.40625 115.679688 -190.203125 104.453125 -183.796875 C 93.222656 -177.398438 84.40625 -168.472656 78 -157.015625 C 71.59375 -145.554688 68.390625 -132.523438 68.390625 -117.921875 C 68.390625 -103.328125 71.59375 -90.300781 78 -78.84375 C 84.40625 -67.382812 93.222656 -58.453125 104.453125 -52.046875 C 115.679688 -45.648438 128.257812 -42.453125 142.1875 -42.453125 Z M 142.1875 -42.453125 "/></g></g></g><g fill="#172641" fill-opacity="1"><g transform="translate(562.162676, 326.990363)"><g/></g></g><g fill="#172641" fill-opacity="1"><g transform="translate(665.940115, 326.990363)"><g><path d="M 82.546875 -192.046875 L 82.546875 -129.71875 L 191.71875 -129.71875 L 191.71875 -85.921875 L 82.546875 -85.921875 L 82.546875 0 L 27.96875 0 L 27.96875 -235.859375 L 206.203125 -235.859375 L 206.203125 -192.046875 Z M 82.546875 -192.046875 "/></g></g></g><g fill="#172641" fill-opacity="1"><g transform="translate(889.667957, 326.990363)"><g><path d="M 27.96875 -235.859375 L 82.546875 -235.859375 L 82.546875 0 L 27.96875 0 Z M 27.96875 -235.859375 "/></g></g></g><g fill="#172641" fill-opacity="1"><g transform="translate(1008.607673, 326.990363)"><g><path d="M 76.828125 -191.375 L 1.34375 -191.375 L 1.34375 -235.859375 L 206.875 -235.859375 L 206.875 -191.375 L 131.40625 -191.375 L 131.40625 0 L 76.828125 0 Z M 76.828125 -191.375 "/></g></g></g></g></g></g><g clip-path="url(#1fa4297c85)"><g transform="matrix(1, 0, 0, 1, 296, 0.000000000000113687)"><g clip-path="url(#9c134b14d9)"><g fill="#d94147" fill-opacity="1"><g transform="translate(3.069667, 672.50339)"><g><path d="M 385.761719 -254.804688 L 492.78125 -254.804688 L 492.78125 -51.261719 L 491.058594 -49.960938 C 464.285156 -29.765625 433.3125 -14.273438 398.132812 -3.484375 C 363.027344 7.28125 327.683594 12.664062 292.097656 12.664062 C 240.953125 12.664062 194.945312 1.738281 154.0625 -20.113281 C 113.117188 -41.996094 80.992188 -72.363281 57.683594 -111.207031 C 34.375 -150.054688 22.722656 -193.929688 22.722656 -242.835938 C 22.722656 -291.742188 34.375 -335.617188 57.683594 -374.460938 C 80.996094 -413.3125 113.359375 -443.683594 154.777344 -465.566406 C 196.113281 -487.410156 242.582031 -498.332031 294.175781 -498.332031 C 337.304688 -498.332031 376.480469 -491.054688 411.699219 -476.496094 C 447.027344 -461.894531 476.707031 -440.691406 500.746094 -412.878906 L 503.492188 -409.707031 L 425.109375 -337.351562 L 422.164062 -340.453125 C 388.328125 -376.09375 347.515625 -393.914062 299.726562 -393.914062 C 269.464844 -393.914062 242.628906 -387.609375 219.21875 -375.003906 C 195.898438 -362.449219 177.738281 -344.734375 164.734375 -321.867188 C 151.699219 -298.941406 145.179688 -272.597656 145.179688 -242.835938 C 145.179688 -213.535156 151.699219 -187.421875 164.734375 -164.496094 C 177.746094 -141.613281 195.808594 -123.777344 218.917969 -110.988281 C 242.085938 -98.167969 268.558594 -91.757812 298.339844 -91.757812 C 329.992188 -91.757812 358.449219 -98.523438 383.714844 -112.058594 L 385.761719 -108.234375 L 381.425781 -108.234375 L 381.425781 -254.804688 Z M 385.761719 -246.128906 L 385.761719 -250.46875 L 390.097656 -250.46875 L 390.097656 -105.640625 L 387.808594 -104.414062 C 361.265625 -90.195312 331.445312 -83.085938 298.339844 -83.085938 C 267.066406 -83.085938 239.191406 -89.855469 214.71875 -103.398438 C 190.183594 -116.976562 171.011719 -135.914062 157.195312 -160.210938 C 143.402344 -184.464844 136.507812 -212.003906 136.507812 -242.835938 C 136.507812 -274.128906 143.402344 -301.902344 157.195312 -326.15625 C 171.019531 -350.46875 190.324219 -369.296875 215.109375 -382.640625 C 239.800781 -395.9375 268.007812 -402.585938 299.726562 -402.585938 C 350 -402.585938 392.90625 -383.867188 428.453125 -346.425781 L 425.308594 -343.4375 L 422.367188 -346.625 L 494.523438 -413.230469 L 497.464844 -410.042969 L 494.183594 -407.207031 C 471.042969 -433.980469 442.445312 -454.402344 408.386719 -468.480469 C 374.226562 -482.601562 336.15625 -489.660156 294.175781 -489.660156 C 244.015625 -489.660156 198.898438 -479.074219 158.828125 -457.898438 C 118.835938 -436.769531 87.601562 -407.46875 65.121094 -370 C 42.636719 -332.527344 31.394531 -290.140625 31.394531 -242.835938 C 31.394531 -195.53125 42.636719 -153.144531 65.121094 -115.667969 C 87.605469 -78.195312 118.617188 -48.890625 158.152344 -27.761719 C 197.753906 -6.59375 242.402344 3.988281 292.097656 3.988281 C 326.816406 3.988281 361.3125 -1.265625 395.589844 -11.777344 C 429.792969 -22.265625 459.875 -37.304688 485.835938 -56.886719 L 488.445312 -53.421875 L 484.109375 -53.421875 L 484.109375 -250.46875 L 488.445312 -250.46875 L 488.445312 -246.128906 Z M 385.761719 -246.128906 "/></g></g></g><g fill="#d94147" fill-opacity="1"><g transform="translate(3.069667, 672.50339)"><g><path d="M 385.765625 -250.46875 L 488.4375 -250.46875 L 488.4375 -53.421875 C 462.070312 -33.535156 431.546875 -18.269531 396.859375 -7.625 C 362.171875 3.007812 327.25 8.328125 292.09375 8.328125 C 241.675781 8.328125 196.347656 -2.425781 156.109375 -23.9375 C 115.867188 -45.445312 84.300781 -75.28125 61.40625 -113.4375 C 38.507812 -151.59375 27.0625 -194.722656 27.0625 -242.828125 C 27.0625 -290.929688 38.507812 -334.0625 61.40625 -372.21875 C 84.300781 -410.382812 116.097656 -440.222656 156.796875 -461.734375 C 197.503906 -483.242188 243.296875 -494 294.171875 -494 C 336.722656 -494 375.34375 -486.828125 410.03125 -472.484375 C 444.726562 -458.148438 473.875 -437.335938 497.46875 -410.046875 L 425.3125 -343.4375 C 390.613281 -379.976562 348.753906 -398.25 299.734375 -398.25 C 268.734375 -398.25 241.207031 -391.769531 217.15625 -378.8125 C 193.101562 -365.863281 174.367188 -347.59375 160.953125 -324 C 147.546875 -300.414062 140.84375 -273.359375 140.84375 -242.828125 C 140.84375 -212.765625 147.546875 -185.9375 160.953125 -162.34375 C 174.367188 -138.757812 192.988281 -120.375 216.8125 -107.1875 C 240.632812 -94.007812 267.8125 -87.421875 298.34375 -87.421875 C 330.71875 -87.421875 359.859375 -94.359375 385.765625 -108.234375 Z M 385.765625 -250.46875 "/></g></g></g></g></g></g><g clip-path="url(#b0ffd5ccc2)"><g transform="matrix(1, 0, 0, 1, 278, 376)"><g clip-path="url(#25831ab562)"><g clip-path="url(#f62c1fc9e6)"><path fill="#172641" d="M 0.285156 0.0664062 L 548.800781 0.0664062 L 548.800781 34.207031 L 0.285156 34.207031 Z M 0.285156 0.0664062 " fill-opacity="1" fill-rule="nonzero"/></g></g></g></g><path stroke-linecap="butt" transform="matrix(0.887579, 0, 0, 0.887579, 275.114626, 374.53129)" fill="none" stroke-linejoin="miter" d="M -0.00151555 2.499733 L 623.60074 2.499733 " stroke="#fefefe" stroke-width="5" stroke-opacity="1" stroke-miterlimit="4"/><path stroke-linecap="butt" transform="matrix(0.887579, 0, 0, 0.887579, 275.114626, 406.369433)" fill="none" stroke-linejoin="miter" d="M -0.00151555 2.501649 L 623.60074 2.501649 " stroke="#fefefe" stroke-width="5" stroke-opacity="1" stroke-miterlimit="4"/><g clip-path="url(#567a5b266e)"><path fill="#172641" d="M 173.007812 382.207031 L 173.007812 404.167969 C 173.007812 410.234375 177.945312 415.167969 184.007812 415.167969 L 199.1875 415.167969 L 199.1875 371.207031 L 184.007812 371.207031 C 177.945312 371.207031 173.007812 376.144531 173.007812 382.207031 " fill-opacity="1" fill-rule="nonzero"/></g><path fill="#172641" d="M 227.363281 304.382812 L 219.339844 304.382812 C 211.921875 304.382812 205.894531 310.375 205.894531 317.792969 L 205.894531 468.582031 C 205.894531 475.964844 211.921875 481.992188 219.339844 481.992188 L 227.363281 481.992188 C 234.785156 481.992188 240.8125 475.964844 240.8125 468.582031 L 240.8125 317.792969 C 240.8125 310.375 234.785156 304.382812 227.363281 304.382812 " fill-opacity="1" fill-rule="nonzero"/><g clip-path="url(#b7ef1a8b7a)"><path fill="#172641" d="M 281.195312 277.414062 L 260.964844 277.414062 C 253.542969 277.414062 247.519531 283.441406 247.519531 290.863281 L 247.519531 495.515625 C 247.519531 502.9375 253.542969 508.964844 260.964844 508.964844 L 281.195312 508.964844 C 288.578125 508.964844 294.605469 502.9375 294.605469 495.515625 L 294.605469 290.863281 C 294.605469 283.441406 288.578125 277.414062 281.195312 277.414062 " fill-opacity="1" fill-rule="nonzero"/></g><g clip-path="url(#5b385672a2)"><path fill="#172641" d="M 925.433594 371.207031 L 910.25 371.207031 L 910.25 415.167969 L 925.433594 415.167969 C 931.496094 415.167969 936.429688 410.234375 936.429688 404.167969 L 936.429688 382.207031 C 936.429688 376.144531 931.496094 371.207031 925.433594 371.207031 " fill-opacity="1" fill-rule="nonzero"/></g><path fill="#172641" d="M 890.136719 304.382812 L 882.039062 304.382812 C 874.65625 304.382812 868.628906 310.375 868.628906 317.792969 L 868.628906 468.582031 C 868.628906 475.964844 874.65625 481.992188 882.039062 481.992188 L 890.136719 481.992188 C 897.519531 481.992188 903.546875 475.964844 903.546875 468.582031 L 903.546875 317.792969 C 903.546875 310.375 897.519531 304.382812 890.136719 304.382812 " fill-opacity="1" fill-rule="nonzero"/><g clip-path="url(#9ec6b4801d)"><path fill="#172641" d="M 848.476562 277.414062 L 828.246094 277.414062 C 820.863281 277.414062 814.835938 283.441406 814.835938 290.863281 L 814.835938 495.515625 C 814.835938 502.9375 820.863281 508.964844 828.246094 508.964844 L 848.476562 508.964844 C 855.894531 508.964844 861.921875 502.9375 861.921875 495.515625 L 861.921875 290.863281 C 861.921875 283.441406 855.894531 277.414062 848.476562 277.414062 " fill-opacity="1" fill-rule="nonzero"/></g></g></g></svg>