<svg xmlns="http://www.w3.org/2000/svg" xmlns:xlink="http://www.w3.org/1999/xlink" width="2000" zoomAndPan="magnify" viewBox="0 0 1500 1499.999933" height="2000" preserveAspectRatio="xMidYMid meet" version="1.0"><defs><g/><clipPath id="6cdbbc13df"><path d="M 0.519531 662 L 1227.878906 662 L 1227.878906 1073.761719 L 0.519531 1073.761719 Z M 0.519531 662 " clip-rule="nonzero"/></clipPath><clipPath id="ac7cd167ea"><rect x="0" width="1228" y="0" height="412"/></clipPath><clipPath id="ca35179073"><rect x="0" width="557" y="0" height="848"/></clipPath><clipPath id="fe1027ace4"><path d="M 278.285156 375.589844 L 826.859375 375.589844 L 826.859375 409.730469 L 278.285156 409.730469 Z M 278.285156 375.589844 " clip-rule="nonzero"/></clipPath><clipPath id="eef4ab484b"><path d="M 0.285156 0.589844 L 548.859375 0.589844 L 548.859375 34.730469 L 0.285156 34.730469 Z M 0.285156 0.589844 " clip-rule="nonzero"/></clipPath><clipPath id="33038ae924"><rect x="0" width="549" y="0" height="35"/></clipPath><clipPath id="6f52730605"><path d="M 173.007812 370 L 200 370 L 200 415 L 173.007812 415 Z M 173.007812 370 " clip-rule="nonzero"/></clipPath><clipPath id="e81925dc5d"><path d="M 247 276.9375 L 295 276.9375 L 295 508.484375 L 247 508.484375 Z M 247 276.9375 " clip-rule="nonzero"/></clipPath><clipPath id="baa8c2e1dc"><path d="M 910 370 L 936.226562 370 L 936.226562 415 L 910 415 Z M 910 370 " clip-rule="nonzero"/></clipPath><clipPath id="b4f1b0f75d"><path d="M 814 276.9375 L 862 276.9375 L 862 508.484375 L 814 508.484375 Z M 814 276.9375 " clip-rule="nonzero"/></clipPath><clipPath id="349144bf6b"><rect x="0" width="1228" y="0" height="1074"/></clipPath></defs><g transform="matrix(1, 0, 0, 1, 149, 162)"><g clip-path="url(#349144bf6b)"><g clip-path="url(#6cdbbc13df)"><g transform="matrix(1, 0, 0, 1, 0, 662)"><g clip-path="url(#ac7cd167ea)"><g fill="#d94147" fill-opacity="1"><g transform="translate(1.157193, 326.893865)"><g><path d="M 187.339844 -129.429688 L 245 -129.429688 L 245 -22.0625 L 241.902344 -19.722656 C 228.367188 -9.515625 212.738281 -1.691406 195.015625 3.742188 C 177.425781 9.136719 159.703125 11.835938 141.855469 11.835938 C 116.066406 11.835938 92.828125 6.304688 72.140625 -4.753906 C 51.332031 -15.875 34.996094 -31.316406 23.136719 -51.082031 C 11.277344 -70.847656 5.347656 -93.128906 5.347656 -117.929688 C 5.347656 -142.730469 11.277344 -165.015625 23.136719 -184.78125 C 35.003906 -204.554688 51.460938 -220.003906 72.507812 -231.125 C 93.414062 -242.171875 116.867188 -247.695312 142.863281 -247.695312 C 164.5625 -247.695312 184.3125 -244.019531 202.109375 -236.660156 C 220.097656 -229.226562 235.222656 -218.414062 247.484375 -204.230469 L 252.417969 -198.523438 L 206.1875 -155.851562 L 200.894531 -161.421875 C 185.585938 -177.550781 167.140625 -185.613281 145.558594 -185.613281 C 131.820312 -185.613281 119.6875 -182.78125 109.15625 -177.113281 C 98.792969 -171.53125 90.722656 -163.660156 84.945312 -153.5 C 79.109375 -143.238281 76.191406 -131.382812 76.191406 -117.929688 C 76.191406 -104.703125 79.109375 -92.957031 84.945312 -82.695312 C 90.738281 -72.511719 98.777344 -64.570312 109.066406 -58.875 C 119.460938 -53.125 131.402344 -50.246094 144.886719 -50.246094 C 159.308594 -50.246094 172.230469 -53.308594 183.660156 -59.433594 L 187.339844 -52.5625 L 179.550781 -52.5625 L 179.550781 -129.429688 Z M 187.339844 -113.84375 L 187.339844 -121.636719 L 195.132812 -121.636719 L 195.132812 -47.898438 L 191.019531 -45.695312 C 177.292969 -38.339844 161.914062 -34.664062 144.886719 -34.664062 C 128.71875 -34.664062 114.265625 -38.1875 101.523438 -45.242188 C 88.675781 -52.351562 78.632812 -62.265625 71.398438 -74.992188 C 64.203125 -87.644531 60.609375 -101.957031 60.609375 -117.929688 C 60.609375 -134.128906 64.203125 -148.554688 71.398438 -161.203125 C 78.648438 -173.960938 88.773438 -183.835938 101.769531 -190.832031 C 114.605469 -197.742188 129.199219 -201.199219 145.558594 -201.199219 C 171.601562 -201.199219 193.816406 -191.515625 212.199219 -172.152344 L 206.546875 -166.789062 L 201.261719 -172.511719 L 236.304688 -204.859375 L 241.589844 -199.132812 L 235.695312 -194.039062 C 225.042969 -206.359375 211.867188 -215.765625 196.15625 -222.257812 C 180.265625 -228.828125 162.5 -232.113281 142.863281 -232.113281 C 119.445312 -232.113281 98.417969 -227.191406 79.789062 -217.347656 C 61.304688 -207.578125 46.875 -194.050781 36.5 -176.761719 C 26.121094 -159.464844 20.933594 -139.851562 20.933594 -117.929688 C 20.933594 -96.007812 26.121094 -76.398438 36.5 -59.097656 C 46.882812 -41.800781 61.210938 -28.265625 79.484375 -18.496094 C 97.882812 -8.664062 118.671875 -3.75 141.855469 -3.75 C 158.148438 -3.75 174.34375 -6.21875 190.449219 -11.15625 C 206.421875 -16.054688 220.441406 -23.058594 232.515625 -32.164062 L 237.210938 -25.945312 L 229.417969 -25.945312 L 229.417969 -121.636719 L 237.210938 -121.636719 L 237.210938 -113.84375 Z M 187.339844 -113.84375 "/></g></g></g><g fill="#d94147" fill-opacity="1"><g transform="translate(269.36502, 326.893865)"><g><path d="M 142.191406 11.835938 C 116.398438 11.835938 93.101562 6.246094 72.292969 -4.929688 C 51.378906 -16.164062 34.992188 -31.660156 23.136719 -51.417969 C 11.277344 -71.183594 5.347656 -93.355469 5.347656 -117.929688 C 5.347656 -142.507812 11.277344 -164.675781 23.136719 -184.441406 C 34.992188 -204.203125 51.378906 -219.699219 72.292969 -230.933594 C 93.101562 -242.109375 116.398438 -247.695312 142.191406 -247.695312 C 167.988281 -247.695312 191.238281 -242.105469 211.9375 -230.925781 C 232.71875 -219.695312 249.09375 -204.210938 261.058594 -184.472656 C 273.039062 -164.699219 279.03125 -142.519531 279.03125 -117.929688 C 279.03125 -93.34375 273.039062 -71.160156 261.058594 -51.390625 C 249.09375 -31.648438 232.71875 -16.167969 211.9375 -4.9375 C 191.238281 6.246094 167.988281 11.835938 142.191406 11.835938 Z M 142.191406 -3.75 C 165.363281 -3.75 186.140625 -8.714844 204.527344 -18.648438 C 222.828125 -28.535156 237.230469 -42.140625 247.730469 -59.464844 C 258.210938 -76.757812 263.449219 -96.246094 263.449219 -117.929688 C 263.449219 -139.617188 258.210938 -159.105469 247.730469 -176.394531 C 237.230469 -193.71875 222.828125 -207.328125 204.527344 -217.214844 C 186.140625 -227.144531 165.363281 -232.113281 142.191406 -232.113281 C 119.011719 -232.113281 98.171875 -227.144531 79.667969 -217.203125 C 61.273438 -207.324219 46.882812 -193.730469 36.5 -176.425781 C 26.121094 -159.128906 20.933594 -139.628906 20.933594 -117.929688 C 20.933594 -96.234375 26.121094 -76.734375 36.5 -59.4375 C 46.882812 -42.132812 61.273438 -28.539062 79.667969 -18.65625 C 98.171875 -8.71875 119.011719 -3.75 142.191406 -3.75 Z M 142.191406 -50.246094 C 154.742188 -50.246094 166.035156 -53.105469 176.070312 -58.828125 C 186.046875 -64.511719 193.878906 -72.453125 199.578125 -82.644531 C 205.320312 -92.921875 208.191406 -104.683594 208.191406 -117.929688 C 208.191406 -131.179688 205.320312 -142.941406 199.578125 -153.214844 C 193.878906 -163.410156 186.046875 -171.347656 176.070312 -177.035156 C 166.035156 -182.753906 154.742188 -185.613281 142.191406 -185.613281 C 129.640625 -185.613281 118.347656 -182.753906 108.3125 -177.035156 C 98.335938 -171.347656 90.5 -163.410156 84.804688 -153.214844 C 79.0625 -142.941406 76.191406 -131.179688 76.191406 -117.929688 C 76.191406 -104.683594 79.0625 -92.921875 84.804688 -82.644531 C 90.5 -72.453125 98.335938 -64.511719 108.3125 -58.828125 C 118.347656 -53.105469 129.640625 -50.246094 142.191406 -50.246094 Z M 142.191406 -34.664062 C 126.886719 -34.664062 113.023438 -38.203125 100.59375 -45.289062 C 88.105469 -52.40625 78.308594 -62.324219 71.199219 -75.042969 C 64.140625 -87.679688 60.609375 -101.976562 60.609375 -117.929688 C 60.609375 -133.882812 64.140625 -148.179688 71.199219 -160.816406 C 78.308594 -173.535156 88.105469 -183.453125 100.59375 -190.574219 C 113.023438 -197.65625 126.886719 -201.199219 142.191406 -201.199219 C 157.496094 -201.199219 171.359375 -197.65625 183.789062 -190.574219 C 196.273438 -183.453125 206.074219 -173.535156 213.179688 -160.816406 C 220.242188 -148.179688 223.773438 -133.882812 223.773438 -117.929688 C 223.773438 -101.976562 220.242188 -87.679688 213.179688 -75.042969 C 206.074219 -62.324219 196.273438 -52.40625 183.789062 -45.289062 C 171.359375 -38.203125 157.496094 -34.664062 142.191406 -34.664062 Z M 142.191406 -34.664062 "/></g></g></g><g fill="#d94147" fill-opacity="1"><g transform="translate(562.169865, 326.893865)"><g/></g></g><g fill="#d94147" fill-opacity="1"><g transform="translate(665.948787, 326.893865)"><g><path d="M 90.34375 -192.058594 L 90.34375 -129.722656 L 82.550781 -129.722656 L 82.550781 -137.515625 L 199.511719 -137.515625 L 199.511719 -78.128906 L 82.550781 -78.128906 L 82.550781 -85.921875 L 90.34375 -85.921875 L 90.34375 7.792969 L 20.175781 7.792969 L 20.175781 -243.652344 L 214.003906 -243.652344 L 214.003906 -184.265625 L 82.550781 -184.265625 L 82.550781 -192.058594 Z M 74.757812 -199.851562 L 206.210938 -199.851562 L 206.210938 -192.058594 L 198.417969 -192.058594 L 198.417969 -235.863281 L 206.210938 -235.863281 L 206.210938 -228.070312 L 27.964844 -228.070312 L 27.964844 -235.863281 L 35.757812 -235.863281 L 35.757812 0 L 27.964844 0 L 27.964844 -7.792969 L 82.550781 -7.792969 L 82.550781 0 L 74.757812 0 L 74.757812 -93.710938 L 191.722656 -93.710938 L 191.722656 -85.921875 L 183.929688 -85.921875 L 183.929688 -129.722656 L 191.722656 -129.722656 L 191.722656 -121.933594 L 74.757812 -121.933594 Z M 74.757812 -199.851562 "/></g></g></g><g fill="#d94147" fill-opacity="1"><g transform="translate(889.679931, 326.893865)"><g><path d="M 20.175781 -243.652344 L 90.34375 -243.652344 L 90.34375 7.792969 L 20.175781 7.792969 Z M 35.757812 -228.070312 L 35.757812 -7.792969 L 74.757812 -7.792969 L 74.757812 -228.070312 Z M 35.757812 -228.070312 "/></g></g></g><g fill="#d94147" fill-opacity="1"><g transform="translate(1008.621407, 326.893865)"><g><path d="M 76.824219 -183.59375 L -6.445312 -183.59375 L -6.445312 -243.652344 L 214.675781 -243.652344 L 214.675781 -183.59375 L 131.410156 -183.59375 L 131.410156 -191.386719 L 139.199219 -191.386719 L 139.199219 7.792969 L 69.03125 7.792969 L 69.03125 -191.386719 L 76.824219 -191.386719 Z M 84.617188 -199.175781 L 84.617188 0 L 76.824219 0 L 76.824219 -7.792969 L 131.410156 -7.792969 L 131.410156 0 L 123.617188 0 L 123.617188 -199.175781 L 206.882812 -199.175781 L 206.882812 -191.386719 L 199.09375 -191.386719 L 199.09375 -235.863281 L 206.882812 -235.863281 L 206.882812 -228.070312 L 1.347656 -228.070312 L 1.347656 -235.863281 L 9.140625 -235.863281 L 9.140625 -191.386719 L 1.347656 -191.386719 L 1.347656 -199.175781 Z M 84.617188 -199.175781 "/></g></g></g><g fill="#d94147" fill-opacity="1"><g transform="translate(1.157193, 326.893865)"><g><path d="M 187.34375 -121.640625 L 237.203125 -121.640625 L 237.203125 -25.9375 C 224.398438 -16.28125 209.570312 -8.867188 192.71875 -3.703125 C 175.875 1.460938 158.914062 4.046875 141.84375 4.046875 C 117.363281 4.046875 95.351562 -1.175781 75.8125 -11.625 C 56.269531 -22.070312 40.9375 -36.5625 29.8125 -55.09375 C 18.695312 -73.625 13.140625 -94.566406 13.140625 -117.921875 C 13.140625 -141.285156 18.695312 -162.234375 29.8125 -180.765625 C 40.9375 -199.296875 56.378906 -213.785156 76.140625 -224.234375 C 95.910156 -234.679688 118.148438 -239.90625 142.859375 -239.90625 C 163.523438 -239.90625 182.28125 -236.421875 199.125 -229.453125 C 215.976562 -222.492188 230.128906 -212.382812 241.578125 -199.125 L 206.546875 -166.78125 C 189.691406 -184.53125 169.363281 -193.40625 145.5625 -193.40625 C 130.507812 -193.40625 117.140625 -190.257812 105.453125 -183.96875 C 93.773438 -177.675781 84.675781 -168.800781 78.15625 -157.34375 C 71.644531 -145.894531 68.390625 -132.753906 68.390625 -117.921875 C 68.390625 -103.328125 71.644531 -90.300781 78.15625 -78.84375 C 84.675781 -67.382812 93.71875 -58.453125 105.28125 -52.046875 C 116.851562 -45.648438 130.054688 -42.453125 144.890625 -42.453125 C 160.609375 -42.453125 174.757812 -45.820312 187.34375 -52.5625 Z M 187.34375 -121.640625 "/></g></g></g><g fill="#d94147" fill-opacity="1"><g transform="translate(269.36502, 326.893865)"><g><path d="M 142.1875 4.046875 C 117.707031 4.046875 95.640625 -1.226562 75.984375 -11.78125 C 56.328125 -22.34375 40.9375 -36.890625 29.8125 -55.421875 C 18.695312 -73.953125 13.140625 -94.785156 13.140625 -117.921875 C 13.140625 -141.054688 18.695312 -161.890625 29.8125 -180.421875 C 40.9375 -198.960938 56.328125 -213.507812 75.984375 -224.0625 C 95.640625 -234.625 117.707031 -239.90625 142.1875 -239.90625 C 166.664062 -239.90625 188.675781 -234.625 208.21875 -224.0625 C 227.769531 -213.507812 243.160156 -198.960938 254.390625 -180.421875 C 265.617188 -161.890625 271.234375 -141.054688 271.234375 -117.921875 C 271.234375 -94.785156 265.617188 -73.953125 254.390625 -55.421875 C 243.160156 -36.890625 227.769531 -22.34375 208.21875 -11.78125 C 188.675781 -1.226562 166.664062 4.046875 142.1875 4.046875 Z M 142.1875 -42.453125 C 156.113281 -42.453125 168.691406 -45.648438 179.921875 -52.046875 C 191.148438 -58.453125 199.96875 -67.382812 206.375 -78.84375 C 212.78125 -90.300781 215.984375 -103.328125 215.984375 -117.921875 C 215.984375 -132.523438 212.78125 -145.554688 206.375 -157.015625 C 199.96875 -168.472656 191.148438 -177.398438 179.921875 -183.796875 C 168.691406 -190.203125 156.113281 -193.40625 142.1875 -193.40625 C 128.257812 -193.40625 115.679688 -190.203125 104.453125 -183.796875 C 93.222656 -177.398438 84.40625 -168.472656 78 -157.015625 C 71.59375 -145.554688 68.390625 -132.523438 68.390625 -117.921875 C 68.390625 -103.328125 71.59375 -90.300781 78 -78.84375 C 84.40625 -67.382812 93.222656 -58.453125 104.453125 -52.046875 C 115.679688 -45.648438 128.257812 -42.453125 142.1875 -42.453125 Z M 142.1875 -42.453125 "/></g></g></g><g fill="#d94147" fill-opacity="1"><g transform="translate(562.169865, 326.893865)"><g/></g></g><g fill="#d94147" fill-opacity="1"><g transform="translate(665.948787, 326.893865)"><g><path d="M 82.546875 -192.046875 L 82.546875 -129.71875 L 191.71875 -129.71875 L 191.71875 -85.921875 L 82.546875 -85.921875 L 82.546875 0 L 27.96875 0 L 27.96875 -235.859375 L 206.203125 -235.859375 L 206.203125 -192.046875 Z M 82.546875 -192.046875 "/></g></g></g><g fill="#d94147" fill-opacity="1"><g transform="translate(889.679931, 326.893865)"><g><path d="M 27.96875 -235.859375 L 82.546875 -235.859375 L 82.546875 0 L 27.96875 0 Z M 27.96875 -235.859375 "/></g></g></g><g fill="#d94147" fill-opacity="1"><g transform="translate(1008.621407, 326.893865)"><g><path d="M 76.828125 -191.375 L 1.34375 -191.375 L 1.34375 -235.859375 L 206.875 -235.859375 L 206.875 -191.375 L 131.40625 -191.375 L 131.40625 0 L 76.828125 0 Z M 76.828125 -191.375 "/></g></g></g></g></g></g><g transform="matrix(1, 0, 0, 1, 296, 0.000000000000113687)"><g clip-path="url(#ca35179073)"><g fill="#d94147" fill-opacity="1"><g transform="translate(3.069667, 672.025438)"><g><path d="M 385.761719 -254.804688 L 492.78125 -254.804688 L 492.78125 -51.261719 L 491.058594 -49.960938 C 464.285156 -29.765625 433.3125 -14.273438 398.132812 -3.484375 C 363.027344 7.28125 327.683594 12.664062 292.097656 12.664062 C 240.953125 12.664062 194.945312 1.738281 154.0625 -20.113281 C 113.117188 -41.996094 80.992188 -72.363281 57.683594 -111.207031 C 34.375 -150.054688 22.722656 -193.929688 22.722656 -242.835938 C 22.722656 -291.742188 34.375 -335.617188 57.683594 -374.460938 C 80.996094 -413.3125 113.359375 -443.683594 154.777344 -465.566406 C 196.113281 -487.410156 242.582031 -498.332031 294.175781 -498.332031 C 337.304688 -498.332031 376.480469 -491.054688 411.699219 -476.496094 C 447.027344 -461.894531 476.707031 -440.691406 500.746094 -412.878906 L 503.492188 -409.707031 L 425.109375 -337.351562 L 422.164062 -340.453125 C 388.328125 -376.09375 347.515625 -393.914062 299.726562 -393.914062 C 269.464844 -393.914062 242.628906 -387.609375 219.21875 -375.003906 C 195.898438 -362.449219 177.738281 -344.734375 164.734375 -321.867188 C 151.699219 -298.941406 145.179688 -272.597656 145.179688 -242.835938 C 145.179688 -213.535156 151.699219 -187.421875 164.734375 -164.496094 C 177.746094 -141.613281 195.808594 -123.777344 218.917969 -110.988281 C 242.085938 -98.167969 268.558594 -91.757812 298.339844 -91.757812 C 329.992188 -91.757812 358.449219 -98.523438 383.714844 -112.058594 L 385.761719 -108.234375 L 381.425781 -108.234375 L 381.425781 -254.804688 Z M 385.761719 -246.128906 L 385.761719 -250.46875 L 390.097656 -250.46875 L 390.097656 -105.640625 L 387.808594 -104.414062 C 361.265625 -90.195312 331.445312 -83.085938 298.339844 -83.085938 C 267.066406 -83.085938 239.191406 -89.855469 214.71875 -103.398438 C 190.183594 -116.976562 171.011719 -135.914062 157.195312 -160.210938 C 143.402344 -184.464844 136.507812 -212.003906 136.507812 -242.835938 C 136.507812 -274.128906 143.402344 -301.902344 157.195312 -326.15625 C 171.019531 -350.46875 190.324219 -369.296875 215.109375 -382.640625 C 239.800781 -395.9375 268.007812 -402.585938 299.726562 -402.585938 C 350 -402.585938 392.90625 -383.867188 428.453125 -346.425781 L 425.308594 -343.4375 L 422.367188 -346.625 L 494.523438 -413.230469 L 497.464844 -410.042969 L 494.183594 -407.207031 C 471.042969 -433.980469 442.445312 -454.402344 408.386719 -468.480469 C 374.226562 -482.601562 336.15625 -489.660156 294.175781 -489.660156 C 244.015625 -489.660156 198.898438 -479.074219 158.828125 -457.898438 C 118.835938 -436.769531 87.601562 -407.46875 65.121094 -370 C 42.636719 -332.527344 31.394531 -290.140625 31.394531 -242.835938 C 31.394531 -195.53125 42.636719 -153.144531 65.121094 -115.667969 C 87.605469 -78.195312 118.617188 -48.890625 158.152344 -27.761719 C 197.753906 -6.59375 242.402344 3.988281 292.097656 3.988281 C 326.816406 3.988281 361.3125 -1.265625 395.589844 -11.777344 C 429.792969 -22.265625 459.875 -37.304688 485.835938 -56.886719 L 488.445312 -53.421875 L 484.109375 -53.421875 L 484.109375 -250.46875 L 488.445312 -250.46875 L 488.445312 -246.128906 Z M 385.761719 -246.128906 "/></g></g></g><g fill="#d94147" fill-opacity="1"><g transform="translate(3.069667, 672.025438)"><g><path d="M 385.765625 -250.46875 L 488.4375 -250.46875 L 488.4375 -53.421875 C 462.070312 -33.535156 431.546875 -18.269531 396.859375 -7.625 C 362.171875 3.007812 327.25 8.328125 292.09375 8.328125 C 241.675781 8.328125 196.347656 -2.425781 156.109375 -23.9375 C 115.867188 -45.445312 84.300781 -75.28125 61.40625 -113.4375 C 38.507812 -151.59375 27.0625 -194.722656 27.0625 -242.828125 C 27.0625 -290.929688 38.507812 -334.0625 61.40625 -372.21875 C 84.300781 -410.382812 116.097656 -440.222656 156.796875 -461.734375 C 197.503906 -483.242188 243.296875 -494 294.171875 -494 C 336.722656 -494 375.34375 -486.828125 410.03125 -472.484375 C 444.726562 -458.148438 473.875 -437.335938 497.46875 -410.046875 L 425.3125 -343.4375 C 390.613281 -379.976562 348.753906 -398.25 299.734375 -398.25 C 268.734375 -398.25 241.207031 -391.769531 217.15625 -378.8125 C 193.101562 -365.863281 174.367188 -347.59375 160.953125 -324 C 147.546875 -300.414062 140.84375 -273.359375 140.84375 -242.828125 C 140.84375 -212.765625 147.546875 -185.9375 160.953125 -162.34375 C 174.367188 -138.757812 192.988281 -120.375 216.8125 -107.1875 C 240.632812 -94.007812 267.8125 -87.421875 298.34375 -87.421875 C 330.71875 -87.421875 359.859375 -94.359375 385.765625 -108.234375 Z M 385.765625 -250.46875 "/></g></g></g></g></g><g clip-path="url(#fe1027ace4)"><g transform="matrix(1, 0, 0, 1, 278, 375)"><g clip-path="url(#33038ae924)"><g clip-path="url(#eef4ab484b)"><path fill="#172641" d="M 0.285156 0.589844 L 548.800781 0.589844 L 548.800781 34.730469 L 0.285156 34.730469 Z M 0.285156 0.589844 " fill-opacity="1" fill-rule="nonzero"/></g></g></g></g><path stroke-linecap="butt" transform="matrix(0.887579, 0, 0, 0.887579, 275.114626, 374.053292)" fill="none" stroke-linejoin="miter" d="M -0.00151555 2.50135 L 623.60074 2.50135 " stroke="#fefefe" stroke-width="5" stroke-opacity="1" stroke-miterlimit="4"/><path stroke-linecap="butt" transform="matrix(0.887579, 0, 0, 0.887579, 275.114626, 405.891483)" fill="none" stroke-linejoin="miter" d="M -0.00151555 2.498811 L 623.60074 2.498811 " stroke="#fefefe" stroke-width="5" stroke-opacity="1" stroke-miterlimit="4"/><g clip-path="url(#6f52730605)"><path fill="#172641" d="M 173.007812 381.730469 L 173.007812 403.691406 C 173.007812 409.753906 177.945312 414.691406 184.007812 414.691406 L 199.1875 414.691406 L 199.1875 370.730469 L 184.007812 370.730469 C 177.945312 370.730469 173.007812 375.664062 173.007812 381.730469 " fill-opacity="1" fill-rule="nonzero"/></g><path fill="#172641" d="M 227.363281 303.90625 L 219.339844 303.90625 C 211.921875 303.90625 205.894531 309.894531 205.894531 317.316406 L 205.894531 468.105469 C 205.894531 475.488281 211.921875 481.515625 219.339844 481.515625 L 227.363281 481.515625 C 234.785156 481.515625 240.8125 475.488281 240.8125 468.105469 L 240.8125 317.316406 C 240.8125 309.894531 234.785156 303.90625 227.363281 303.90625 " fill-opacity="1" fill-rule="nonzero"/><g clip-path="url(#e81925dc5d)"><path fill="#172641" d="M 281.195312 276.9375 L 260.964844 276.9375 C 253.542969 276.9375 247.519531 282.964844 247.519531 290.382812 L 247.519531 495.039062 C 247.519531 502.457031 253.542969 508.484375 260.964844 508.484375 L 281.195312 508.484375 C 288.578125 508.484375 294.605469 502.457031 294.605469 495.039062 L 294.605469 290.382812 C 294.605469 282.964844 288.578125 276.9375 281.195312 276.9375 " fill-opacity="1" fill-rule="nonzero"/></g><g clip-path="url(#baa8c2e1dc)"><path fill="#172641" d="M 925.433594 370.730469 L 910.25 370.730469 L 910.25 414.691406 L 925.433594 414.691406 C 931.496094 414.691406 936.429688 409.753906 936.429688 403.691406 L 936.429688 381.730469 C 936.429688 375.664062 931.496094 370.730469 925.433594 370.730469 " fill-opacity="1" fill-rule="nonzero"/></g><path fill="#172641" d="M 890.136719 303.90625 L 882.039062 303.90625 C 874.65625 303.90625 868.628906 309.894531 868.628906 317.316406 L 868.628906 468.105469 C 868.628906 475.488281 874.65625 481.515625 882.039062 481.515625 L 890.136719 481.515625 C 897.519531 481.515625 903.546875 475.488281 903.546875 468.105469 L 903.546875 317.316406 C 903.546875 309.894531 897.519531 303.90625 890.136719 303.90625 " fill-opacity="1" fill-rule="nonzero"/><g clip-path="url(#b4f1b0f75d)"><path fill="#172641" d="M 848.476562 276.9375 L 828.246094 276.9375 C 820.863281 276.9375 814.835938 282.964844 814.835938 290.382812 L 814.835938 495.039062 C 814.835938 502.457031 820.863281 508.484375 828.246094 508.484375 L 848.476562 508.484375 C 855.894531 508.484375 861.921875 502.457031 861.921875 495.039062 L 861.921875 290.382812 C 861.921875 282.964844 855.894531 276.9375 848.476562 276.9375 " fill-opacity="1" fill-rule="nonzero"/></g></g></g></svg>