<svg xmlns="http://www.w3.org/2000/svg" xmlns:xlink="http://www.w3.org/1999/xlink" width="2000" zoomAndPan="magnify" viewBox="0 0 1500 1499.999933" height="2000" preserveAspectRatio="xMidYMid meet" version="1.0"><defs><g/><clipPath id="3eb481242b"><path d="M 297 0.121094 L 853 0.121094 L 853 848 L 297 848 Z M 297 0.121094 " clip-rule="nonzero"/></clipPath><clipPath id="4c6ff4c4f0"><rect x="0" width="556" y="0" height="848"/></clipPath><clipPath id="e7aedb93bc"><path d="M 0.519531 662 L 1228.121094 662 L 1228.121094 1073.878906 L 0.519531 1073.878906 Z M 0.519531 662 " clip-rule="nonzero"/></clipPath><clipPath id="9b515cb3e0"><rect x="0" width="1229" y="0" height="412"/></clipPath><clipPath id="413bf854dc"><path d="M 278.328125 378.433594 L 826.964844 378.433594 L 826.964844 412.578125 L 278.328125 412.578125 Z M 278.328125 378.433594 " clip-rule="nonzero"/></clipPath><clipPath id="725b61e9b2"><path d="M 0.328125 0.433594 L 548.964844 0.433594 L 548.964844 34.578125 L 0.328125 34.578125 Z M 0.328125 0.433594 " clip-rule="nonzero"/></clipPath><clipPath id="f398651efe"><rect x="0" width="549" y="0" height="35"/></clipPath><clipPath id="c037512b4d"><path d="M 173.039062 373 L 200 373 L 200 418 L 173.039062 418 Z M 173.039062 373 " clip-rule="nonzero"/></clipPath><clipPath id="f5bf84a275"><path d="M 247 279.773438 L 295 279.773438 L 295 511.347656 L 247 511.347656 Z M 247 279.773438 " clip-rule="nonzero"/></clipPath><clipPath id="c9bc47a517"><path d="M 910 373 L 936.339844 373 L 936.339844 418 L 910 418 Z M 910 373 " clip-rule="nonzero"/></clipPath><clipPath id="f47a9e8681"><path d="M 814 279.773438 L 863 279.773438 L 863 511.347656 L 814 511.347656 Z M 814 279.773438 " clip-rule="nonzero"/></clipPath><clipPath id="ee53c19b7b"><rect x="0" width="1229" y="0" height="1074"/></clipPath></defs><g transform="matrix(1, 0, 0, 1, 149, 117)"><g clip-path="url(#ee53c19b7b)"><g clip-path="url(#3eb481242b)"><g transform="matrix(1, 0, 0, 1, 297, 0.000000000000113687)"><g clip-path="url(#4c6ff4c4f0)"><g fill="#172641" fill-opacity="1"><g transform="translate(2.117061, 672.098445)"><g><path d="M 385.800781 -254.832031 L 492.835938 -254.832031 L 492.835938 -51.269531 L 491.109375 -49.96875 C 464.335938 -29.769531 433.355469 -14.277344 398.175781 -3.488281 C 363.066406 7.28125 327.71875 12.664062 292.128906 12.664062 C 240.980469 12.664062 194.964844 1.738281 154.082031 -20.113281 C 113.128906 -42 81 -72.371094 57.691406 -111.21875 C 34.378906 -150.070312 22.726562 -193.949219 22.726562 -242.859375 C 22.726562 -291.769531 34.378906 -335.652344 57.691406 -374.503906 C 81.003906 -413.359375 113.371094 -443.730469 154.792969 -465.617188 C 196.132812 -487.460938 242.605469 -498.386719 294.207031 -498.386719 C 337.339844 -498.386719 376.519531 -491.105469 411.746094 -476.546875 C 447.074219 -461.945312 476.757812 -440.734375 500.800781 -412.925781 L 503.542969 -409.75 L 425.152344 -337.386719 L 422.207031 -340.488281 C 388.367188 -376.132812 347.554688 -393.953125 299.761719 -393.953125 C 269.496094 -393.953125 242.65625 -387.652344 219.242188 -375.042969 C 195.921875 -362.484375 177.757812 -344.773438 164.753906 -321.902344 C 151.714844 -298.972656 145.195312 -272.628906 145.195312 -242.859375 C 145.195312 -213.558594 151.714844 -187.441406 164.753906 -164.511719 C 177.765625 -141.628906 195.828125 -123.789062 218.941406 -111 C 242.109375 -98.179688 268.585938 -91.765625 298.371094 -91.765625 C 330.027344 -91.765625 358.488281 -98.535156 383.753906 -112.070312 L 385.800781 -108.246094 L 381.464844 -108.246094 L 381.464844 -254.832031 Z M 385.800781 -246.15625 L 385.800781 -250.492188 L 390.140625 -250.492188 L 390.140625 -105.648438 L 387.851562 -104.421875 C 361.304688 -90.203125 331.480469 -83.09375 298.371094 -83.09375 C 267.09375 -83.09375 239.21875 -89.867188 214.738281 -103.410156 C 190.207031 -116.988281 171.027344 -135.925781 157.210938 -160.226562 C 143.417969 -184.484375 136.523438 -212.027344 136.523438 -242.859375 C 136.523438 -274.15625 143.417969 -301.933594 157.210938 -326.191406 C 171.039062 -350.503906 190.34375 -369.335938 215.132812 -382.679688 C 239.828125 -395.980469 268.039062 -402.628906 299.761719 -402.628906 C 350.035156 -402.628906 392.949219 -383.90625 428.5 -346.460938 L 425.355469 -343.476562 L 422.410156 -346.660156 L 494.578125 -413.273438 L 497.519531 -410.089844 L 494.238281 -407.25 C 471.09375 -434.027344 442.492188 -454.453125 408.429688 -468.53125 C 374.265625 -482.652344 336.191406 -489.710938 294.207031 -489.710938 C 244.039062 -489.710938 198.917969 -479.125 158.84375 -457.949219 C 118.851562 -436.816406 87.609375 -407.511719 65.128906 -370.039062 C 42.640625 -332.5625 31.398438 -290.167969 31.398438 -242.859375 C 31.398438 -195.550781 42.640625 -153.160156 65.128906 -115.683594 C 87.613281 -78.203125 118.628906 -48.898438 158.167969 -27.765625 C 197.777344 -6.59375 242.429688 3.988281 292.128906 3.988281 C 326.851562 3.988281 361.351562 -1.265625 395.632812 -11.777344 C 429.839844 -22.269531 459.925781 -37.308594 485.886719 -56.890625 L 488.496094 -53.429688 L 484.160156 -53.429688 L 484.160156 -250.492188 L 488.496094 -250.492188 L 488.496094 -246.15625 Z M 385.800781 -246.15625 "/></g></g></g><g fill="#172641" fill-opacity="1"><g transform="translate(2.117061, 672.098445)"><g><path d="M 385.796875 -250.5 L 488.5 -250.5 L 488.5 -53.421875 C 462.132812 -33.535156 431.601562 -18.269531 396.90625 -7.625 C 362.207031 3.007812 327.28125 8.328125 292.125 8.328125 C 241.707031 8.328125 196.375 -2.425781 156.125 -23.9375 C 115.875 -45.445312 84.300781 -75.285156 61.40625 -113.453125 C 38.507812 -151.617188 27.0625 -194.753906 27.0625 -242.859375 C 27.0625 -290.972656 38.507812 -334.109375 61.40625 -372.265625 C 84.300781 -410.429688 116.101562 -440.269531 156.8125 -461.78125 C 197.519531 -483.289062 243.316406 -494.046875 294.203125 -494.046875 C 336.765625 -494.046875 375.390625 -486.875 410.078125 -472.53125 C 444.773438 -458.195312 473.921875 -437.382812 497.515625 -410.09375 L 425.359375 -343.46875 C 390.660156 -380.019531 348.796875 -398.296875 299.765625 -398.296875 C 268.765625 -398.296875 241.238281 -391.816406 217.1875 -378.859375 C 193.132812 -365.910156 174.398438 -347.640625 160.984375 -324.046875 C 147.566406 -300.453125 140.859375 -273.390625 140.859375 -242.859375 C 140.859375 -212.796875 147.566406 -185.96875 160.984375 -162.375 C 174.398438 -138.78125 193.019531 -120.390625 216.84375 -107.203125 C 240.664062 -94.023438 267.84375 -87.4375 298.375 -87.4375 C 330.75 -87.4375 359.890625 -94.375 385.796875 -108.25 Z M 385.796875 -250.5 "/></g></g></g></g></g></g><g clip-path="url(#e7aedb93bc)"><g transform="matrix(1, 0, 0, 1, 0, 662)"><g clip-path="url(#9b515cb3e0)"><g fill="#172641" fill-opacity="1"><g transform="translate(1.174428, 326.618799)"><g><path d="M 187.359375 -129.441406 L 245.023438 -129.441406 L 245.023438 -22.0625 L 241.921875 -19.726562 C 228.386719 -9.515625 212.757812 -1.691406 195.035156 3.742188 C 177.441406 9.140625 159.71875 11.835938 141.867188 11.835938 C 116.078125 11.835938 92.839844 6.304688 72.144531 -4.753906 C 51.335938 -15.875 35 -31.320312 23.140625 -51.085938 C 11.28125 -70.855469 5.347656 -93.140625 5.347656 -117.941406 C 5.347656 -142.742188 11.28125 -165.027344 23.140625 -184.796875 C 35.007812 -204.574219 51.464844 -220.023438 72.515625 -231.148438 C 93.425781 -242.195312 116.878906 -247.71875 142.878906 -247.71875 C 164.578125 -247.71875 184.328125 -244.039062 202.128906 -236.683594 C 220.117188 -229.246094 235.242188 -218.4375 247.507812 -204.25 L 252.4375 -198.542969 L 206.207031 -155.863281 L 200.914062 -161.4375 C 185.601562 -177.566406 167.15625 -185.632812 145.574219 -185.632812 C 131.832031 -185.632812 119.695312 -182.796875 109.167969 -177.128906 C 98.800781 -171.546875 90.730469 -163.675781 84.953125 -153.515625 C 79.117188 -143.253906 76.199219 -131.394531 76.199219 -117.941406 C 76.199219 -104.714844 79.117188 -92.96875 84.953125 -82.703125 C 90.746094 -72.515625 98.785156 -64.574219 109.078125 -58.882812 C 119.472656 -53.128906 131.414062 -50.25 144.898438 -50.25 C 159.320312 -50.25 172.246094 -53.3125 183.679688 -59.4375 L 187.359375 -52.566406 L 179.566406 -52.566406 L 179.566406 -129.441406 Z M 187.359375 -113.855469 L 187.359375 -121.648438 L 195.152344 -121.648438 L 195.152344 -47.902344 L 191.039062 -45.699219 C 177.308594 -38.34375 161.929688 -34.667969 144.898438 -34.667969 C 128.730469 -34.667969 114.273438 -38.191406 101.53125 -45.246094 C 88.683594 -52.355469 78.640625 -62.273438 71.402344 -75 C 64.210938 -87.652344 60.613281 -101.964844 60.613281 -117.941406 C 60.613281 -134.140625 64.210938 -148.566406 71.402344 -161.21875 C 78.65625 -173.976562 88.78125 -183.851562 101.777344 -190.851562 C 114.613281 -197.761719 129.210938 -201.214844 145.574219 -201.214844 C 171.617188 -201.214844 193.832031 -191.535156 212.21875 -172.167969 L 206.566406 -166.804688 L 201.28125 -172.527344 L 236.324219 -204.878906 L 241.613281 -199.152344 L 235.714844 -194.054688 C 225.066406 -206.378906 211.886719 -215.785156 196.175781 -222.277344 C 180.28125 -228.847656 162.515625 -232.132812 142.878906 -232.132812 C 119.453125 -232.132812 98.425781 -227.210938 79.796875 -217.367188 C 61.308594 -207.597656 46.878906 -194.070312 36.503906 -176.777344 C 26.125 -159.476562 20.933594 -139.867188 20.933594 -117.941406 C 20.933594 -96.015625 26.125 -76.40625 36.503906 -59.105469 C 46.886719 -41.804688 61.214844 -28.265625 79.492188 -18.5 C 97.890625 -8.664062 118.679688 -3.75 141.867188 -3.75 C 158.160156 -3.75 174.359375 -6.21875 190.464844 -11.15625 C 206.4375 -16.054688 220.464844 -23.058594 232.539062 -32.167969 L 237.230469 -25.945312 L 229.4375 -25.945312 L 229.4375 -121.648438 L 237.230469 -121.648438 L 237.230469 -113.855469 Z M 187.359375 -113.855469 "/></g></g></g><g fill="#172641" fill-opacity="1"><g transform="translate(269.406582, 326.618799)"><g><path d="M 142.203125 11.835938 C 116.410156 11.835938 93.109375 6.246094 72.300781 -4.929688 C 51.382812 -16.164062 34.996094 -31.664062 23.140625 -51.421875 C 11.28125 -71.191406 5.347656 -93.363281 5.347656 -117.941406 C 5.347656 -142.519531 11.28125 -164.691406 23.140625 -184.460938 C 34.996094 -204.21875 51.382812 -219.71875 72.300781 -230.953125 C 93.109375 -242.128906 116.410156 -247.71875 142.203125 -247.71875 C 168.003906 -247.71875 191.253906 -242.128906 211.953125 -230.945312 C 232.742188 -219.714844 249.117188 -204.230469 261.082031 -184.488281 C 273.066406 -164.714844 279.058594 -142.53125 279.058594 -117.941406 C 279.058594 -93.351562 273.066406 -71.167969 261.082031 -51.394531 C 249.117188 -31.652344 232.742188 -16.167969 211.953125 -4.9375 C 191.253906 6.246094 168.003906 11.835938 142.203125 11.835938 Z M 142.203125 -3.75 C 165.375 -3.75 186.15625 -8.714844 204.546875 -18.648438 C 222.847656 -28.539062 237.25 -42.144531 247.753906 -59.472656 C 258.230469 -76.765625 263.472656 -96.253906 263.472656 -117.941406 C 263.472656 -139.628906 258.230469 -159.117188 247.753906 -176.410156 C 237.25 -193.738281 222.847656 -207.34375 204.546875 -217.234375 C 186.15625 -227.167969 165.375 -232.132812 142.203125 -232.132812 C 119.023438 -232.132812 98.179688 -227.164062 79.675781 -217.222656 C 61.277344 -207.34375 46.886719 -193.746094 36.503906 -176.441406 C 26.125 -159.140625 20.933594 -139.640625 20.933594 -117.941406 C 20.933594 -96.242188 26.125 -76.742188 36.503906 -59.441406 C 46.886719 -42.136719 61.277344 -28.539062 79.675781 -18.660156 C 98.179688 -8.71875 119.023438 -3.75 142.203125 -3.75 Z M 142.203125 -50.25 C 154.753906 -50.25 166.050781 -53.113281 176.085938 -58.832031 C 186.0625 -64.519531 193.898438 -72.460938 199.59375 -82.652344 C 205.335938 -92.929688 208.207031 -104.691406 208.207031 -117.941406 C 208.207031 -131.191406 205.335938 -142.953125 199.59375 -153.230469 C 193.898438 -163.421875 186.0625 -171.363281 176.085938 -177.050781 C 166.050781 -182.769531 154.753906 -185.632812 142.203125 -185.632812 C 129.652344 -185.632812 118.359375 -182.769531 108.320312 -177.050781 C 98.34375 -171.363281 90.507812 -163.421875 84.8125 -153.230469 C 79.070312 -142.953125 76.199219 -131.191406 76.199219 -117.941406 C 76.199219 -104.691406 79.070312 -92.929688 84.8125 -82.652344 C 90.507812 -72.460938 98.34375 -64.519531 108.320312 -58.832031 C 118.359375 -53.113281 129.652344 -50.25 142.203125 -50.25 Z M 142.203125 -34.667969 C 126.898438 -34.667969 113.03125 -38.207031 100.601562 -45.292969 C 88.113281 -52.410156 78.316406 -62.332031 71.207031 -75.050781 C 64.144531 -87.6875 60.613281 -101.984375 60.613281 -117.941406 C 60.613281 -133.898438 64.144531 -148.195312 71.207031 -160.832031 C 78.316406 -173.550781 88.113281 -183.472656 100.601562 -190.589844 C 113.03125 -197.675781 126.898438 -201.214844 142.203125 -201.214844 C 157.507812 -201.214844 171.375 -197.675781 183.804688 -190.589844 C 196.292969 -183.472656 206.09375 -173.550781 213.199219 -160.832031 C 220.261719 -148.195312 223.792969 -133.898438 223.792969 -117.941406 C 223.792969 -101.984375 220.261719 -87.6875 213.199219 -75.050781 C 206.09375 -62.332031 196.292969 -52.410156 183.804688 -45.292969 C 171.375 -38.207031 157.507812 -34.667969 142.203125 -34.667969 Z M 142.203125 -34.667969 "/></g></g></g><g fill="#172641" fill-opacity="1"><g transform="translate(562.237902, 326.618799)"><g/></g></g><g fill="#172641" fill-opacity="1"><g transform="translate(666.02632, 326.618799)"><g><path d="M 90.351562 -192.074219 L 90.351562 -129.734375 L 82.558594 -129.734375 L 82.558594 -137.527344 L 199.53125 -137.527344 L 199.53125 -78.136719 L 82.558594 -78.136719 L 82.558594 -85.929688 L 90.351562 -85.929688 L 90.351562 7.792969 L 20.175781 7.792969 L 20.175781 -243.675781 L 214.023438 -243.675781 L 214.023438 -184.285156 L 82.558594 -184.285156 L 82.558594 -192.074219 Z M 74.765625 -199.867188 L 206.230469 -199.867188 L 206.230469 -192.074219 L 198.4375 -192.074219 L 198.4375 -235.882812 L 206.230469 -235.882812 L 206.230469 -228.089844 L 27.96875 -228.089844 L 27.96875 -235.882812 L 35.761719 -235.882812 L 35.761719 0 L 27.96875 0 L 27.96875 -7.792969 L 82.558594 -7.792969 L 82.558594 0 L 74.765625 0 L 74.765625 -93.722656 L 191.738281 -93.722656 L 191.738281 -85.929688 L 183.945312 -85.929688 L 183.945312 -129.734375 L 191.738281 -129.734375 L 191.738281 -121.941406 L 74.765625 -121.941406 Z M 74.765625 -199.867188 "/></g></g></g><g fill="#172641" fill-opacity="1"><g transform="translate(889.77783, 326.618799)"><g><path d="M 20.175781 -243.675781 L 90.351562 -243.675781 L 90.351562 7.792969 L 20.175781 7.792969 Z M 35.761719 -228.089844 L 35.761719 -7.792969 L 74.765625 -7.792969 L 74.765625 -228.089844 Z M 35.761719 -228.089844 "/></g></g></g><g fill="#172641" fill-opacity="1"><g transform="translate(1008.730128, 326.618799)"><g><path d="M 76.832031 -183.609375 L -6.445312 -183.609375 L -6.445312 -243.675781 L 214.695312 -243.675781 L 214.695312 -183.609375 L 131.421875 -183.609375 L 131.421875 -191.402344 L 139.214844 -191.402344 L 139.214844 7.792969 L 69.039062 7.792969 L 69.039062 -191.402344 L 76.832031 -191.402344 Z M 84.625 -199.195312 L 84.625 0 L 76.832031 0 L 76.832031 -7.792969 L 131.421875 -7.792969 L 131.421875 0 L 123.628906 0 L 123.628906 -199.195312 L 206.902344 -199.195312 L 206.902344 -191.402344 L 199.109375 -191.402344 L 199.109375 -235.882812 L 206.902344 -235.882812 L 206.902344 -228.089844 L 1.347656 -228.089844 L 1.347656 -235.882812 L 9.140625 -235.882812 L 9.140625 -191.402344 L 1.347656 -191.402344 L 1.347656 -199.195312 Z M 84.625 -199.195312 "/></g></g></g><g fill="#172641" fill-opacity="1"><g transform="translate(1.174428, 326.618799)"><g><path d="M 187.359375 -121.640625 L 237.21875 -121.640625 L 237.21875 -25.953125 C 224.414062 -16.285156 209.585938 -8.867188 192.734375 -3.703125 C 175.890625 1.460938 158.929688 4.046875 141.859375 4.046875 C 117.378906 4.046875 95.363281 -1.175781 75.8125 -11.625 C 56.269531 -22.070312 40.9375 -36.5625 29.8125 -55.09375 C 18.695312 -73.625 13.140625 -94.570312 13.140625 -117.9375 C 13.140625 -141.300781 18.695312 -162.25 29.8125 -180.78125 C 40.9375 -199.3125 56.382812 -213.800781 76.15625 -224.25 C 95.925781 -234.695312 118.164062 -239.921875 142.875 -239.921875 C 163.539062 -239.921875 182.296875 -236.4375 199.140625 -229.46875 C 215.992188 -222.507812 230.148438 -212.40625 241.609375 -199.15625 L 206.5625 -166.796875 C 189.71875 -184.546875 169.390625 -193.421875 145.578125 -193.421875 C 130.523438 -193.421875 117.15625 -190.273438 105.46875 -183.984375 C 93.789062 -177.691406 84.691406 -168.816406 78.171875 -157.359375 C 71.660156 -145.898438 68.40625 -132.757812 68.40625 -117.9375 C 68.40625 -103.332031 71.660156 -90.300781 78.171875 -78.84375 C 84.691406 -67.394531 93.734375 -58.46875 105.296875 -52.0625 C 116.867188 -45.65625 130.066406 -42.453125 144.890625 -42.453125 C 160.617188 -42.453125 174.773438 -45.820312 187.359375 -52.5625 Z M 187.359375 -121.640625 "/></g></g></g><g fill="#172641" fill-opacity="1"><g transform="translate(269.406582, 326.618799)"><g><path d="M 142.203125 4.046875 C 117.710938 4.046875 95.640625 -1.226562 75.984375 -11.78125 C 56.328125 -22.34375 40.9375 -36.890625 29.8125 -55.421875 C 18.695312 -73.960938 13.140625 -94.800781 13.140625 -117.9375 C 13.140625 -141.070312 18.695312 -161.90625 29.8125 -180.4375 C 40.9375 -198.976562 56.328125 -213.523438 75.984375 -224.078125 C 95.640625 -234.640625 117.710938 -239.921875 142.203125 -239.921875 C 166.691406 -239.921875 188.707031 -234.640625 208.25 -224.078125 C 227.789062 -213.523438 243.175781 -198.976562 254.40625 -180.4375 C 265.644531 -161.90625 271.265625 -141.070312 271.265625 -117.9375 C 271.265625 -94.800781 265.644531 -73.960938 254.40625 -55.421875 C 243.175781 -36.890625 227.789062 -22.34375 208.25 -11.78125 C 188.707031 -1.226562 166.691406 4.046875 142.203125 4.046875 Z M 142.203125 -42.453125 C 156.128906 -42.453125 168.707031 -45.65625 179.9375 -52.0625 C 191.175781 -58.46875 199.992188 -67.394531 206.390625 -78.84375 C 212.796875 -90.300781 216 -103.332031 216 -117.9375 C 216 -132.539062 212.796875 -145.570312 206.390625 -157.03125 C 199.992188 -168.488281 191.175781 -177.414062 179.9375 -183.8125 C 168.707031 -190.21875 156.128906 -193.421875 142.203125 -193.421875 C 128.273438 -193.421875 115.691406 -190.21875 104.453125 -183.8125 C 93.222656 -177.414062 84.40625 -168.488281 78 -157.03125 C 71.601562 -145.570312 68.40625 -132.539062 68.40625 -117.9375 C 68.40625 -103.332031 71.601562 -90.300781 78 -78.84375 C 84.40625 -67.394531 93.222656 -58.46875 104.453125 -52.0625 C 115.691406 -45.65625 128.273438 -42.453125 142.203125 -42.453125 Z M 142.203125 -42.453125 "/></g></g></g><g fill="#172641" fill-opacity="1"><g transform="translate(562.237902, 326.618799)"><g/></g></g><g fill="#172641" fill-opacity="1"><g transform="translate(666.02632, 326.618799)"><g><path d="M 82.5625 -192.078125 L 82.5625 -129.734375 L 191.734375 -129.734375 L 191.734375 -85.921875 L 82.5625 -85.921875 L 82.5625 0 L 27.96875 0 L 27.96875 -235.875 L 206.21875 -235.875 L 206.21875 -192.078125 Z M 82.5625 -192.078125 "/></g></g></g><g fill="#172641" fill-opacity="1"><g transform="translate(889.77783, 326.618799)"><g><path d="M 27.96875 -235.875 L 82.5625 -235.875 L 82.5625 0 L 27.96875 0 Z M 27.96875 -235.875 "/></g></g></g><g fill="#172641" fill-opacity="1"><g transform="translate(1008.730128, 326.618799)"><g><path d="M 76.828125 -191.390625 L 1.34375 -191.390625 L 1.34375 -235.875 L 206.90625 -235.875 L 206.90625 -191.390625 L 131.421875 -191.390625 L 131.421875 0 L 76.828125 0 Z M 76.828125 -191.390625 "/></g></g></g></g></g></g><g clip-path="url(#413bf854dc)"><g transform="matrix(1, 0, 0, 1, 278, 378)"><g clip-path="url(#f398651efe)"><g clip-path="url(#725b61e9b2)"><path fill="#d94147" d="M 0.328125 0.433594 L 548.902344 0.433594 L 548.902344 34.578125 L 0.328125 34.578125 Z M 0.328125 0.433594 " fill-opacity="1" fill-rule="nonzero"/></g></g></g></g><path stroke-linecap="butt" transform="matrix(0.887673, 0, 0, 0.887673, 275.159509, 376.899897)" fill="none" stroke-linejoin="miter" d="M 0.000729362 2.497869 L 623.598618 2.497869 " stroke="#fefefe" stroke-width="5" stroke-opacity="1" stroke-miterlimit="4"/><path stroke-linecap="butt" transform="matrix(0.887673, 0, 0, 0.887673, 275.159509, 408.741439)" fill="none" stroke-linejoin="miter" d="M 0.000729362 2.500357 L 623.598618 2.500357 " stroke="#fefefe" stroke-width="5" stroke-opacity="1" stroke-miterlimit="4"/><g clip-path="url(#c037512b4d)"><path fill="#d94147" d="M 173.042969 384.578125 L 173.042969 406.539062 C 173.042969 412.605469 177.976562 417.542969 184.042969 417.542969 L 199.226562 417.542969 L 199.226562 373.578125 L 184.042969 373.578125 C 177.976562 373.578125 173.042969 378.511719 173.042969 384.578125 " fill-opacity="1" fill-rule="nonzero"/></g><path fill="#d94147" d="M 227.40625 306.746094 L 219.378906 306.746094 C 211.960938 306.746094 205.929688 312.734375 205.929688 320.15625 L 205.929688 470.960938 C 205.929688 478.34375 211.960938 484.371094 219.378906 484.371094 L 227.40625 484.371094 C 234.828125 484.371094 240.855469 478.34375 240.855469 470.960938 L 240.855469 320.15625 C 240.855469 312.734375 234.828125 306.746094 227.40625 306.746094 " fill-opacity="1" fill-rule="nonzero"/><g clip-path="url(#f5bf84a275)"><path fill="#d94147" d="M 281.238281 279.773438 L 261.007812 279.773438 C 253.585938 279.773438 247.558594 285.800781 247.558594 293.222656 L 247.558594 497.898438 C 247.558594 505.320312 253.585938 511.347656 261.007812 511.347656 L 281.238281 511.347656 C 288.621094 511.347656 294.652344 505.320312 294.652344 497.898438 L 294.652344 293.222656 C 294.652344 285.800781 288.621094 279.773438 281.238281 279.773438 " fill-opacity="1" fill-rule="nonzero"/></g><g clip-path="url(#c9bc47a517)"><path fill="#d94147" d="M 925.546875 373.578125 L 910.363281 373.578125 L 910.363281 417.542969 L 925.546875 417.542969 C 931.609375 417.542969 936.546875 412.605469 936.546875 406.539062 L 936.546875 384.578125 C 936.546875 378.511719 931.609375 373.578125 925.546875 373.578125 " fill-opacity="1" fill-rule="nonzero"/></g><path fill="#d94147" d="M 890.246094 306.746094 L 882.148438 306.746094 C 874.761719 306.746094 868.734375 312.734375 868.734375 320.15625 L 868.734375 470.960938 C 868.734375 478.34375 874.761719 484.371094 882.148438 484.371094 L 890.246094 484.371094 C 897.628906 484.371094 903.65625 478.34375 903.65625 470.960938 L 903.65625 320.15625 C 903.65625 312.734375 897.628906 306.746094 890.246094 306.746094 " fill-opacity="1" fill-rule="nonzero"/><g clip-path="url(#f47a9e8681)"><path fill="#d94147" d="M 848.582031 279.773438 L 828.351562 279.773438 C 820.964844 279.773438 814.9375 285.800781 814.9375 293.222656 L 814.9375 497.898438 C 814.9375 505.320312 820.964844 511.347656 828.351562 511.347656 L 848.582031 511.347656 C 856.003906 511.347656 862.03125 505.320312 862.03125 497.898438 L 862.03125 293.222656 C 862.03125 285.800781 856.003906 279.773438 848.582031 279.773438 " fill-opacity="1" fill-rule="nonzero"/></g></g></g><g fill="#fefefe" fill-opacity="1"><g transform="translate(61.139394, 64.387362)"><g><path d="M 4.578125 -42.78125 L 20.234375 -42.78125 C 24.066406 -42.78125 27.414062 -41.914062 30.28125 -40.1875 C 33.15625 -38.457031 35.375 -35.992188 36.9375 -32.796875 C 38.507812 -29.597656 39.296875 -25.816406 39.296875 -21.453125 C 39.296875 -17.097656 38.507812 -13.300781 36.9375 -10.0625 C 35.375 -6.820312 33.144531 -4.332031 30.25 -2.59375 C 27.363281 -0.863281 24.003906 0 20.171875 0 L 4.578125 0 Z M 19.4375 -4.890625 C 23.757812 -4.890625 27.222656 -6.304688 29.828125 -9.140625 C 32.429688 -11.972656 33.734375 -16.078125 33.734375 -21.453125 C 33.734375 -26.828125 32.441406 -30.929688 29.859375 -33.765625 C 27.273438 -36.597656 23.800781 -38.015625 19.4375 -38.015625 L 9.71875 -38.015625 L 9.71875 -4.890625 Z M 19.4375 -4.890625 "/></g></g></g><g fill="#fefefe" fill-opacity="1"><g transform="translate(103.132295, 64.387362)"><g><path d="M 5.015625 -32.21875 L 10.265625 -32.21875 L 10.265625 0 L 5.015625 0 Z M 7.578125 -38.203125 C 6.597656 -38.203125 5.78125 -38.535156 5.125 -39.203125 C 4.476562 -39.878906 4.15625 -40.6875 4.15625 -41.625 C 4.15625 -42.5625 4.476562 -43.363281 5.125 -44.03125 C 5.78125 -44.707031 6.597656 -45.046875 7.578125 -45.046875 C 8.554688 -45.046875 9.378906 -44.707031 10.046875 -44.03125 C 10.722656 -43.363281 11.0625 -42.5625 11.0625 -41.625 C 11.0625 -40.6875 10.722656 -39.878906 10.046875 -39.203125 C 9.378906 -38.535156 8.554688 -38.203125 7.578125 -38.203125 Z M 7.578125 -38.203125 "/></g></g></g><g fill="#fefefe" fill-opacity="1"><g transform="translate(118.413555, 64.387362)"><g><path d="M 15.59375 0.421875 C 12.976562 0.421875 10.710938 -0.09375 8.796875 -1.125 C 6.878906 -2.164062 5.421875 -3.5 4.421875 -5.125 C 3.429688 -6.757812 2.9375 -8.472656 2.9375 -10.265625 L 2.9375 -10.578125 L 8.1875 -10.578125 L 8.1875 -10.328125 C 8.1875 -9.304688 8.472656 -8.296875 9.046875 -7.296875 C 9.617188 -6.304688 10.472656 -5.492188 11.609375 -4.859375 C 12.753906 -4.222656 14.140625 -3.90625 15.765625 -3.90625 C 17.722656 -3.90625 19.34375 -4.382812 20.625 -5.34375 C 21.914062 -6.300781 22.5625 -7.617188 22.5625 -9.296875 C 22.5625 -10.679688 22.0625 -11.78125 21.0625 -12.59375 C 20.0625 -13.40625 18.804688 -13.9375 17.296875 -14.1875 L 13.078125 -14.796875 C 10.429688 -15.203125 8.210938 -16.109375 6.421875 -17.515625 C 4.628906 -18.921875 3.734375 -20.96875 3.734375 -23.65625 C 3.734375 -26.632812 4.800781 -28.945312 6.9375 -30.59375 C 9.070312 -32.238281 11.8125 -33.0625 15.15625 -33.0625 C 17.644531 -33.0625 19.773438 -32.601562 21.546875 -31.6875 C 23.316406 -30.769531 24.671875 -29.566406 25.609375 -28.078125 C 26.546875 -26.597656 27.015625 -24.984375 27.015625 -23.234375 L 27.015625 -22.984375 L 21.765625 -22.984375 L 21.765625 -23.109375 C 21.765625 -23.921875 21.550781 -24.773438 21.125 -25.671875 C 20.695312 -26.566406 19.972656 -27.335938 18.953125 -27.984375 C 17.929688 -28.640625 16.625 -28.96875 15.03125 -28.96875 C 13.082031 -28.96875 11.515625 -28.488281 10.328125 -27.53125 C 9.148438 -26.570312 8.5625 -25.320312 8.5625 -23.78125 C 8.5625 -22.507812 9.03125 -21.46875 9.96875 -20.65625 C 10.90625 -19.84375 12.085938 -19.316406 13.515625 -19.078125 L 18.09375 -18.34375 C 20.78125 -17.894531 23.039062 -16.96875 24.875 -15.5625 C 26.707031 -14.15625 27.625 -12.085938 27.625 -9.359375 C 27.625 -7.398438 27.101562 -5.6875 26.0625 -4.21875 C 25.03125 -2.75 23.597656 -1.609375 21.765625 -0.796875 C 19.929688 0.015625 17.875 0.421875 15.59375 0.421875 Z M 15.59375 0.421875 "/></g></g></g><g fill="#fefefe" fill-opacity="1"><g transform="translate(148.731572, 64.387362)"><g><path d="M 18.15625 0.421875 C 14.851562 0.421875 12.070312 -0.367188 9.8125 -1.953125 C 7.550781 -3.546875 5.867188 -5.625 4.765625 -8.1875 C 3.671875 -10.757812 3.125 -13.472656 3.125 -16.328125 C 3.125 -19.210938 3.671875 -21.925781 4.765625 -24.46875 C 5.867188 -27.019531 7.5625 -29.085938 9.84375 -30.671875 C 12.125 -32.265625 14.914062 -33.0625 18.21875 -33.0625 C 22.53125 -33.0625 25.976562 -31.613281 28.5625 -28.71875 C 31.15625 -25.832031 32.453125 -21.679688 32.453125 -16.265625 L 32.453125 -14.796875 L 8.375 -14.796875 L 8.375 -14.359375 C 8.375 -12.566406 8.78125 -10.875 9.59375 -9.28125 C 10.40625 -7.695312 11.546875 -6.414062 13.015625 -5.4375 C 14.484375 -4.457031 16.175781 -3.96875 18.09375 -3.96875 C 20.164062 -3.96875 21.957031 -4.5 23.46875 -5.5625 C 24.976562 -6.625 26.097656 -8.050781 26.828125 -9.84375 L 32.03125 -9.84375 C 31.175781 -6.90625 29.578125 -4.457031 27.234375 -2.5 C 24.890625 -0.550781 21.863281 0.421875 18.15625 0.421875 Z M 27.265625 -18.515625 C 27.097656 -22.179688 26.195312 -24.828125 24.5625 -26.453125 C 22.9375 -28.085938 20.800781 -28.90625 18.15625 -28.90625 C 15.257812 -28.90625 12.957031 -27.945312 11.25 -26.03125 C 9.539062 -24.125 8.625 -21.617188 8.5 -18.515625 Z M 27.265625 -18.515625 "/></g></g></g><g fill="#fefefe" fill-opacity="1"><g transform="translate(184.367464, 64.387362)"><g><path d="M 4.578125 -32.21875 L 9.84375 -32.21875 L 9.84375 -26.40625 L 10.328125 -26.40625 C 11.140625 -28.28125 12.460938 -29.859375 14.296875 -31.140625 C 16.128906 -32.421875 18.375 -33.0625 21.03125 -33.0625 C 23.757812 -33.0625 26.039062 -32.421875 27.875 -31.140625 C 29.707031 -29.859375 31.0625 -28.164062 31.9375 -26.0625 C 32.8125 -23.96875 33.25 -21.695312 33.25 -19.25 L 33.25 0 L 28 0 L 28 -18.578125 C 28 -21.753906 27.171875 -24.175781 25.515625 -25.84375 C 23.867188 -27.519531 21.722656 -28.359375 19.078125 -28.359375 C 16.265625 -28.359375 14.019531 -27.453125 12.34375 -25.640625 C 10.675781 -23.828125 9.84375 -21.472656 9.84375 -18.578125 L 9.84375 0 L 4.578125 0 Z M 9.96875 -37.953125 C 9.882812 -39.742188 10.257812 -41.3125 11.09375 -42.65625 C 11.925781 -44.007812 13.28125 -44.6875 15.15625 -44.6875 C 15.925781 -44.6875 16.628906 -44.53125 17.265625 -44.21875 C 17.898438 -43.914062 18.644531 -43.457031 19.5 -42.84375 C 20.113281 -42.394531 20.625 -42.054688 21.03125 -41.828125 C 21.4375 -41.609375 21.84375 -41.5 22.25 -41.5 C 22.976562 -41.5 23.503906 -41.804688 23.828125 -42.421875 C 24.160156 -43.035156 24.285156 -43.789062 24.203125 -44.6875 L 27.390625 -44.6875 C 27.503906 -42.925781 27.15625 -41.363281 26.34375 -40 C 25.53125 -38.632812 24.164062 -37.953125 22.25 -37.953125 C 21.476562 -37.953125 20.773438 -38.101562 20.140625 -38.40625 C 19.503906 -38.71875 18.757812 -39.179688 17.90625 -39.796875 C 17.257812 -40.242188 16.738281 -40.566406 16.34375 -40.765625 C 15.957031 -40.972656 15.5625 -41.078125 15.15625 -41.078125 C 13.726562 -41.078125 13.054688 -40.035156 13.140625 -37.953125 Z M 9.96875 -37.953125 "/></g></g></g><g fill="#fefefe" fill-opacity="1"><g transform="translate(221.775987, 64.387362)"><g><path d="M 18.21875 0.421875 C 14.957031 0.421875 12.195312 -0.359375 9.9375 -1.921875 C 7.675781 -3.492188 5.972656 -5.550781 4.828125 -8.09375 C 3.691406 -10.644531 3.125 -13.390625 3.125 -16.328125 C 3.125 -19.253906 3.691406 -21.988281 4.828125 -24.53125 C 5.972656 -27.082031 7.675781 -29.140625 9.9375 -30.703125 C 12.195312 -32.273438 14.957031 -33.0625 18.21875 -33.0625 C 21.476562 -33.0625 24.238281 -32.273438 26.5 -30.703125 C 28.757812 -29.140625 30.445312 -27.070312 31.5625 -24.5 C 32.6875 -21.9375 33.25 -19.210938 33.25 -16.328125 C 33.25 -13.429688 32.675781 -10.695312 31.53125 -8.125 C 30.394531 -5.5625 28.695312 -3.492188 26.4375 -1.921875 C 24.175781 -0.359375 21.4375 0.421875 18.21875 0.421875 Z M 18.21875 -4.09375 C 20.207031 -4.09375 21.945312 -4.640625 23.4375 -5.734375 C 24.925781 -6.835938 26.054688 -8.316406 26.828125 -10.171875 C 27.609375 -12.023438 28 -14.09375 28 -16.375 C 28 -19.882812 27.117188 -22.800781 25.359375 -25.125 C 23.609375 -27.445312 21.226562 -28.609375 18.21875 -28.609375 C 16.175781 -28.609375 14.410156 -28.054688 12.921875 -26.953125 C 11.441406 -25.859375 10.3125 -24.382812 9.53125 -22.53125 C 8.757812 -20.675781 8.375 -18.625 8.375 -16.375 C 8.375 -12.875 9.25 -9.953125 11 -7.609375 C 12.75 -5.265625 15.15625 -4.09375 18.21875 -4.09375 Z M 18.21875 -4.09375 "/></g></g></g><g fill="#fefefe" fill-opacity="1"><g transform="translate(258.145388, 64.387362)"><g/></g></g><g fill="#fefefe" fill-opacity="1"><g transform="translate(272.204133, 64.387362)"><g><path d="M 16.5 0.421875 C 13.644531 0.421875 11.207031 -0.304688 9.1875 -1.765625 C 7.175781 -3.234375 5.640625 -5.226562 4.578125 -7.75 C 3.523438 -10.28125 3 -13.140625 3 -16.328125 C 3 -19.546875 3.523438 -22.414062 4.578125 -24.9375 C 5.640625 -27.46875 7.1875 -29.453125 9.21875 -30.890625 C 11.257812 -32.335938 13.726562 -33.0625 16.625 -33.0625 C 19.476562 -33.0625 21.789062 -32.378906 23.5625 -31.015625 C 25.332031 -29.648438 26.644531 -28.050781 27.5 -26.21875 L 28 -26.21875 L 28 -45.84375 L 33.25 -45.84375 L 33.25 0 L 28 0 L 28 -6.59375 L 27.5 -6.59375 C 26.53125 -4.644531 25.15625 -2.988281 23.375 -1.625 C 21.601562 -0.257812 19.3125 0.421875 16.5 0.421875 Z M 18.09375 -4.09375 C 21.269531 -4.09375 23.691406 -5.265625 25.359375 -7.609375 C 27.035156 -9.953125 27.875 -12.859375 27.875 -16.328125 C 27.875 -19.785156 27.035156 -22.675781 25.359375 -25 C 23.691406 -27.320312 21.269531 -28.484375 18.09375 -28.484375 C 14.875 -28.484375 12.445312 -27.320312 10.8125 -25 C 9.1875 -22.675781 8.375 -19.785156 8.375 -16.328125 C 8.375 -12.816406 9.195312 -9.898438 10.84375 -7.578125 C 12.5 -5.253906 14.914062 -4.09375 18.09375 -4.09375 Z M 18.09375 -4.09375 "/></g></g></g><g fill="#fefefe" fill-opacity="1"><g transform="translate(310.04054, 64.387362)"><g><path d="M 18.15625 0.421875 C 14.851562 0.421875 12.070312 -0.367188 9.8125 -1.953125 C 7.550781 -3.546875 5.867188 -5.625 4.765625 -8.1875 C 3.671875 -10.757812 3.125 -13.472656 3.125 -16.328125 C 3.125 -19.210938 3.671875 -21.925781 4.765625 -24.46875 C 5.867188 -27.019531 7.5625 -29.085938 9.84375 -30.671875 C 12.125 -32.265625 14.914062 -33.0625 18.21875 -33.0625 C 22.53125 -33.0625 25.976562 -31.613281 28.5625 -28.71875 C 31.15625 -25.832031 32.453125 -21.679688 32.453125 -16.265625 L 32.453125 -14.796875 L 8.375 -14.796875 L 8.375 -14.359375 C 8.375 -12.566406 8.78125 -10.875 9.59375 -9.28125 C 10.40625 -7.695312 11.546875 -6.414062 13.015625 -5.4375 C 14.484375 -4.457031 16.175781 -3.96875 18.09375 -3.96875 C 20.164062 -3.96875 21.957031 -4.5 23.46875 -5.5625 C 24.976562 -6.625 26.097656 -8.050781 26.828125 -9.84375 L 32.03125 -9.84375 C 31.175781 -6.90625 29.578125 -4.457031 27.234375 -2.5 C 24.890625 -0.550781 21.863281 0.421875 18.15625 0.421875 Z M 27.265625 -18.515625 C 27.097656 -22.179688 26.195312 -24.828125 24.5625 -26.453125 C 22.9375 -28.085938 20.800781 -28.90625 18.15625 -28.90625 C 15.257812 -28.90625 12.957031 -27.945312 11.25 -26.03125 C 9.539062 -24.125 8.625 -21.617188 8.5 -18.515625 Z M 27.265625 -18.515625 "/></g></g></g><g fill="#fefefe" fill-opacity="1"><g transform="translate(345.676431, 64.387362)"><g/></g></g><g fill="#fefefe" fill-opacity="1"><g transform="translate(359.735176, 64.387362)"><g><path d="M 12.84375 0.25 C 10.4375 0.25 8.640625 -0.132812 7.453125 -0.90625 C 6.273438 -1.6875 5.53125 -2.695312 5.21875 -3.9375 C 4.914062 -5.1875 4.765625 -6.804688 4.765625 -8.796875 L 4.828125 -45.84375 L 10.078125 -45.84375 L 10.078125 -9.59375 C 10.078125 -8.050781 10.148438 -6.898438 10.296875 -6.140625 C 10.441406 -5.390625 10.828125 -4.789062 11.453125 -4.34375 C 12.085938 -3.894531 13.097656 -3.671875 14.484375 -3.671875 C 15.335938 -3.671875 16.09375 -3.726562 16.75 -3.84375 L 16.75 -0.0625 C 15.644531 0.144531 14.34375 0.25 12.84375 0.25 Z M 12.84375 0.25 "/></g></g></g><g fill="#fefefe" fill-opacity="1"><g transform="translate(378.92845, 64.387362)"><g><path d="M 18.21875 0.421875 C 14.957031 0.421875 12.195312 -0.359375 9.9375 -1.921875 C 7.675781 -3.492188 5.972656 -5.550781 4.828125 -8.09375 C 3.691406 -10.644531 3.125 -13.390625 3.125 -16.328125 C 3.125 -19.253906 3.691406 -21.988281 4.828125 -24.53125 C 5.972656 -27.082031 7.675781 -29.140625 9.9375 -30.703125 C 12.195312 -32.273438 14.957031 -33.0625 18.21875 -33.0625 C 21.476562 -33.0625 24.238281 -32.273438 26.5 -30.703125 C 28.757812 -29.140625 30.445312 -27.070312 31.5625 -24.5 C 32.6875 -21.9375 33.25 -19.210938 33.25 -16.328125 C 33.25 -13.429688 32.675781 -10.695312 31.53125 -8.125 C 30.394531 -5.5625 28.695312 -3.492188 26.4375 -1.921875 C 24.175781 -0.359375 21.4375 0.421875 18.21875 0.421875 Z M 18.21875 -4.09375 C 20.207031 -4.09375 21.945312 -4.640625 23.4375 -5.734375 C 24.925781 -6.835938 26.054688 -8.316406 26.828125 -10.171875 C 27.609375 -12.023438 28 -14.09375 28 -16.375 C 28 -19.882812 27.117188 -22.800781 25.359375 -25.125 C 23.609375 -27.445312 21.226562 -28.609375 18.21875 -28.609375 C 16.175781 -28.609375 14.410156 -28.054688 12.921875 -26.953125 C 11.441406 -25.859375 10.3125 -24.382812 9.53125 -22.53125 C 8.757812 -20.675781 8.375 -18.625 8.375 -16.375 C 8.375 -12.875 9.25 -9.953125 11 -7.609375 C 12.75 -5.265625 15.15625 -4.09375 18.21875 -4.09375 Z M 18.21875 -4.09375 "/></g></g></g><g fill="#fefefe" fill-opacity="1"><g transform="translate(415.297839, 64.387362)"><g><path d="M 19.015625 12.890625 C 17.785156 12.890625 16.796875 12.804688 16.046875 12.640625 C 15.296875 12.484375 14.53125 12.265625 13.75 11.984375 L 13.75 7.578125 C 14.28125 7.742188 14.992188 7.894531 15.890625 8.03125 C 16.785156 8.175781 17.660156 8.25 18.515625 8.25 C 21.691406 8.25 24.085938 7.351562 25.703125 5.5625 C 27.316406 3.769531 28.125 1.382812 28.125 -1.59375 L 28.125 -7.390625 L 27.625 -7.390625 C 26.769531 -5.472656 25.394531 -3.851562 23.5 -2.53125 C 21.601562 -1.207031 19.3125 -0.546875 16.625 -0.546875 C 13.9375 -0.546875 11.570312 -1.238281 9.53125 -2.625 C 7.5 -4.007812 5.921875 -5.9375 4.796875 -8.40625 C 3.679688 -10.875 3.125 -13.695312 3.125 -16.875 C 3.125 -20.050781 3.679688 -22.867188 4.796875 -25.328125 C 5.921875 -27.796875 7.5 -29.722656 9.53125 -31.109375 C 11.570312 -32.492188 13.9375 -33.1875 16.625 -33.1875 C 19.4375 -33.1875 21.789062 -32.460938 23.6875 -31.015625 C 25.582031 -29.566406 26.914062 -27.890625 27.6875 -25.984375 L 28.125 -25.984375 L 28.125 -32.15625 L 33.4375 -32.15625 L 33.4375 -1.59375 C 33.4375 0.6875 32.976562 2.925781 32.0625 5.125 C 31.144531 7.332031 29.601562 9.175781 27.4375 10.65625 C 25.28125 12.144531 22.472656 12.890625 19.015625 12.890625 Z M 18.34375 -5.078125 C 20.414062 -5.078125 22.1875 -5.632812 23.65625 -6.75 C 25.125 -7.875 26.210938 -9.34375 26.921875 -11.15625 C 27.640625 -12.96875 28 -14.914062 28 -17 C 28 -19.03125 27.640625 -20.921875 26.921875 -22.671875 C 26.210938 -24.429688 25.132812 -25.859375 23.6875 -26.953125 C 22.238281 -28.054688 20.457031 -28.609375 18.34375 -28.609375 C 15.195312 -28.609375 12.800781 -27.476562 11.15625 -25.21875 C 9.507812 -22.957031 8.6875 -20.21875 8.6875 -17 C 8.6875 -14.875 9.039062 -12.90625 9.75 -11.09375 C 10.457031 -9.28125 11.535156 -7.820312 12.984375 -6.71875 C 14.429688 -5.625 16.21875 -5.078125 18.34375 -5.078125 Z M 18.34375 -5.078125 "/></g></g></g><g fill="#fefefe" fill-opacity="1"><g transform="translate(453.745498, 64.387362)"><g><path d="M 18.21875 0.421875 C 14.957031 0.421875 12.195312 -0.359375 9.9375 -1.921875 C 7.675781 -3.492188 5.972656 -5.550781 4.828125 -8.09375 C 3.691406 -10.644531 3.125 -13.390625 3.125 -16.328125 C 3.125 -19.253906 3.691406 -21.988281 4.828125 -24.53125 C 5.972656 -27.082031 7.675781 -29.140625 9.9375 -30.703125 C 12.195312 -32.273438 14.957031 -33.0625 18.21875 -33.0625 C 21.476562 -33.0625 24.238281 -32.273438 26.5 -30.703125 C 28.757812 -29.140625 30.445312 -27.070312 31.5625 -24.5 C 32.6875 -21.9375 33.25 -19.210938 33.25 -16.328125 C 33.25 -13.429688 32.675781 -10.695312 31.53125 -8.125 C 30.394531 -5.5625 28.695312 -3.492188 26.4375 -1.921875 C 24.175781 -0.359375 21.4375 0.421875 18.21875 0.421875 Z M 18.21875 -4.09375 C 20.207031 -4.09375 21.945312 -4.640625 23.4375 -5.734375 C 24.925781 -6.835938 26.054688 -8.316406 26.828125 -10.171875 C 27.609375 -12.023438 28 -14.09375 28 -16.375 C 28 -19.882812 27.117188 -22.800781 25.359375 -25.125 C 23.609375 -27.445312 21.226562 -28.609375 18.21875 -28.609375 C 16.175781 -28.609375 14.410156 -28.054688 12.921875 -26.953125 C 11.441406 -25.859375 10.3125 -24.382812 9.53125 -22.53125 C 8.757812 -20.675781 8.375 -18.625 8.375 -16.375 C 8.375 -12.875 9.25 -9.953125 11 -7.609375 C 12.75 -5.265625 15.15625 -4.09375 18.21875 -4.09375 Z M 18.21875 -4.09375 "/></g></g></g></svg>